<?xml version="1.0" encoding="UTF-8"?><svg id="Layer_1" xmlns="http://www.w3.org/2000/svg" viewBox="0 0 166 100"><defs><style>.cls-1{fill:#3a4259;}</style></defs><path class="cls-1" d="m117.18,9.88l-1.73-2.62-.27.12c-.53-.51-1.08-1.08-1.51-1.53-.02-.9-.75-1.62-1.65-1.62s-1.65.74-1.65,1.65c0,.7.44,1.3,1.06,1.54l1,1.22-4.39,2.01,1.98,6.45h2.86l-.95-4.89,5.26-2.34Z"/><path class="cls-1" d="m48.52,13.95c2.18.29,4.69,3.69,4.69,3.69.6.08,1.22.03,1.87-.14.46.26.98.44,1.54.51l.97,2.18h-.86v.93h4.73v-.93h-1.36l-.8-2.64c1.24-.57,2.28-1.59,3.08-2.75,2.73-.03,6.05.29,7.82-.78,3.73-2.27-12.38-3.12-18.17-3.38-7.76-.35-6.75,2.87-3.51,3.3Zm13.19.88c-.69.93-1.55,1.73-2.57,2.22l-.45-1.5c.65-.5,1.75-.67,3.03-.72Zm-5.51,2.26l.15.33c-.19-.04-.37-.09-.54-.16.13-.05.26-.11.39-.17Z"/><path class="cls-1" d="m93.65,76.6h-1.66l-6.2-6.41c1.98-1.48,3.26-3.83,3.26-6.49,0-4.48-3.63-8.11-8.11-8.11-2.56,0-4.84,1.19-6.33,3.05l-3.62-3.74c.16-.21.25-.46.25-.74v-.31c0-.68-.55-1.23-1.23-1.23h-1.22l-.15-.15-.16.15h-1.85c.19.65.52,1.44.72,2.19,0,.08.02.15.02.23l.05.05c.04.19.08.38.1.56l.41-.04,3.29,3.4-30.74-1.16c-.85-.54-1.85-.86-2.94-.86-3.02,0-5.46,2.45-5.46,5.46,0,.79.17,1.53.47,2.21.09.79.39,1.74,1.12,2.8l1.47,2.49-1.31,1.91-.87.81c-.22-.08-.46-.13-.71-.13-1.19,0-2.16.97-2.16,2.16s.97,2.16,2.16,2.16c.28,0,.55-.06.8-.16l.04.35,45.61-5.57c.71.21,1.46.32,2.24.32s1.59-.12,2.33-.34l4.97,5.14h-2.69c-.65,0-1.18.53-1.18,1.18v.97c0,.65.53,1.18,1.18,1.18h8.1c.65,0,1.18-.53,1.18-1.18v-.97c0-.65-.53-1.18-1.18-1.18Zm-59.92-.34c.41-.39.67-.94.67-1.56,0-.18-.03-.36-.07-.53l1.85-1.43,2.48-4.94c2.48-.52,4.35-2.71,4.35-5.35,0-1.5-.61-2.86-1.59-3.85l30.52,1.15,1.32,1.37c-.27.81-.43,1.68-.43,2.59,0,3.17,1.82,5.9,4.47,7.24l-43.57,5.32Z"/></svg>