<?xml version="1.0" encoding="UTF-8"?><svg id="Layer_1" xmlns="http://www.w3.org/2000/svg" viewBox="0 0 166 100"><defs><style>.cls-1{fill:#c9c9c9;}.cls-2{fill:#ddd;}.cls-3{fill:#3a4259;}</style></defs><rect class="cls-3" x="125.48" y="37.05" width=".36" height="25.36" transform="translate(-7.83 28.63) rotate(-12.61)"/><rect class="cls-3" x="128.96" y="36.61" width=".36" height="25.38" transform="translate(259.65 94.86) rotate(178.34)"/><rect class="cls-3" x="119.72" y="40.35" width=".36" height="25.36" transform="translate(-4.24 95.18) rotate(-42.62)"/><rect class="cls-3" x="122.52" y="38.23" width=".36" height="25.38" transform="translate(253.86 29.88) rotate(148.35)"/><rect class="cls-3" x="116.38" y="46.09" width=".36" height="25.36" transform="translate(25.64 152.43) rotate(-72.61)"/><rect class="cls-3" x="117.75" y="42.85" width=".36" height="25.38" transform="translate(222.8 -21.87) rotate(118.35)"/><rect class="cls-3" x="116.36" y="52.72" width=".36" height="25.36" transform="translate(78.15 193.41) rotate(-102.61)"/><rect class="cls-3" x="115.93" y="49.23" width=".36" height="25.38" transform="translate(174.65 -55.92) rotate(88.34)"/><rect class="cls-3" x="119.65" y="58.48" width=".36" height="25.36" transform="translate(148.6 207.53) rotate(-132.62)"/><rect class="cls-3" x="117.54" y="55.67" width=".36" height="25.38" transform="translate(114.15 -67.72) rotate(58.35)"/><rect class="cls-3" x="125.39" y="61.82" width=".36" height="25.36" transform="translate(223.14 183.12) rotate(-162.61)"/><rect class="cls-3" x="122.16" y="60.44" width=".36" height="25.38" transform="translate(49.39 -49.31) rotate(28.34)"/><rect class="cls-3" x="132.03" y="61.85" width=".36" height="25.36" transform="translate(277.51 118.36) rotate(167.38)"/><rect class="cls-3" x="128.55" y="62.26" width=".36" height="25.38" transform="translate(-2.11 3.75) rotate(-1.65)"/><rect class="cls-3" x="137.79" y="58.55" width=".36" height="25.36" transform="translate(287.73 30.25) rotate(137.39)"/><rect class="cls-3" x="134.99" y="60.65" width=".36" height="25.38" transform="translate(-18.38 81.85) rotate(-31.66)"/><rect class="cls-3" x="141.13" y="52.81" width=".36" height="25.36" transform="translate(246.03 -49.79) rotate(107.39)"/><rect class="cls-3" x="139.76" y="56.03" width=".36" height="25.38" transform="translate(13.02 159.26) rotate(-61.66)"/><rect class="cls-3" x="141.15" y="46.17" width=".36" height="25.36" transform="translate(167.91 -91.92) rotate(77.39)"/><rect class="cls-3" x="141.58" y="49.64" width=".36" height="25.38" transform="translate(83.54 205.83) rotate(-91.65)"/><rect class="cls-3" x="137.85" y="40.41" width=".36" height="25.36" transform="translate(83.66 -84.44) rotate(47.39)"/><rect class="cls-3" x="139.96" y="43.2" width=".36" height="25.38" transform="translate(166.13 204.52) rotate(-121.66)"/><rect class="cls-3" x="132.12" y="37.07" width=".36" height="25.36" transform="translate(20.91 -37.26) rotate(17.39)"/><rect class="cls-3" x="135.34" y="38.44" width=".36" height="25.38" transform="translate(230.49 160.49) rotate(-151.64)"/><path class="cls-2" d="m125.21,32.01c-16.63,2.08-28.42,17.25-26.34,33.88,2.08,16.63,17.25,28.42,33.88,26.34,16.63-2.08,28.42-17.25,26.34-33.88-2.08-16.63-17.25-28.42-33.88-26.34Zm7.07,56.52c-14.58,1.82-27.88-8.52-29.71-23.1s8.52-27.88,23.1-29.71,27.88,8.52,29.71,23.1-8.52,27.88-23.1,29.71Z"/><path class="cls-3" d="m124.75,28.33c-18.66,2.33-31.89,19.35-29.56,38.02,2.33,18.66,19.35,31.89,38.02,29.56s31.89-19.35,29.56-38.02c-2.33-18.66-19.35-31.89-38.02-29.56Zm7.81,62.4c-15.8,1.98-30.22-9.23-32.19-25.03-1.98-15.8,9.23-30.22,25.03-32.19,15.8-1.98,30.22,9.23,32.19,25.03s-9.23,30.22-25.03,32.19Z"/><rect class="cls-1" x="122.2" y="35.84" width="1.19" height="2.13" transform="translate(-5.1 27.71) rotate(-12.61)"/><rect class="cls-1" x="128.16" y="35.09" width="1.19" height="2.13" transform="translate(258.5 68.6) rotate(178.35)"/><rect class="cls-1" x="110.41" y="42.29" width="1.19" height="2.13" transform="translate(-.05 86.6) rotate(-42.61)"/><rect class="cls-1" x="115.2" y="38.66" width="1.19" height="2.13" transform="translate(235.21 12.79) rotate(148.35)"/><rect class="cls-1" x="103.43" y="53.77" width="1.19" height="2.13" transform="translate(20.61 137.72) rotate(-72.61)"/><rect class="cls-1" x="105.76" y="48.23" width="1.19" height="2.13" transform="translate(200.24 -20.9) rotate(118.35)"/><rect class="cls-1" x="103.12" y="67.2" width="1.19" height="2.13" transform="translate(59.74 184.39) rotate(-102.61)"/><rect class="cls-1" x="102.37" y="61.24" width="1.19" height="2.13" transform="translate(162.28 -42.41) rotate(88.35)"/><rect class="cls-1" x="109.57" y="78.99" width="1.19" height="2.13" transform="translate(125.83 215.33) rotate(-132.61)"/><rect class="cls-1" x="105.94" y="74.2" width="1.19" height="2.13" transform="translate(114.7 -54.92) rotate(58.35)"/><rect class="cls-1" x="121.05" y="85.98" width="1.19" height="2.13" transform="translate(211.72 206.46) rotate(-162.61)"/><rect class="cls-1" x="115.51" y="83.64" width="1.19" height="2.13" transform="translate(54.14 -44.97) rotate(28.35)"/><rect class="cls-1" x="134.48" y="86.28" width="1.19" height="2.13" transform="translate(285.97 143.09) rotate(167.39)"/><rect class="cls-1" x="128.52" y="87.03" width="1.19" height="2.13" transform="translate(-2.48 3.75) rotate(-1.65)"/><rect class="cls-1" x="146.27" y="79.83" width="1.19" height="2.13" transform="translate(309.72 41.01) rotate(137.39)"/><rect class="cls-1" x="141.48" y="83.46" width="1.19" height="2.13" transform="translate(-23.22 87.13) rotate(-31.65)"/><rect class="cls-1" x="153.25" y="68.35" width="1.19" height="2.13" transform="translate(266.07 -56.65) rotate(107.39)"/><rect class="cls-1" x="150.92" y="73.89" width="1.19" height="2.13" transform="translate(13.6 172.71) rotate(-61.65)"/><rect class="cls-1" x="153.56" y="54.92" width="1.19" height="2.13" transform="translate(175.13 -106.67) rotate(77.39)"/><rect class="cls-1" x="154.31" y="60.88" width="1.19" height="2.13" transform="translate(97.45 218.58) rotate(-91.65)"/><rect class="cls-1" x="147.11" y="43.13" width="1.19" height="2.13" transform="translate(80.23 -94.43) rotate(47.39)"/><rect class="cls-1" x="150.74" y="47.92" width="1.19" height="2.13" transform="translate(189.04 203.52) rotate(-121.65)"/><rect class="cls-1" x="135.63" y="36.15" width="1.19" height="2.13" transform="translate(17.35 -39.01) rotate(17.39)"/><rect class="cls-1" x="141.17" y="38.48" width="1.19" height="2.13" transform="translate(247.75 141.67) rotate(-151.65)"/><path class="cls-1" d="m125.55,34.79c-15.1,1.89-25.8,15.66-23.91,30.75,1.89,15.1,15.66,25.8,30.75,23.91,15.1-1.89,25.8-15.66,23.91-30.75-1.89-15.1-15.66-25.8-30.75-23.91Zm6.65,53.12c-14.24,1.78-27.23-8.32-29.01-22.56-1.78-14.24,8.32-27.23,22.56-29.01,14.24-1.78,27.23,8.32,29.01,22.56,1.78,14.24-8.32,27.23-22.56,29.01Z"/><rect class="cls-3" x="33.53" y="37.05" width=".36" height="25.36" transform="translate(-10.04 8.56) rotate(-12.61)"/><rect class="cls-3" x="37.01" y="36.61" width=".36" height="25.38" transform="translate(75.79 97.51) rotate(178.34)"/><rect class="cls-3" x="27.77" y="40.35" width=".36" height="25.36" transform="translate(-28.52 32.93) rotate(-42.62)"/><rect class="cls-3" x="30.57" y="38.23" width=".36" height="25.38" transform="translate(83.65 78.13) rotate(148.35)"/><rect class="cls-3" x="24.43" y="46.09" width=".36" height="25.36" transform="translate(-38.83 64.69) rotate(-72.61)"/><rect class="cls-3" x="25.8" y="42.85" width=".36" height="25.38" transform="translate(87.19 59.05) rotate(118.35)"/><rect class="cls-3" x="24.41" y="52.72" width=".36" height="25.36" transform="translate(-33.87 103.68) rotate(-102.61)"/><rect class="cls-3" x="23.98" y="49.23" width=".36" height="25.38" transform="translate(85.36 35.98) rotate(88.34)"/><rect class="cls-3" x="27.71" y="58.48" width=".36" height="25.36" transform="translate(-5.61 139.87) rotate(-132.62)"/><rect class="cls-3" x="25.6" y="55.67" width=".36" height="25.38" transform="translate(70.45 10.55) rotate(58.35)"/><rect class="cls-3" x="33.44" y="61.82" width=".36" height="25.36" transform="translate(43.45 155.65) rotate(-162.61)"/><rect class="cls-3" x="30.22" y="60.44" width=".36" height="25.38" transform="translate(38.36 -5.66) rotate(28.34)"/><rect class="cls-3" x="40.08" y="61.85" width=".36" height="25.36" transform="translate(95.83 138.46) rotate(167.38)"/><rect class="cls-3" x="36.6" y="62.26" width=".36" height="25.38" transform="translate(-2.15 1.09) rotate(-1.65)"/><rect class="cls-3" x="45.84" y="58.55" width=".36" height="25.36" transform="translate(128.11 92.5) rotate(137.39)"/><rect class="cls-3" x="43.04" y="60.65" width=".36" height="25.38" transform="translate(-32.06 33.59) rotate(-31.66)"/><rect class="cls-3" x="49.18" y="52.81" width=".36" height="25.36" transform="translate(126.61 37.96) rotate(107.39)"/><rect class="cls-3" x="47.81" y="56.03" width=".36" height="25.38" transform="translate(-35.28 78.33) rotate(-61.66)"/><rect class="cls-3" x="49.21" y="46.17" width=".36" height="25.36" transform="translate(96.04 -2.19) rotate(77.39)"/><rect class="cls-3" x="49.63" y="49.64" width=".36" height="25.38" transform="translate(-11.06 113.92) rotate(-91.65)"/><rect class="cls-3" x="45.91" y="40.41" width=".36" height="25.36" transform="translate(53.96 -16.77) rotate(47.39)"/><rect class="cls-3" x="48.02" y="43.2" width=".36" height="25.38" transform="translate(25.92 126.25) rotate(-121.66)"/><rect class="cls-3" x="40.17" y="37.07" width=".36" height="25.36" transform="translate(16.71 -9.78) rotate(17.39)"/><rect class="cls-3" x="43.4" y="38.44" width=".36" height="25.38" transform="translate(57.63 116.81) rotate(-151.64)"/><path class="cls-2" d="m33.26,32.01c-16.63,2.08-28.42,17.25-26.34,33.88,2.08,16.63,17.25,28.42,33.88,26.34,16.63-2.08,28.42-17.25,26.34-33.88-2.08-16.63-17.25-28.42-33.88-26.34Zm7.07,56.52c-14.58,1.82-27.88-8.52-29.71-23.1-1.82-14.58,8.52-27.88,23.1-29.71s27.88,8.52,29.71,23.1c1.82,14.58-8.52,27.88-23.1,29.71Z"/><path class="cls-3" d="m32.8,28.33C14.14,30.67.9,47.69,3.24,66.35c2.33,18.66,19.35,31.89,38.02,29.56s31.89-19.35,29.56-38.02c-2.33-18.66-19.35-31.89-38.02-29.56Zm7.81,62.4c-15.8,1.98-30.22-9.23-32.19-25.03-1.98-15.8,9.23-30.22,25.03-32.19,15.8-1.98,30.22,9.23,32.19,25.03,1.98,15.8-9.23,30.22-25.03,32.19Z"/><rect class="cls-1" x="30.25" y="35.84" width="1.19" height="2.13" transform="translate(-7.32 7.63) rotate(-12.61)"/><rect class="cls-1" x="36.21" y="35.09" width="1.19" height="2.13" transform="translate(74.64 71.25) rotate(178.35)"/><rect class="cls-1" x="18.46" y="42.29" width="1.19" height="2.13" transform="translate(-24.32 24.35) rotate(-42.61)"/><rect class="cls-1" x="23.25" y="38.66" width="1.19" height="2.13" transform="translate(64.99 61.03) rotate(148.35)"/><rect class="cls-1" x="11.48" y="53.77" width="1.19" height="2.13" transform="translate(-43.87 49.97) rotate(-72.61)"/><rect class="cls-1" x="13.81" y="48.23" width="1.19" height="2.13" transform="translate(64.63 60.03) rotate(118.35)"/><rect class="cls-1" x="11.17" y="67.2" width="1.19" height="2.13" transform="translate(-52.29 94.66) rotate(-102.61)"/><rect class="cls-1" x="10.42" y="61.24" width="1.19" height="2.13" transform="translate(72.98 49.5) rotate(88.35)"/><rect class="cls-1" x="17.62" y="78.99" width="1.19" height="2.13" transform="translate(-28.37 147.67) rotate(-132.61)"/><rect class="cls-1" x="13.99" y="74.2" width="1.19" height="2.13" transform="translate(71 23.35) rotate(58.35)"/><rect class="cls-1" x="29.1" y="85.98" width="1.19" height="2.13" transform="translate(32.02 178.98) rotate(-162.61)"/><rect class="cls-1" x="23.56" y="83.64" width="1.19" height="2.13" transform="translate(43.12 -1.31) rotate(28.35)"/><rect class="cls-1" x="42.53" y="86.28" width="1.19" height="2.13" transform="translate(104.29 163.17) rotate(167.39)"/><rect class="cls-1" x="36.57" y="87.03" width="1.19" height="2.13" transform="translate(-2.52 1.11) rotate(-1.65)"/><rect class="cls-1" x="54.32" y="79.83" width="1.19" height="2.13" transform="translate(150.1 103.26) rotate(137.39)"/><rect class="cls-1" x="49.53" y="83.46" width="1.19" height="2.13" transform="translate(-36.9 38.88) rotate(-31.65)"/><rect class="cls-1" x="61.31" y="68.35" width="1.19" height="2.13" transform="translate(146.64 31.1) rotate(107.39)"/><rect class="cls-1" x="58.97" y="73.89" width="1.19" height="2.13" transform="translate(-34.69 91.79) rotate(-61.65)"/><rect class="cls-1" x="61.61" y="54.92" width="1.19" height="2.13" transform="translate(103.26 -16.94) rotate(77.39)"/><rect class="cls-1" x="62.36" y="60.88" width="1.19" height="2.13" transform="translate(2.84 126.67) rotate(-91.65)"/><rect class="cls-1" x="55.16" y="43.13" width="1.19" height="2.13" transform="translate(50.54 -26.76) rotate(47.39)"/><rect class="cls-1" x="58.79" y="47.92" width="1.19" height="2.13" transform="translate(48.84 125.25) rotate(-121.65)"/><rect class="cls-1" x="43.68" y="36.15" width="1.19" height="2.13" transform="translate(13.15 -11.53) rotate(17.39)"/><rect class="cls-1" x="49.22" y="38.48" width="1.19" height="2.13" transform="translate(74.88 98.01) rotate(-151.65)"/><path class="cls-1" d="m33.61,34.79c-15.1,1.89-25.8,15.66-23.91,30.75,1.89,15.1,15.66,25.8,30.75,23.91,15.1-1.89,25.8-15.66,23.91-30.75s-15.66-25.8-30.75-23.91Zm6.65,53.12c-14.24,1.78-27.23-8.32-29.01-22.56-1.78-14.24,8.32-27.23,22.56-29.01,14.24-1.78,27.23,8.32,29.01,22.56,1.78,14.24-8.32,27.23-22.56,29.01Z"/><circle class="cls-3" cx="128.93" cy="62.79" r="3"/></svg>