<?xml version="1.0" encoding="UTF-8"?><svg id="Layer_1" xmlns="http://www.w3.org/2000/svg" viewBox="0 0 166 100"><defs><style>.cls-1{fill:#c9c9c9;}.cls-2{fill:#ddd;}.cls-3{fill:#3a4259;}</style></defs><path class="cls-3" d="m32.53,28.42C14.04,30.74.92,47.61,3.24,66.1c2.31,18.49,19.18,31.61,37.68,29.3,18.49-2.31,31.61-19.18,29.3-37.68-2.31-18.49-19.18-31.61-37.68-29.3Zm7.74,61.84c-15.66,1.96-29.95-9.15-31.91-24.81-1.96-15.66,9.15-29.95,24.81-31.91,15.66-1.96,29.95,9.15,31.91,24.81,1.96,15.66-9.15,29.95-24.81,31.91Z"/><rect class="cls-3" x="33.12" y="36.05" width=".37" height="26.16" transform="translate(-9.92 8.46) rotate(-12.61)"/><rect class="cls-3" x="36.71" y="35.6" width=".37" height="26.18" transform="translate(75.17 96.29) rotate(178.34)"/><rect class="cls-3" x="27.17" y="39.45" width=".37" height="26.16" transform="translate(-28.34 32.4) rotate(-42.62)"/><rect class="cls-3" x="30.06" y="37.27" width=".37" height="26.18" transform="translate(82.42 77.35) rotate(148.35)"/><rect class="cls-3" x="23.73" y="45.37" width=".37" height="26.16" transform="translate(-39.01 63.8) rotate(-72.61)"/><rect class="cls-3" x="25.14" y="42.03" width=".37" height="26.18" transform="translate(85.86 59.01) rotate(118.35)"/><rect class="cls-3" x="23.71" y="52.22" width=".37" height="26.16" transform="translate(-34.62 102.87) rotate(-102.61)"/><rect class="cls-3" x="23.27" y="48.62" width=".37" height="26.18" transform="translate(84.45 36.48) rotate(88.34)"/><rect class="cls-3" x="27.11" y="58.16" width=".37" height="26.16" transform="translate(-6.66 139.56) rotate(-132.62)"/><rect class="cls-3" x="24.93" y="55.26" width=".37" height="26.18" transform="translate(70.12 11.1) rotate(58.35)"/><rect class="cls-3" x="33.03" y="61.6" width=".37" height="26.16" transform="translate(42.59 155.88) rotate(-162.61)"/><rect class="cls-3" x="29.7" y="60.18" width=".37" height="26.18" transform="translate(38.37 -5.4) rotate(28.34)"/><rect class="cls-3" x="39.87" y="61.63" width=".37" height="26.16" transform="translate(95.47 138.86) rotate(167.38)"/><rect class="cls-3" x="36.28" y="62.06" width=".37" height="26.18" transform="translate(-2.15 1.08) rotate(-1.65)"/><rect class="cls-3" x="45.82" y="58.23" width=".37" height="26.16" transform="translate(128.13 92.65) rotate(137.39)"/><rect class="cls-3" x="42.93" y="60.39" width=".37" height="26.18" transform="translate(-32.15 33.56) rotate(-31.66)"/><rect class="cls-3" x="49.26" y="52.31" width=".37" height="26.16" transform="translate(126.62 37.74) rotate(107.39)"/><rect class="cls-3" x="47.85" y="55.63" width=".37" height="26.18" transform="translate(-35.25 78.37) rotate(-61.66)"/><rect class="cls-3" x="49.29" y="45.46" width=".37" height="26.16" transform="translate(95.8 -2.52) rotate(77.39)"/><rect class="cls-3" x="49.73" y="49.04" width=".37" height="26.18" transform="translate(-10.76 113.81) rotate(-91.65)"/><rect class="cls-3" x="45.88" y="39.52" width=".37" height="26.16" transform="translate(53.59 -16.91) rotate(47.39)"/><rect class="cls-3" x="48.06" y="42.4" width=".37" height="26.18" transform="translate(26.34 125.68) rotate(-121.66)"/><rect class="cls-3" x="39.96" y="36.07" width=".37" height="26.16" transform="translate(16.52 -9.75) rotate(17.39)"/><rect class="cls-3" x="43.29" y="37.48" width=".37" height="26.18" transform="translate(57.72 115.72) rotate(-151.64)"/><path class="cls-2" d="m62.71,79.37c4.07-6.05,6.05-13.54,5.08-21.35-2.15-17.16-17.79-29.32-34.95-27.17-17.16,2.15-29.32,17.79-27.17,34.95,2.15,17.16,17.79,29.32,34.95,27.17,9.35-1.17,17.22-6.35,22.1-13.6m-22.58,9.78c-15.04,1.88-28.76-8.79-30.65-23.83-1.88-15.04,8.79-28.76,23.83-30.65,15.04-1.88,28.76,8.79,30.65,23.83,1.88,15.04-8.79,28.76-23.83,30.65Z"/><rect class="cls-1" x="29.73" y="34.8" width="1.22" height="2.2" transform="translate(-7.11 7.49) rotate(-12.61)"/><rect class="cls-1" x="35.88" y="34.03" width="1.22" height="2.2" transform="translate(73.99 69.2) rotate(178.35)"/><rect class="cls-1" x="17.57" y="41.45" width="1.22" height="2.2" transform="translate(-24.01 23.55) rotate(-42.61)"/><rect class="cls-1" x="22.51" y="37.71" width="1.22" height="2.2" transform="translate(63.18 59.72) rotate(148.35)"/><rect class="cls-1" x="10.37" y="53.3" width="1.22" height="2.2" transform="translate(-44.21 48.62) rotate(-72.61)"/><rect class="cls-1" x="12.78" y="47.58" width="1.22" height="2.2" transform="translate(62.59 60.02) rotate(118.35)"/><rect class="cls-1" x="10.05" y="67.15" width="1.22" height="2.2" transform="translate(-53.62 93.57) rotate(-102.61)"/><rect class="cls-1" x="9.28" y="61" width="1.22" height="2.2" transform="translate(71.68 50.43) rotate(88.35)"/><rect class="cls-1" x="16.7" y="79.31" width="1.22" height="2.2" transform="translate(-30.14 147.6) rotate(-132.61)"/><rect class="cls-1" x="12.96" y="74.37" width="1.22" height="2.2" transform="translate(70.69 24.31) rotate(58.35)"/><rect class="cls-1" x="28.55" y="86.52" width="1.22" height="2.2" transform="translate(30.8 179.95) rotate(-162.61)"/><rect class="cls-1" x="22.83" y="84.11" width="1.22" height="2.2" transform="translate(43.27 -.91) rotate(28.35)"/><rect class="cls-1" x="42.4" y="86.84" width="1.22" height="2.2" transform="translate(104.2 164.36) rotate(167.39)"/><rect class="cls-1" x="36.25" y="87.61" width="1.22" height="2.2" transform="translate(-2.54 1.1) rotate(-1.65)"/><rect class="cls-1" x="54.56" y="80.18" width="1.22" height="2.2" transform="translate(150.81 103.75) rotate(137.39)"/><rect class="cls-1" x="49.62" y="83.93" width="1.22" height="2.2" transform="translate(-37.15 39.01) rotate(-31.65)"/><rect class="cls-1" x="61.77" y="68.34" width="1.22" height="2.2" transform="translate(147.29 30.66) rotate(107.39)"/><rect class="cls-1" x="59.36" y="74.05" width="1.22" height="2.2" transform="translate(-34.65 92.25) rotate(-61.65)"/><rect class="cls-1" x="62.09" y="54.48" width="1.22" height="2.2" transform="translate(103.25 -17.74) rotate(77.39)"/><rect class="cls-1" x="62.86" y="60.63" width="1.22" height="2.2" transform="translate(3.59 126.96) rotate(-91.65)"/><rect class="cls-1" x="55.43" y="42.32" width="1.22" height="2.2" transform="translate(50.06 -27.22) rotate(47.39)"/><rect class="cls-1" x="59.17" y="47.27" width="1.22" height="2.2" transform="translate(49.99 124.64) rotate(-121.65)"/><rect class="cls-1" x="43.59" y="35.12" width="1.22" height="2.2" transform="translate(12.85 -11.56) rotate(17.39)"/><rect class="cls-1" x="49.3" y="37.53" width="1.22" height="2.2" transform="translate(75.5 96.32) rotate(-151.65)"/><path class="cls-1" d="m33.19,33.71c-15.57,1.95-26.61,16.15-24.67,31.72,1.95,15.57,16.15,26.61,31.72,24.67,15.57-1.95,26.62-16.15,24.67-31.72-1.95-15.57-16.15-26.62-31.72-24.67Zm6.86,54.8c-14.69,1.84-28.09-8.58-29.93-23.27-1.84-14.69,8.58-28.09,23.27-29.93,14.69-1.84,28.09,8.58,29.93,23.27,1.84,14.69-8.58,28.09-23.27,29.93Z"/><path class="cls-3" d="m125.09,28.42c-18.49,2.31-31.61,19.18-29.3,37.68,2.31,18.49,19.18,31.61,37.68,29.3,18.49-2.31,31.61-19.18,29.3-37.68-2.31-18.49-19.18-31.61-37.68-29.3Zm7.74,61.84c-15.66,1.96-29.95-9.15-31.91-24.81-1.96-15.66,9.15-29.95,24.81-31.91,15.66-1.96,29.95,9.15,31.91,24.81,1.96,15.66-9.15,29.95-24.81,31.91Z"/><rect class="cls-3" x="125.67" y="36.05" width=".37" height="26.16" transform="translate(-7.69 28.66) rotate(-12.61)"/><rect class="cls-3" x="129.26" y="35.6" width=".37" height="26.18" transform="translate(260.25 93.62) rotate(178.34)"/><rect class="cls-3" x="119.73" y="39.45" width=".37" height="26.16" transform="translate(-3.9 95.06) rotate(-42.62)"/><rect class="cls-3" x="122.62" y="37.27" width=".37" height="26.18" transform="translate(253.77 28.78) rotate(148.35)"/><rect class="cls-3" x="116.29" y="45.37" width=".37" height="26.16" transform="translate(25.88 152.13) rotate(-72.61)"/><rect class="cls-3" x="117.7" y="42.03" width=".37" height="26.18" transform="translate(222.37 -22.45) rotate(118.35)"/><rect class="cls-3" x="116.26" y="52.22" width=".37" height="26.16" transform="translate(78.15 193.19) rotate(-102.61)"/><rect class="cls-3" x="115.82" y="48.62" width=".37" height="26.18" transform="translate(174.33 -56.03) rotate(88.34)"/><rect class="cls-3" x="119.66" y="58.16" width=".37" height="26.16" transform="translate(148.57 207.67) rotate(-132.62)"/><rect class="cls-3" x="117.49" y="55.26" width=".37" height="26.18" transform="translate(114.11 -67.69) rotate(58.35)"/><rect class="cls-3" x="125.58" y="61.6" width=".37" height="26.16" transform="translate(223.47 183.54) rotate(-162.61)"/><rect class="cls-3" x="122.25" y="60.18" width=".37" height="26.18" transform="translate(49.46 -49.34) rotate(28.34)"/><rect class="cls-3" x="132.43" y="61.63" width=".37" height="26.16" transform="translate(278.35 118.63) rotate(167.38)"/><rect class="cls-3" x="128.84" y="62.06" width=".37" height="26.18" transform="translate(-2.12 3.75) rotate(-1.65)"/><rect class="cls-3" x="138.37" y="58.23" width=".37" height="26.16" transform="translate(288.81 29.99) rotate(137.39)"/><rect class="cls-3" x="135.48" y="60.39" width=".37" height="26.18" transform="translate(-18.38 82.13) rotate(-31.66)"/><rect class="cls-3" x="141.82" y="52.31" width=".37" height="26.16" transform="translate(246.83 -50.59) rotate(107.39)"/><rect class="cls-3" x="140.4" y="55.63" width=".37" height="26.18" transform="translate(13.36 159.83) rotate(-61.66)"/><rect class="cls-3" x="141.84" y="45.46" width=".37" height="26.16" transform="translate(168.15 -92.84) rotate(77.39)"/><rect class="cls-3" x="142.28" y="49.04" width=".37" height="26.18" transform="translate(84.47 206.33) rotate(-91.65)"/><rect class="cls-3" x="138.44" y="39.52" width=".37" height="26.16" transform="translate(83.49 -85.04) rotate(47.39)"/><rect class="cls-3" x="140.62" y="42.4" width=".37" height="26.18" transform="translate(167.47 204.46) rotate(-121.66)"/><rect class="cls-3" x="132.52" y="36.07" width=".37" height="26.16" transform="translate(20.75 -37.41) rotate(17.39)"/><rect class="cls-3" x="135.85" y="37.48" width=".37" height="26.18" transform="translate(231.72 159.68) rotate(-151.64)"/><path class="cls-2" d="m155.26,79.37c4.07-6.05,6.05-13.54,5.08-21.35-2.15-17.16-17.79-29.32-34.95-27.17-17.16,2.15-29.32,17.79-27.17,34.95,2.15,17.16,17.79,29.32,34.95,27.17,9.35-1.17,17.22-6.35,22.1-13.6m-22.58,9.78c-15.04,1.88-28.76-8.79-30.65-23.83-1.88-15.04,8.79-28.76,23.83-30.65,15.04-1.88,28.76,8.79,30.65,23.83,1.88,15.04-8.79,28.76-23.83,30.65Z"/><rect class="cls-1" x="122.29" y="34.8" width="1.22" height="2.2" transform="translate(-4.87 27.71) rotate(-12.61)"/><rect class="cls-1" x="128.44" y="34.03" width="1.22" height="2.2" transform="translate(259.06 66.53) rotate(178.35)"/><rect class="cls-1" x="110.13" y="41.45" width="1.22" height="2.2" transform="translate(.43 86.21) rotate(-42.61)"/><rect class="cls-1" x="115.07" y="37.71" width="1.22" height="2.2" transform="translate(234.53 11.15) rotate(148.35)"/><rect class="cls-1" x="102.92" y="53.3" width="1.22" height="2.2" transform="translate(20.69 136.95) rotate(-72.61)"/><rect class="cls-1" x="105.33" y="47.58" width="1.22" height="2.2" transform="translate(199.09 -21.44) rotate(118.35)"/><rect class="cls-1" x="102.61" y="67.15" width="1.22" height="2.2" transform="translate(59.15 183.89) rotate(-102.61)"/><rect class="cls-1" x="101.84" y="61" width="1.22" height="2.2" transform="translate(161.57 -42.09) rotate(88.35)"/><rect class="cls-1" x="109.26" y="79.31" width="1.22" height="2.2" transform="translate(125.08 215.72) rotate(-132.61)"/><rect class="cls-1" x="105.52" y="74.37" width="1.22" height="2.2" transform="translate(114.68 -54.47) rotate(58.35)"/><rect class="cls-1" x="121.1" y="86.52" width="1.22" height="2.2" transform="translate(211.69 207.6) rotate(-162.61)"/><rect class="cls-1" x="115.39" y="84.11" width="1.22" height="2.2" transform="translate(54.37 -44.86) rotate(28.35)"/><rect class="cls-1" x="134.96" y="86.84" width="1.22" height="2.2" transform="translate(287.08 144.14) rotate(167.39)"/><rect class="cls-1" x="128.81" y="87.61" width="1.22" height="2.2" transform="translate(-2.5 3.76) rotate(-1.65)"/><rect class="cls-1" x="147.12" y="80.18" width="1.22" height="2.2" transform="translate(311.49 41.09) rotate(137.39)"/><rect class="cls-1" x="142.18" y="83.93" width="1.22" height="2.2" transform="translate(-23.38 87.58) rotate(-31.65)"/><rect class="cls-1" x="154.32" y="68.34" width="1.22" height="2.2" transform="translate(267.51 -57.66) rotate(107.39)"/><rect class="cls-1" x="151.91" y="74.05" width="1.22" height="2.2" transform="translate(13.96 173.71) rotate(-61.65)"/><rect class="cls-1" x="154.64" y="54.48" width="1.22" height="2.2" transform="translate(175.6 -108.06) rotate(77.39)"/><rect class="cls-1" x="155.41" y="60.63" width="1.22" height="2.2" transform="translate(98.82 219.48) rotate(-91.65)"/><rect class="cls-1" x="147.99" y="42.32" width="1.22" height="2.2" transform="translate(79.95 -95.34) rotate(47.39)"/><rect class="cls-1" x="151.73" y="47.27" width="1.22" height="2.2" transform="translate(191.11 203.43) rotate(-121.65)"/><rect class="cls-1" x="136.15" y="35.12" width="1.22" height="2.2" transform="translate(17.08 -39.22) rotate(17.39)"/><rect class="cls-1" x="141.86" y="37.53" width="1.22" height="2.2" transform="translate(249.52 140.27) rotate(-151.65)"/><path class="cls-1" d="m125.75,33.71c-15.57,1.95-26.61,16.15-24.67,31.72,1.95,15.57,16.15,26.61,31.72,24.67,15.57-1.95,26.62-16.15,24.67-31.72-1.95-15.57-16.15-26.62-31.72-24.67Zm6.86,54.8c-14.69,1.84-28.09-8.58-29.93-23.27-1.84-14.69,8.58-28.09,23.27-29.93,14.69-1.84,28.09,8.58,29.93,23.27,1.84,14.69-8.58,28.09-23.27,29.93Z"/></svg>