<?xml version="1.0" encoding="UTF-8"?><svg id="Layer_1" xmlns="http://www.w3.org/2000/svg" viewBox="0 0 166 100"><defs><style>.cls-1{fill:#c9c9c9;}.cls-2{fill:#ddd;}.cls-3{fill:#3a4259;}</style></defs><rect class="cls-3" x="126.77" y="35.92" width=".32" height="22.56" transform="translate(-7.24 28.85) rotate(-12.61)"/><rect class="cls-3" x="129.87" y="35.53" width=".32" height="22.58" transform="translate(261.35 89.87) rotate(178.34)"/><rect class="cls-3" x="121.64" y="38.85" width=".32" height="22.56" transform="translate(-1.78 95.71) rotate(-42.62)"/><rect class="cls-3" x="124.14" y="36.97" width=".32" height="22.58" transform="translate(255.43 24.12) rotate(148.35)"/><rect class="cls-3" x="118.67" y="43.96" width=".32" height="22.56" transform="translate(30.6 152.13) rotate(-72.61)"/><rect class="cls-3" x="119.89" y="41.08" width=".32" height="22.58" transform="translate(223.15 -28.41) rotate(118.35)"/><rect class="cls-3" x="118.65" y="49.86" width=".32" height="22.56" transform="translate(85.08 190.44) rotate(-102.61)"/><rect class="cls-3" x="118.27" y="46.76" width=".32" height="22.58" transform="translate(173.03 -62.01) rotate(88.34)"/><rect class="cls-3" x="121.59" y="54.99" width=".32" height="22.56" transform="translate(155.4 200.74) rotate(-132.62)"/><rect class="cls-3" x="119.71" y="52.49" width=".32" height="22.58" transform="translate(111.26 -71.73) rotate(58.35)"/><rect class="cls-3" x="126.69" y="57.96" width=".32" height="22.56" transform="translate(227.21 173.23) rotate(-162.61)"/><rect class="cls-3" x="123.82" y="56.73" width=".32" height="22.58" transform="translate(47.16 -50.7) rotate(28.34)"/><rect class="cls-3" x="132.6" y="57.98" width=".32" height="22.56" transform="translate(277.44 107.85) rotate(167.38)"/><rect class="cls-3" x="129.5" y="58.35" width=".32" height="22.58" transform="translate(-1.96 3.77) rotate(-1.65)"/><rect class="cls-3" x="137.72" y="55.05" width=".32" height="22.56" transform="translate(284.27 21.81) rotate(137.39)"/><rect class="cls-3" x="135.23" y="56.92" width=".32" height="22.58" transform="translate(-15.65 81.2) rotate(-31.66)"/><rect class="cls-3" x="140.69" y="49.94" width=".32" height="22.56" transform="translate(241.37 -54.9) rotate(107.39)"/><rect class="cls-3" x="139.47" y="52.81" width=".32" height="22.58" transform="translate(16.93 156.56) rotate(-61.66)"/><rect class="cls-3" x="140.72" y="44.04" width=".32" height="22.56" transform="translate(164.1 -94.23) rotate(77.39)"/><rect class="cls-3" x="141.09" y="47.13" width=".32" height="22.58" transform="translate(86.94 201.3) rotate(-91.65)"/><rect class="cls-3" x="137.78" y="38.91" width=".32" height="22.56" transform="translate(81.5 -85.31) rotate(47.39)"/><rect class="cls-3" x="139.66" y="41.4" width=".32" height="22.58" transform="translate(168.36 199.35) rotate(-121.66)"/><rect class="cls-3" x="132.68" y="35.94" width=".32" height="22.56" transform="translate(20.18 -37.53) rotate(17.39)"/><rect class="cls-3" x="135.55" y="37.15" width=".32" height="22.58" transform="translate(232.11 155.53) rotate(-151.64)"/><path class="cls-2" d="m126.53,31.43c-14.8,1.85-25.29,15.35-23.44,30.14,1.85,14.8,15.35,25.29,30.14,23.44,14.8-1.85,25.29-15.35,23.44-30.14-1.85-14.8-15.35-25.29-30.14-23.44Zm6.29,50.29c-12.98,1.62-24.81-7.58-26.43-20.55-1.62-12.98,7.58-24.81,20.55-26.43,12.98-1.62,24.81,7.58,26.43,20.55s-7.58,24.81-20.55,26.43Z"/><path class="cls-3" d="m126.12,28.16c-16.6,2.08-28.38,17.22-26.3,33.82s17.22,28.38,33.82,26.3c16.6-2.08,28.38-17.22,26.3-33.82-2.08-16.6-17.22-28.38-33.82-26.3Zm6.95,55.52c-14.06,1.76-26.88-8.21-28.64-22.27s8.21-26.88,22.27-28.64c14.06-1.76,26.88,8.21,28.64,22.27,1.76,14.06-8.21,26.88-22.27,28.64Z"/><rect class="cls-1" x="123.85" y="34.84" width="1.06" height="1.9" transform="translate(-4.81 28.03) rotate(-12.61)"/><rect class="cls-1" x="129.16" y="34.18" width="1.06" height="1.9" transform="translate(260.33 66.51) rotate(178.35)"/><rect class="cls-1" x="113.36" y="40.58" width="1.06" height="1.9" transform="translate(1.95 88.07) rotate(-42.61)"/><rect class="cls-1" x="117.62" y="37.35" width="1.06" height="1.9" transform="translate(238.83 8.91) rotate(148.35)"/><rect class="cls-1" x="107.15" y="50.8" width="1.06" height="1.9" transform="translate(26.12 139.04) rotate(-72.61)"/><rect class="cls-1" x="109.23" y="45.87" width="1.06" height="1.9" transform="translate(203.07 -27.55) rotate(118.35)"/><rect class="cls-1" x="106.87" y="62.75" width="1.06" height="1.9" transform="translate(68.69 182.42) rotate(-102.61)"/><rect class="cls-1" x="106.21" y="57.44" width="1.06" height="1.9" transform="translate(162.03 -49.98) rotate(88.35)"/><rect class="cls-1" x="112.61" y="73.24" width="1.06" height="1.9" transform="translate(135.15 207.68) rotate(-132.61)"/><rect class="cls-1" x="109.38" y="68.97" width="1.06" height="1.9" transform="translate(111.75 -60.33) rotate(58.35)"/><rect class="cls-1" x="122.83" y="79.45" width="1.06" height="1.9" transform="translate(217.05 193.99) rotate(-162.61)"/><rect class="cls-1" x="117.9" y="77.37" width="1.06" height="1.9" transform="translate(51.39 -46.84) rotate(28.35)"/><rect class="cls-1" x="134.78" y="79.72" width="1.06" height="1.9" transform="translate(284.97 129.85) rotate(167.39)"/><rect class="cls-1" x="129.47" y="80.39" width="1.06" height="1.9" transform="translate(-2.29 3.78) rotate(-1.65)"/><rect class="cls-1" x="145.27" y="73.99" width="1.06" height="1.9" transform="translate(303.83 31.38) rotate(137.39)"/><rect class="cls-1" x="141" y="77.21" width="1.06" height="1.9" transform="translate(-19.96 85.9) rotate(-31.65)"/><rect class="cls-1" x="151.48" y="63.77" width="1.06" height="1.9" transform="translate(259.2 -61) rotate(107.39)"/><rect class="cls-1" x="149.4" y="68.7" width="1.06" height="1.9" transform="translate(17.45 168.53) rotate(-61.65)"/><rect class="cls-1" x="151.76" y="51.82" width="1.06" height="1.9" transform="translate(170.53 -107.36) rotate(77.39)"/><rect class="cls-1" x="152.42" y="57.13" width="1.06" height="1.9" transform="translate(99.31 212.63) rotate(-91.65)"/><rect class="cls-1" x="146.02" y="41.33" width="1.06" height="1.9" transform="translate(78.45 -94.2) rotate(47.39)"/><rect class="cls-1" x="149.24" y="45.59" width="1.06" height="1.9" transform="translate(188.75 198.46) rotate(-121.65)"/><rect class="cls-1" x="135.8" y="35.12" width="1.06" height="1.9" transform="translate(17.01 -39.1) rotate(17.39)"/><rect class="cls-1" x="140.73" y="37.19" width="1.06" height="1.9" transform="translate(247.47 138.78) rotate(-151.65)"/><path class="cls-1" d="m126.84,33.91c-13.43,1.68-22.96,13.93-21.28,27.36,1.68,13.43,13.93,22.96,27.36,21.28,13.43-1.68,22.96-13.93,21.28-27.36-1.68-13.43-13.93-22.96-27.36-21.28Zm5.91,47.26c-12.67,1.59-24.23-7.4-25.82-20.07-1.59-12.67,7.4-24.23,20.07-25.82,12.67-1.59,24.23,7.4,25.82,20.07,1.59,12.67-7.4,24.23-20.07,25.82Z"/><circle class="cls-3" cx="129.79" cy="58.3" r="2.67"/><rect class="cls-3" x="32.13" y="35.92" width=".32" height="22.56" transform="translate(-9.53 8.19) rotate(-12.61)"/><rect class="cls-3" x="35.22" y="35.53" width=".32" height="22.58" transform="translate(72.1 92.6) rotate(178.34)"/><rect class="cls-3" x="27" y="38.85" width=".32" height="22.56" transform="translate(-26.77 31.63) rotate(-42.62)"/><rect class="cls-3" x="29.49" y="36.97" width=".32" height="22.58" transform="translate(80.22 73.78) rotate(148.35)"/><rect class="cls-3" x="24.03" y="43.96" width=".32" height="22.56" transform="translate(-35.76 61.81) rotate(-72.61)"/><rect class="cls-3" x="25.25" y="41.08" width=".32" height="22.58" transform="translate(83.56 54.88) rotate(118.35)"/><rect class="cls-3" x="24.01" y="49.86" width=".32" height="22.56" transform="translate(-30.23 98.08) rotate(-102.61)"/><rect class="cls-3" x="23.63" y="46.76" width=".32" height="22.58" transform="translate(81.13 32.59) rotate(88.34)"/><rect class="cls-3" x="26.94" y="54.99" width=".32" height="22.56" transform="translate(-3.32 131.09) rotate(-132.62)"/><rect class="cls-3" x="25.07" y="52.49" width=".32" height="22.58" transform="translate(66.28 8.84) rotate(58.35)"/><rect class="cls-3" x="32.05" y="57.96" width=".32" height="22.56" transform="translate(42.25 144.95) rotate(-162.61)"/><rect class="cls-3" x="29.18" y="56.73" width=".32" height="22.58" transform="translate(35.81 -5.77) rotate(28.34)"/><rect class="cls-3" x="37.95" y="57.98" width=".32" height="22.56" transform="translate(90.44 128.53) rotate(167.38)"/><rect class="cls-3" x="34.86" y="58.35" width=".32" height="22.58" transform="translate(-2 1.04) rotate(-1.65)"/><rect class="cls-3" x="43.08" y="55.05" width=".32" height="22.56" transform="translate(119.97 85.88) rotate(137.39)"/><rect class="cls-3" x="40.59" y="56.92" width=".32" height="22.58" transform="translate(-29.73 31.53) rotate(-31.66)"/><rect class="cls-3" x="46.05" y="49.94" width=".32" height="22.56" transform="translate(118.45 35.42) rotate(107.39)"/><rect class="cls-3" x="44.83" y="52.81" width=".32" height="22.58" transform="translate(-32.78 73.26) rotate(-61.66)"/><rect class="cls-3" x="46.07" y="44.04" width=".32" height="22.56" transform="translate(90.12 -1.87) rotate(77.39)"/><rect class="cls-3" x="46.45" y="47.13" width=".32" height="22.58" transform="translate(-10.44 106.69) rotate(-91.65)"/><rect class="cls-3" x="43.14" y="38.91" width=".32" height="22.56" transform="translate(50.93 -15.65) rotate(47.39)"/><rect class="cls-3" x="45.01" y="41.4" width=".32" height="22.58" transform="translate(24.04 118.79) rotate(-121.66)"/><rect class="cls-3" x="38.03" y="35.94" width=".32" height="22.56" transform="translate(15.86 -9.25) rotate(17.39)"/><rect class="cls-3" x="40.9" y="37.15" width=".32" height="22.58" transform="translate(54.19 110.58) rotate(-151.64)"/><path class="cls-2" d="m31.88,31.43c-14.8,1.85-25.29,15.35-23.44,30.14,1.85,14.8,15.35,25.29,30.14,23.44,14.8-1.85,25.29-15.35,23.44-30.14-1.85-14.8-15.35-25.29-30.14-23.44Zm6.29,50.29c-12.98,1.62-24.81-7.58-26.43-20.55-1.62-12.98,7.58-24.81,20.55-26.43,12.98-1.62,24.81,7.58,26.43,20.55s-7.58,24.81-20.55,26.43Z"/><path class="cls-3" d="m31.47,28.16C14.87,30.24,3.1,45.38,5.17,61.99c2.08,16.6,17.22,28.38,33.82,26.3,16.6-2.08,28.38-17.22,26.3-33.82-2.08-16.6-17.22-28.38-33.82-26.3Zm6.95,55.52c-14.06,1.76-26.88-8.21-28.64-22.27s8.21-26.88,22.27-28.64c14.06-1.76,26.88,8.21,28.64,22.27,1.76,14.06-8.21,26.88-22.27,28.64Z"/><rect class="cls-1" x="29.21" y="34.84" width="1.06" height="1.9" transform="translate(-7.1 7.36) rotate(-12.61)"/><rect class="cls-1" x="34.51" y="34.18" width="1.06" height="1.9" transform="translate(71.08 69.23) rotate(178.35)"/><rect class="cls-1" x="18.72" y="40.58" width="1.06" height="1.9" transform="translate(-23.04 24) rotate(-42.61)"/><rect class="cls-1" x="22.98" y="37.35" width="1.06" height="1.9" transform="translate(63.62 58.57) rotate(148.35)"/><rect class="cls-1" x="12.5" y="50.8" width="1.06" height="1.9" transform="translate(-40.24 48.72) rotate(-72.61)"/><rect class="cls-1" x="14.58" y="45.87" width="1.06" height="1.9" transform="translate(63.49 55.75) rotate(118.35)"/><rect class="cls-1" x="12.23" y="62.75" width="1.06" height="1.9" transform="translate(-46.62 90.06) rotate(-102.61)"/><rect class="cls-1" x="11.57" y="57.44" width="1.06" height="1.9" transform="translate(70.11 44.62) rotate(88.35)"/><rect class="cls-1" x="17.97" y="73.24" width="1.06" height="1.9" transform="translate(-23.58 138.03) rotate(-132.61)"/><rect class="cls-1" x="14.74" y="68.97" width="1.06" height="1.9" transform="translate(66.78 20.23) rotate(58.35)"/><rect class="cls-1" x="28.18" y="79.45" width="1.06" height="1.9" transform="translate(32.09 165.71) rotate(-162.61)"/><rect class="cls-1" x="23.26" y="77.37" width="1.06" height="1.9" transform="translate(40.04 -1.9) rotate(28.35)"/><rect class="cls-1" x="40.14" y="79.72" width="1.06" height="1.9" transform="translate(97.97 150.52) rotate(167.39)"/><rect class="cls-1" x="34.83" y="80.39" width="1.06" height="1.9" transform="translate(-2.33 1.05) rotate(-1.65)"/><rect class="cls-1" x="50.62" y="73.99" width="1.06" height="1.9" transform="translate(139.53 95.45) rotate(137.39)"/><rect class="cls-1" x="46.36" y="77.21" width="1.06" height="1.9" transform="translate(-34.04 36.23) rotate(-31.65)"/><rect class="cls-1" x="56.84" y="63.77" width="1.06" height="1.9" transform="translate(136.27 29.32) rotate(107.39)"/><rect class="cls-1" x="54.76" y="68.7" width="1.06" height="1.9" transform="translate(-32.26 85.24) rotate(-61.65)"/><rect class="cls-1" x="57.11" y="51.82" width="1.06" height="1.9" transform="translate(96.55 -15) rotate(77.39)"/><rect class="cls-1" x="57.78" y="57.13" width="1.06" height="1.9" transform="translate(1.94 118.03) rotate(-91.65)"/><rect class="cls-1" x="51.37" y="41.33" width="1.06" height="1.9" transform="translate(47.88 -24.54) rotate(47.39)"/><rect class="cls-1" x="54.6" y="45.59" width="1.06" height="1.9" transform="translate(44.44 117.9) rotate(-121.65)"/><rect class="cls-1" x="41.16" y="35.12" width="1.06" height="1.9" transform="translate(12.68 -10.81) rotate(17.39)"/><rect class="cls-1" x="46.09" y="37.19" width="1.06" height="1.9" transform="translate(69.53 93.85) rotate(-151.65)"/><path class="cls-1" d="m32.19,33.91c-13.43,1.68-22.96,13.93-21.28,27.36,1.68,13.43,13.93,22.96,27.36,21.28,13.43-1.68,22.96-13.93,21.28-27.36-1.68-13.43-13.93-22.96-27.36-21.28Zm5.91,47.26c-12.67,1.59-24.23-7.4-25.82-20.07-1.59-12.67,7.4-24.23,20.07-25.82,12.67-1.59,24.23,7.4,25.82,20.07,1.59,12.67-7.4,24.23-20.07,25.82Z"/><circle class="cls-3" cx="35.15" cy="58.3" r="2.67"/></svg>