<?xml version="1.0" encoding="UTF-8"?><svg id="Layer_1" xmlns="http://www.w3.org/2000/svg" viewBox="0 0 166 100"><defs><style>.cls-1{fill:#e6e6e6;}</style></defs><path class="cls-1" d="m130.99,57.79s-19.18-34.39-23.28-41.8c-.34-.62-.99-.98-1.66-.99-.23,0-.46.03-.68.11l-43.24,15.3-2.02-4.18c-.24-.5-.75-.86-1.31-.83-.63.03-1.44-.21-1.86-.18-.26.02-.37.13-.2.46l5.23,10.92c.57,1.2.16,2.64-.95,3.38l-25.7,16.95c-.4.4-.39,1.05.01,1.44.2.2.47.3.73.29.26,0,.53-.1.72-.3l27.88-15.67,9.23,17.03-36.08.77.89,1.57,38.8.17,2.32,3.41h0s0,0,0,0l10.59-4.33c.92-.38,1.67-1.07,2.13-1.95l16.41-32c.6.7,1.1,1.31,1.13,1.45l18.59,29.62c.11.46.51.76.95.78.15,0,.3-.02.45-.08l.3-.13c.47-.19.72-.7.6-1.19Zm-55.16-1.27l-9.47-19.3,35.72-13.83c.08-.02.16-.03.23-.04.23,0,.45.08.64.21l-16.02,29.31c-.54.7-8.29,3.66-10.52,3.78-.31.02-.52-.02-.57-.14Z"/></svg>