<?xml version="1.0" encoding="UTF-8"?><svg id="Layer_1" xmlns="http://www.w3.org/2000/svg" viewBox="0 0 166 100"><defs><style>.cls-1{fill:#e6e6e6;}</style></defs><path class="cls-1" d="m131.06,62.06l-10.3-34.43c-.09-.37-.38-.66-.74-.77l-2.3-.66c-.32-.09-.58-.33-.7-.65,0,0-2.83-8.27-3.36-8.12l-.31.05s-.08-.06-.1-.05l-45.45,8.1-4.4-11.28-.39.05-.02-.05-3,.39,4.91,12.75-26.44,34.31c-.41.42-.41,1.1.01,1.51.26.26.62.33.95.27.34.07.71-.01.97-.28l25.49-33.24,14.56,37.81.28-.34.13.34,33.07-39.45c1.4.31,4.52.72,4.59,1.01l9.75,33.36c.13.57.69.88,1.24.78.2.04.42.05.63-.04l.32-.13c.49-.2.75-.73.62-1.25Zm-60.93-30.54l-1.52-3.9,3.92-.48c-1.08,1.28-1.9,2.77-2.4,4.38Zm.97,2.48c.29-2.71,1.57-5.25,3.54-7.11l37.42-4.54-30.31,38.94-10.65-27.29Z"/><polygon class="cls-1" points="77.82 64.45 77.41 64.47 77.41 64.45 41.07 65.43 42 67.07 77.7 67.27 77.7 67.27 78.11 67.27 77.82 64.45"/></svg>