<?xml version="1.0" encoding="UTF-8"?><svg id="Layer_1" xmlns="http://www.w3.org/2000/svg" viewBox="0 0 166 100"><defs><style>.cls-1{fill:#c9c9c9;}.cls-2{fill:#ddd;}.cls-3{fill:#3a4259;}</style></defs><rect class="cls-3" x="33.82" y="38.95" width=".33" height="23.38" transform="translate(-10.24 8.64) rotate(-12.61)"/><rect class="cls-3" x="37.03" y="38.55" width=".33" height="23.39" transform="translate(75.83 99.4) rotate(178.34)"/><rect class="cls-3" x="28.51" y="41.99" width=".33" height="23.38" transform="translate(-28.77 33.59) rotate(-42.62)"/><rect class="cls-3" x="31.09" y="40.04" width=".33" height="23.39" transform="translate(85.02 79.37) rotate(148.35)"/><rect class="cls-3" x="25.43" y="47.28" width=".33" height="23.38" transform="translate(-38.33 65.77) rotate(-72.61)"/><rect class="cls-3" x="26.7" y="44.3" width=".33" height="23.39" transform="translate(88.9 58.94) rotate(118.35)"/><rect class="cls-3" x="25.41" y="53.4" width=".33" height="23.38" transform="translate(-32.36 104.26) rotate(-102.61)"/><rect class="cls-3" x="25.02" y="50.18" width=".33" height="23.39" transform="translate(86.31 34.92) rotate(88.34)"/><rect class="cls-3" x="28.45" y="58.71" width=".33" height="23.38" transform="translate(-3.81 139.12) rotate(-132.62)"/><rect class="cls-3" x="26.51" y="56.12" width=".33" height="23.39" transform="translate(70.41 9.52) rotate(58.35)"/><rect class="cls-3" x="33.74" y="61.79" width=".33" height="23.38" transform="translate(44.31 153.73) rotate(-162.61)"/><rect class="cls-3" x="30.77" y="60.52" width=".33" height="23.39" transform="translate(37.99 -6.03) rotate(28.34)"/><rect class="cls-3" x="39.86" y="61.81" width=".33" height="23.38" transform="translate(95.14 136.47) rotate(167.38)"/><rect class="cls-3" x="36.65" y="62.19" width=".33" height="23.39" transform="translate(-2.12 1.09) rotate(-1.65)"/><rect class="cls-3" x="45.17" y="58.77" width=".33" height="23.38" transform="translate(126.4 91.62) rotate(137.39)"/><rect class="cls-3" x="42.59" y="60.7" width=".33" height="23.39" transform="translate(-31.64 33.21) rotate(-31.66)"/><rect class="cls-3" x="48.25" y="53.48" width=".33" height="23.38" transform="translate(125.07 38.44) rotate(107.39)"/><rect class="cls-3" x="46.99" y="56.45" width=".33" height="23.39" transform="translate(-35.21 77.29) rotate(-61.66)"/><rect class="cls-3" x="48.27" y="47.36" width=".33" height="23.38" transform="translate(95.49 -1.11) rotate(77.39)"/><rect class="cls-3" x="48.66" y="50.56" width=".33" height="23.39" transform="translate(-11.99 112.86) rotate(-91.65)"/><rect class="cls-3" x="45.23" y="42.05" width=".33" height="23.38" transform="translate(54.22 -16.05) rotate(47.39)"/><rect class="cls-3" x="47.17" y="44.62" width=".33" height="23.39" transform="translate(24.25 126.18) rotate(-121.66)"/><rect class="cls-3" x="39.94" y="38.97" width=".33" height="23.38" transform="translate(16.97 -9.67) rotate(17.39)"/><rect class="cls-3" x="42.92" y="40.23" width=".33" height="23.39" transform="translate(56.33 118.08) rotate(-151.64)"/><path class="cls-2" d="m33.57,34.3c-15.33,1.92-26.2,15.9-24.28,31.23s15.9,26.2,31.23,24.28,26.2-15.9,24.28-31.23c-1.92-15.33-15.9-26.2-31.23-24.28Zm6.52,52.1c-13.44,1.68-25.7-7.85-27.39-21.29-1.68-13.44,7.85-25.7,21.29-27.39,13.44-1.68,25.7,7.85,27.39,21.29s-7.85,25.7-21.29,27.39Z"/><path class="cls-3" d="m33.15,30.92c-17.2,2.15-29.4,17.84-27.25,35.04,2.15,17.2,17.84,29.4,35.04,27.25,17.2-2.15,29.4-17.84,27.25-35.04s-17.84-29.4-35.04-27.25Zm7.2,57.52c-14.57,1.82-27.85-8.51-29.68-23.07s8.51-27.85,23.07-29.68c14.57-1.82,27.85,8.51,29.68,23.07s-8.51,27.85-23.07,29.68Z"/><rect class="cls-1" x="30.8" y="37.84" width="1.09" height="1.97" transform="translate(-7.72 7.78) rotate(-12.61)"/><rect class="cls-1" x="36.3" y="37.15" width="1.09" height="1.97" transform="translate(74.77 75.19) rotate(178.35)"/><rect class="cls-1" x="19.93" y="43.78" width="1.09" height="1.97" transform="translate(-24.9 25.68) rotate(-42.61)"/><rect class="cls-1" x="24.35" y="40.44" width="1.09" height="1.97" transform="translate(67.82 63.62) rotate(148.35)"/><rect class="cls-1" x="13.49" y="54.36" width="1.09" height="1.97" transform="translate(-42.97 52.21) rotate(-72.61)"/><rect class="cls-1" x="15.65" y="49.26" width="1.09" height="1.97" transform="translate(68.1 59.84) rotate(118.35)"/><rect class="cls-1" x="13.21" y="66.75" width="1.09" height="1.97" transform="translate(-49.34 95.95) rotate(-102.61)"/><rect class="cls-1" x="12.52" y="61.25" width="1.09" height="1.97" transform="translate(74.9 47.38) rotate(88.35)"/><rect class="cls-1" x="19.16" y="77.61" width="1.09" height="1.97" transform="translate(-24.8 146.31) rotate(-132.61)"/><rect class="cls-1" x="15.81" y="73.2" width="1.09" height="1.97" transform="translate(70.92 21.33) rotate(58.35)"/><rect class="cls-1" x="29.74" y="84.05" width="1.09" height="1.97" transform="translate(33.78 175.23) rotate(-162.61)"/><rect class="cls-1" x="24.63" y="81.9" width="1.09" height="1.97" transform="translate(42.37 -2.02) rotate(28.35)"/><rect class="cls-1" x="42.12" y="84.33" width="1.09" height="1.97" transform="translate(102.94 159.26) rotate(167.39)"/><rect class="cls-1" x="36.62" y="85.02" width="1.09" height="1.97" transform="translate(-2.46 1.11) rotate(-1.65)"/><rect class="cls-1" x="52.99" y="78.39" width="1.09" height="1.97" transform="translate(146.67 101.54) rotate(137.39)"/><rect class="cls-1" x="48.57" y="81.73" width="1.09" height="1.97" transform="translate(-36.1 38.08) rotate(-31.65)"/><rect class="cls-1" x="59.42" y="67.81" width="1.09" height="1.97" transform="translate(143.54 32.12) rotate(107.39)"/><rect class="cls-1" x="57.27" y="72.91" width="1.09" height="1.97" transform="translate(-34.67 89.69) rotate(-61.65)"/><rect class="cls-1" x="59.71" y="55.42" width="1.09" height="1.97" transform="translate(102.15 -14.71) rotate(77.39)"/><rect class="cls-1" x="60.4" y="60.92" width="1.09" height="1.97" transform="translate(.82 124.61) rotate(-91.65)"/><rect class="cls-1" x="53.76" y="44.56" width="1.09" height="1.97" transform="translate(51.06 -25.26) rotate(47.39)"/><rect class="cls-1" x="57.11" y="48.97" width="1.09" height="1.97" transform="translate(45.38 125.25) rotate(-121.65)"/><rect class="cls-1" x="43.18" y="38.12" width="1.09" height="1.97" transform="translate(13.69 -11.28) rotate(17.39)"/><rect class="cls-1" x="48.29" y="40.27" width="1.09" height="1.97" transform="translate(72.22 100.75) rotate(-151.65)"/><path class="cls-1" d="m33.89,36.87c-13.91,1.74-23.78,14.43-22.04,28.35,1.74,13.91,14.43,23.78,28.35,22.04s23.78-14.43,22.04-28.35c-1.74-13.91-14.43-23.78-28.35-22.04Zm6.13,48.96c-13.13,1.64-25.1-7.67-26.75-20.8s7.67-25.1,20.8-26.75c13.13-1.64,25.1,7.67,26.75,20.8,1.64,13.13-7.67,25.1-20.8,26.75Z"/><rect class="cls-3" x="125.39" y="38.39" width=".33" height="23.38" transform="translate(-7.9 28.62) rotate(-12.61)"/><rect class="cls-3" x="128.6" y="37.99" width=".33" height="23.39" transform="translate(258.91 95.63) rotate(178.34)"/><rect class="cls-3" x="120.08" y="41.43" width=".33" height="23.38" transform="translate(-4.21 95.44) rotate(-42.62)"/><rect class="cls-3" x="122.66" y="39.48" width=".33" height="23.39" transform="translate(254.24 30.29) rotate(148.35)"/><rect class="cls-3" x="117" y="46.72" width=".33" height="23.38" transform="translate(26.41 152.76) rotate(-72.61)"/><rect class="cls-3" x="118.27" y="43.74" width=".33" height="23.39" transform="translate(223.45 -22.47) rotate(118.35)"/><rect class="cls-3" x="116.98" y="52.84" width=".33" height="23.38" transform="translate(79.75 192.93) rotate(-102.61)"/><rect class="cls-3" x="116.59" y="49.62" width=".33" height="23.39" transform="translate(174.67 -57.16) rotate(88.34)"/><rect class="cls-3" x="120.02" y="58.15" width=".33" height="23.38" transform="translate(150.17 205.57) rotate(-132.62)"/><rect class="cls-3" x="118.08" y="55.56" width=".33" height="23.39" transform="translate(113.45 -68.69) rotate(58.35)"/><rect class="cls-3" x="125.31" y="61.23" width=".33" height="23.38" transform="translate(223.43 179.99) rotate(-162.61)"/><rect class="cls-3" x="122.34" y="59.95" width=".33" height="23.39" transform="translate(48.7 -49.57) rotate(28.34)"/><rect class="cls-3" x="131.43" y="61.25" width=".33" height="23.38" transform="translate(275.95 115.35) rotate(167.38)"/><rect class="cls-3" x="128.22" y="61.63" width=".33" height="23.39" transform="translate(-2.06 3.74) rotate(-1.65)"/><rect class="cls-3" x="136.74" y="58.21" width=".33" height="23.38" transform="translate(284.98 28.66) rotate(137.39)"/><rect class="cls-3" x="134.16" y="60.14" width=".33" height="23.39" transform="translate(-17.72 81.18) rotate(-31.66)"/><rect class="cls-3" x="139.82" y="52.92" width=".33" height="23.38" transform="translate(243.46 -49.67) rotate(107.39)"/><rect class="cls-3" x="138.55" y="55.89" width=".33" height="23.39" transform="translate(13.38 157.59) rotate(-61.66)"/><rect class="cls-3" x="139.84" y="46.8" width=".33" height="23.38" transform="translate(166.52 -90.91) rotate(77.39)"/><rect class="cls-3" x="140.23" y="50" width=".33" height="23.39" transform="translate(82.78 203.82) rotate(-91.65)"/><rect class="cls-3" x="136.8" y="41.49" width=".33" height="23.38" transform="translate(83.38 -83.63) rotate(47.39)"/><rect class="cls-3" x="138.74" y="44.06" width=".33" height="23.39" transform="translate(164.36 203.26) rotate(-121.66)"/><rect class="cls-3" x="131.51" y="38.41" width=".33" height="23.38" transform="translate(20.99 -37.06) rotate(17.39)"/><rect class="cls-3" x="134.49" y="39.67" width=".33" height="23.39" transform="translate(228.74 160.52) rotate(-151.64)"/><path class="cls-2" d="m125.14,33.74c-15.33,1.92-26.2,15.9-24.28,31.23s15.9,26.2,31.23,24.28,26.2-15.9,24.28-31.23c-1.92-15.33-15.9-26.2-31.23-24.28Zm6.52,52.1c-13.44,1.68-25.7-7.85-27.39-21.29-1.68-13.44,7.85-25.7,21.29-27.39,13.44-1.68,25.7,7.85,27.39,21.29,1.68,13.44-7.85,25.7-21.29,27.39Z"/><path class="cls-3" d="m124.72,30.35c-17.2,2.15-29.4,17.84-27.25,35.04,2.15,17.2,17.84,29.4,35.04,27.25,17.2-2.15,29.4-17.84,27.25-35.04-2.15-17.2-17.84-29.4-35.04-27.25Zm7.2,57.52c-14.57,1.82-27.85-8.51-29.68-23.07s8.51-27.85,23.07-29.68,27.85,8.51,29.68,23.07-8.51,27.85-23.07,29.68Z"/><rect class="cls-1" x="122.37" y="37.27" width="1.09" height="1.97" transform="translate(-5.39 27.77) rotate(-12.61)"/><rect class="cls-1" x="127.86" y="36.59" width="1.09" height="1.97" transform="translate(257.85 71.43) rotate(178.35)"/><rect class="cls-1" x="111.5" y="43.22" width="1.09" height="1.97" transform="translate(-.34 87.53) rotate(-42.61)"/><rect class="cls-1" x="115.92" y="39.88" width="1.09" height="1.97" transform="translate(237.05 14.53) rotate(148.35)"/><rect class="cls-1" x="105.06" y="53.8" width="1.09" height="1.97" transform="translate(21.77 139.2) rotate(-72.61)"/><rect class="cls-1" x="107.22" y="48.7" width="1.09" height="1.97" transform="translate(202.65 -21.57) rotate(118.35)"/><rect class="cls-1" x="104.78" y="66.19" width="1.09" height="1.97" transform="translate(62.78 184.62) rotate(-102.61)"/><rect class="cls-1" x="104.09" y="60.69" width="1.09" height="1.97" transform="translate(163.27 -44.7) rotate(88.35)"/><rect class="cls-1" x="110.73" y="77.05" width="1.09" height="1.97" transform="translate(129.18 212.76) rotate(-132.61)"/><rect class="cls-1" x="107.38" y="72.63" width="1.09" height="1.97" transform="translate(113.95 -56.89) rotate(58.35)"/><rect class="cls-1" x="121.31" y="83.49" width="1.09" height="1.97" transform="translate(212.9 201.5) rotate(-162.61)"/><rect class="cls-1" x="116.2" y="81.34" width="1.09" height="1.97" transform="translate(53.08 -45.56) rotate(28.35)"/><rect class="cls-1" x="133.69" y="83.77" width="1.09" height="1.97" transform="translate(283.74 138.15) rotate(167.39)"/><rect class="cls-1" x="128.19" y="84.46" width="1.09" height="1.97" transform="translate(-2.41 3.74) rotate(-1.65)"/><rect class="cls-1" x="144.56" y="77.83" width="1.09" height="1.97" transform="translate(305.25 38.58) rotate(137.39)"/><rect class="cls-1" x="140.14" y="81.17" width="1.09" height="1.97" transform="translate(-22.19 86.05) rotate(-31.65)"/><rect class="cls-1" x="150.99" y="67.24" width="1.09" height="1.97" transform="translate(261.94 -56) rotate(107.39)"/><rect class="cls-1" x="148.84" y="72.35" width="1.09" height="1.97" transform="translate(13.92 169.99) rotate(-61.65)"/><rect class="cls-1" x="151.28" y="54.86" width="1.09" height="1.97" transform="translate(173.18 -104.51) rotate(77.39)"/><rect class="cls-1" x="151.97" y="60.36" width="1.09" height="1.97" transform="translate(95.6 215.56) rotate(-91.65)"/><rect class="cls-1" x="145.33" y="44" width="1.09" height="1.97" transform="translate(80.22 -92.83) rotate(47.39)"/><rect class="cls-1" x="148.68" y="48.41" width="1.09" height="1.97" transform="translate(185.48 202.35) rotate(-121.65)"/><rect class="cls-1" x="134.75" y="37.56" width="1.09" height="1.97" transform="translate(17.7 -38.68) rotate(17.39)"/><rect class="cls-1" x="139.86" y="39.71" width="1.09" height="1.97" transform="translate(244.65 143.17) rotate(-151.65)"/><path class="cls-1" d="m125.46,36.3c-13.91,1.74-23.78,14.43-22.04,28.35,1.74,13.91,14.43,23.78,28.35,22.04,13.91-1.74,23.78-14.43,22.04-28.35-1.74-13.91-14.43-23.78-28.35-22.04Zm6.13,48.96c-13.13,1.64-25.1-7.67-26.75-20.8s7.67-25.1,20.8-26.75c13.13-1.64,25.1,7.67,26.75,20.8,1.64,13.13-7.67,25.1-20.8,26.75Z"/><circle class="cls-3" cx="128.94" cy="62.79" r="3"/><circle class="cls-3" cx="128.93" cy="62.79" r="3"/></svg>