<?xml version="1.0" encoding="UTF-8"?><svg id="Layer_1" xmlns="http://www.w3.org/2000/svg" viewBox="0 0 166 100"><defs><style>.cls-1{fill:#c9c9c9;}.cls-2{fill:#ddd;}.cls-3{fill:#3a4259;}</style></defs><path class="cls-3" d="m124.63,32.01c-16.41,2.05-28.04,17.02-25.99,33.42,2.05,16.41,17.02,28.04,33.42,25.99,16.41-2.05,28.04-17.02,25.99-33.42-2.05-16.41-17.02-28.04-33.42-25.99Zm6.87,54.87c-13.9,1.74-26.57-8.12-28.31-22.01-1.74-13.9,8.12-26.57,22.01-28.31s26.57,8.12,28.31,22.01c1.74,13.9-8.12,26.57-22.01,28.31Z"/><rect class="cls-3" x="125.15" y="38.77" width=".33" height="23.21" transform="translate(-7.98 28.58) rotate(-12.61)"/><rect class="cls-3" x="128.34" y="38.37" width=".33" height="23.23" transform="translate(258.39 96.24) rotate(178.34)"/><rect class="cls-3" x="119.88" y="41.79" width=".33" height="23.21" transform="translate(-4.45 95.38) rotate(-42.62)"/><rect class="cls-3" x="122.45" y="39.85" width=".33" height="23.23" transform="translate(253.99 30.94) rotate(148.35)"/><rect class="cls-3" x="116.83" y="47.04" width=".33" height="23.21" transform="translate(26.06 152.76) rotate(-72.61)"/><rect class="cls-3" x="118.08" y="44.08" width=".33" height="23.23" transform="translate(223.4 -21.92) rotate(118.35)"/><rect class="cls-3" x="116.8" y="53.12" width=".33" height="23.21" transform="translate(79.34 193) rotate(-102.61)"/><rect class="cls-3" x="116.41" y="49.92" width=".33" height="23.23" transform="translate(174.72 -56.77) rotate(88.34)"/><rect class="cls-3" x="119.82" y="58.39" width=".33" height="23.21" transform="translate(149.72 205.68) rotate(-132.62)"/><rect class="cls-3" x="117.89" y="55.82" width=".33" height="23.23" transform="translate(113.51 -68.45) rotate(58.35)"/><rect class="cls-3" x="125.07" y="61.44" width=".33" height="23.21" transform="translate(222.92 180.18) rotate(-162.61)"/><rect class="cls-3" x="122.12" y="60.18" width=".33" height="23.23" transform="translate(48.74 -49.45) rotate(28.34)"/><rect class="cls-3" x="131.15" y="61.47" width=".33" height="23.21" transform="translate(275.42 115.68) rotate(167.38)"/><rect class="cls-3" x="127.96" y="61.85" width=".33" height="23.23" transform="translate(-2.07 3.73) rotate(-1.65)"/><rect class="cls-3" x="136.42" y="58.45" width=".33" height="23.21" transform="translate(284.53 29.15) rotate(137.39)"/><rect class="cls-3" x="133.86" y="60.37" width=".33" height="23.23" transform="translate(-17.84 81.04) rotate(-31.66)"/><rect class="cls-3" x="139.48" y="53.2" width=".33" height="23.21" transform="translate(243.2 -49.1) rotate(107.39)"/><rect class="cls-3" x="138.22" y="56.14" width=".33" height="23.23" transform="translate(13.05 157.38) rotate(-61.66)"/><rect class="cls-3" x="139.5" y="47.12" width=".33" height="23.21" transform="translate(166.48 -90.39) rotate(77.39)"/><rect class="cls-3" x="139.89" y="50.3" width=".33" height="23.23" transform="translate(82.21 203.69) rotate(-91.65)"/><rect class="cls-3" x="136.48" y="41.85" width=".33" height="23.21" transform="translate(83.48 -83.3) rotate(47.39)"/><rect class="cls-3" x="138.41" y="44.41" width=".33" height="23.23" transform="translate(163.63 203.37) rotate(-121.66)"/><rect class="cls-3" x="131.23" y="38.79" width=".33" height="23.21" transform="translate(21.06 -36.96) rotate(17.39)"/><rect class="cls-3" x="134.18" y="40.04" width=".33" height="23.23" transform="translate(228.03 160.92) rotate(-151.64)"/><path class="cls-2" d="m151.4,77.21c3.61-5.37,5.37-12.01,4.51-18.94-1.9-15.22-15.79-26.01-31.01-24.11s-26.01,15.79-24.11,31.01c1.9,15.22,15.79,26.01,31.01,24.11,8.3-1.04,15.28-5.63,19.6-12.07m-20.03,8.68c-13.35,1.67-25.52-7.8-27.19-21.14s7.8-25.52,21.14-27.19c13.35-1.67,25.52,7.8,27.19,21.14,1.67,13.35-7.8,25.52-21.14,27.19Z"/><rect class="cls-1" x="122.15" y="37.66" width="1.09" height="1.95" transform="translate(-5.48 27.73) rotate(-12.61)"/><rect class="cls-1" x="127.61" y="36.98" width="1.09" height="1.95" transform="translate(257.34 72.21) rotate(178.35)"/><rect class="cls-1" x="111.36" y="43.57" width="1.09" height="1.95" transform="translate(-.61 87.52) rotate(-42.61)"/><rect class="cls-1" x="115.75" y="40.25" width="1.09" height="1.95" transform="translate(236.92 15.29) rotate(148.35)"/><rect class="cls-1" x="104.97" y="54.07" width="1.09" height="1.95" transform="translate(21.45 139.29) rotate(-72.61)"/><rect class="cls-1" x="107.11" y="49" width="1.09" height="1.95" transform="translate(202.75 -21.03) rotate(118.35)"/><rect class="cls-1" x="104.69" y="66.37" width="1.09" height="1.95" transform="translate(62.49 184.74) rotate(-102.61)"/><rect class="cls-1" x="104.01" y="60.91" width="1.09" height="1.95" transform="translate(163.4 -44.4) rotate(88.35)"/><rect class="cls-1" x="110.59" y="77.16" width="1.09" height="1.95" transform="translate(128.88 212.82) rotate(-132.61)"/><rect class="cls-1" x="107.27" y="72.77" width="1.09" height="1.95" transform="translate(114.01 -56.73) rotate(58.35)"/><rect class="cls-1" x="121.1" y="83.55" width="1.09" height="1.95" transform="translate(212.47 201.53) rotate(-162.61)"/><rect class="cls-1" x="116.03" y="81.41" width="1.09" height="1.95" transform="translate(53.1 -45.47) rotate(28.35)"/><rect class="cls-1" x="133.39" y="83.83" width="1.09" height="1.95" transform="translate(283.16 138.32) rotate(167.39)"/><rect class="cls-1" x="127.93" y="84.51" width="1.09" height="1.95" transform="translate(-2.41 3.74) rotate(-1.65)"/><rect class="cls-1" x="144.18" y="77.93" width="1.09" height="1.95" transform="translate(304.65 38.99) rotate(137.39)"/><rect class="cls-1" x="139.79" y="81.25" width="1.09" height="1.95" transform="translate(-22.27 85.87) rotate(-31.65)"/><rect class="cls-1" x="150.57" y="67.42" width="1.09" height="1.95" transform="translate(261.55 -55.37) rotate(107.39)"/><rect class="cls-1" x="148.43" y="72.49" width="1.09" height="1.95" transform="translate(13.59 169.7) rotate(-61.65)"/><rect class="cls-1" x="150.85" y="55.13" width="1.09" height="1.95" transform="translate(173.09 -103.89) rotate(77.39)"/><rect class="cls-1" x="151.54" y="60.58" width="1.09" height="1.95" transform="translate(94.93 215.35) rotate(-91.65)"/><rect class="cls-1" x="144.95" y="44.34" width="1.09" height="1.95" transform="translate(80.34 -92.44) rotate(47.39)"/><rect class="cls-1" x="148.27" y="48.72" width="1.09" height="1.95" transform="translate(184.6 202.46) rotate(-121.65)"/><rect class="cls-1" x="134.44" y="37.95" width="1.09" height="1.95" transform="translate(17.8 -38.57) rotate(17.39)"/><rect class="cls-1" x="139.51" y="40.08" width="1.09" height="1.95" transform="translate(243.82 143.7) rotate(-151.65)"/><path class="cls-1" d="m125.22,36.7c-13.82,1.73-23.61,14.33-21.88,28.14,1.73,13.82,14.33,23.61,28.14,21.88s23.61-14.33,21.88-28.14c-1.73-13.82-14.33-23.61-28.14-21.88Zm6.08,48.61c-13.03,1.63-24.92-7.61-26.55-20.65-1.63-13.03,7.61-24.92,20.65-26.55,13.03-1.63,24.92,7.61,26.55,20.65,1.63,13.03-7.61,24.92-20.65,26.55Z"/><circle class="cls-3" cx="128.15" cy="61.62" r="3.02"/><path class="cls-3" d="m34.26,31.55c-16.41,2.05-28.04,17.02-25.99,33.42,2.05,16.41,17.02,28.04,33.42,25.99,16.41-2.05,28.04-17.02,25.99-33.42-2.05-16.41-17.02-28.04-33.42-25.99Zm6.87,54.87c-13.9,1.74-26.57-8.12-28.31-22.01-1.74-13.9,8.12-26.57,22.01-28.31,13.9-1.74,26.57,8.12,28.31,22.01,1.74,13.9-8.12,26.57-22.01,28.31Z"/><rect class="cls-3" x="34.78" y="38.31" width=".33" height="23.21" transform="translate(-10.06 8.83) rotate(-12.61)"/><rect class="cls-3" x="37.96" y="37.91" width=".33" height="23.23" transform="translate(77.66 97.93) rotate(178.34)"/><rect class="cls-3" x="29.5" y="41.33" width=".33" height="23.21" transform="translate(-28.01 34.07) rotate(-42.62)"/><rect class="cls-3" x="32.07" y="39.39" width=".33" height="23.23" transform="translate(86.43 77.51) rotate(148.35)"/><rect class="cls-3" x="26.45" y="46.58" width=".33" height="23.21" transform="translate(-36.87 66.19) rotate(-72.61)"/><rect class="cls-3" x="27.7" y="43.62" width=".33" height="23.23" transform="translate(89.7 56.94) rotate(118.35)"/><rect class="cls-3" x="26.43" y="52.66" width=".33" height="23.21" transform="translate(-30.32 104.24) rotate(-102.61)"/><rect class="cls-3" x="26.04" y="49.46" width=".33" height="23.23" transform="translate(86.49 33.12) rotate(88.34)"/><rect class="cls-3" x="29.45" y="57.93" width=".33" height="23.21" transform="translate(-1.52 138.4) rotate(-132.62)"/><rect class="cls-3" x="27.51" y="55.36" width=".33" height="23.23" transform="translate(70.16 8.27) rotate(58.35)"/><rect class="cls-3" x="34.7" y="60.98" width=".33" height="23.21" transform="translate(46.44 152.28) rotate(-162.61)"/><rect class="cls-3" x="31.74" y="59.72" width=".33" height="23.23" transform="translate(37.69 -6.6) rotate(28.34)"/><rect class="cls-3" x="40.77" y="61.01" width=".33" height="23.21" transform="translate(96.74 134.52) rotate(167.38)"/><rect class="cls-3" x="37.59" y="61.39" width=".33" height="23.23" transform="translate(-2.09 1.12) rotate(-1.65)"/><rect class="cls-3" x="46.04" y="57.99" width=".33" height="23.21" transform="translate(127.32 89.53) rotate(137.39)"/><rect class="cls-3" x="43.48" y="59.91" width=".33" height="23.23" transform="translate(-31.04 33.54) rotate(-31.66)"/><rect class="cls-3" x="49.1" y="52.74" width=".33" height="23.21" transform="translate(125.38 36.55) rotate(107.39)"/><rect class="cls-3" x="47.84" y="55.68" width=".33" height="23.23" transform="translate(-34.01 77.6) rotate(-61.66)"/><rect class="cls-3" x="49.12" y="46.66" width=".33" height="23.21" transform="translate(95.38 -2.55) rotate(77.39)"/><rect class="cls-3" x="49.51" y="49.84" width=".33" height="23.23" transform="translate(-10.32 112.88) rotate(-91.65)"/><rect class="cls-3" x="46.1" y="41.39" width=".33" height="23.21" transform="translate(53.95 -16.93) rotate(47.39)"/><rect class="cls-3" x="48.03" y="43.94" width=".33" height="23.23" transform="translate(26.2 125.74) rotate(-121.66)"/><rect class="cls-3" x="40.85" y="38.33" width=".33" height="23.21" transform="translate(16.8 -9.97) rotate(17.39)"/><rect class="cls-3" x="43.8" y="39.58" width=".33" height="23.23" transform="translate(58.34 117.13) rotate(-151.64)"/><path class="cls-2" d="m61.03,76.74c3.61-5.37,5.37-12.01,4.51-18.94-1.9-15.22-15.79-26.01-31.01-24.11-15.22,1.9-26.01,15.79-24.11,31.01,1.9,15.22,15.79,26.01,31.01,24.11,8.3-1.04,15.28-5.63,19.6-12.07m-20.03,8.68c-13.35,1.67-25.52-7.8-27.19-21.14s7.8-25.52,21.14-27.19c13.35-1.67,25.52,7.8,27.19,21.14s-7.8,25.52-21.14,27.19Z"/><rect class="cls-1" x="31.77" y="37.2" width="1.09" height="1.95" transform="translate(-7.56 7.98) rotate(-12.61)"/><rect class="cls-1" x="37.23" y="36.52" width="1.09" height="1.95" transform="translate(76.61 73.89) rotate(178.35)"/><rect class="cls-1" x="20.98" y="43.11" width="1.09" height="1.95" transform="translate(-24.16 26.21) rotate(-42.61)"/><rect class="cls-1" x="25.37" y="39.79" width="1.09" height="1.95" transform="translate(69.36 61.86) rotate(148.35)"/><rect class="cls-1" x="14.59" y="53.61" width="1.09" height="1.95" transform="translate(-41.48 52.72) rotate(-72.61)"/><rect class="cls-1" x="16.73" y="48.54" width="1.09" height="1.95" transform="translate(69.06 57.83) rotate(118.35)"/><rect class="cls-1" x="14.31" y="65.91" width="1.09" height="1.95" transform="translate(-47.17 95.99) rotate(-102.61)"/><rect class="cls-1" x="13.63" y="60.45" width="1.09" height="1.95" transform="translate(75.16 45.49) rotate(88.35)"/><rect class="cls-1" x="20.21" y="76.7" width="1.09" height="1.95" transform="translate(-22.35 145.54) rotate(-132.61)"/><rect class="cls-1" x="16.89" y="72.31" width="1.09" height="1.95" transform="translate(70.67 19.99) rotate(58.35)"/><rect class="cls-1" x="30.72" y="83.09" width="1.09" height="1.95" transform="translate(35.98 173.63) rotate(-162.61)"/><rect class="cls-1" x="25.65" y="80.95" width="1.09" height="1.95" transform="translate(42.04 -2.61) rotate(28.35)"/><rect class="cls-1" x="43.02" y="83.37" width="1.09" height="1.95" transform="translate(104.48 157.14) rotate(167.39)"/><rect class="cls-1" x="37.56" y="84.05" width="1.09" height="1.95" transform="translate(-2.43 1.13) rotate(-1.65)"/><rect class="cls-1" x="53.8" y="77.47" width="1.09" height="1.95" transform="translate(147.45 99.38) rotate(137.39)"/><rect class="cls-1" x="49.42" y="80.79" width="1.09" height="1.95" transform="translate(-35.47 38.38) rotate(-31.65)"/><rect class="cls-1" x="60.19" y="66.96" width="1.09" height="1.95" transform="translate(143.72 30.28) rotate(107.39)"/><rect class="cls-1" x="58.06" y="72.03" width="1.09" height="1.95" transform="translate(-33.48 89.91) rotate(-61.65)"/><rect class="cls-1" x="60.48" y="54.66" width="1.09" height="1.95" transform="translate(102 -16.05) rotate(77.39)"/><rect class="cls-1" x="61.16" y="60.12" width="1.09" height="1.95" transform="translate(2.41 124.54) rotate(-91.65)"/><rect class="cls-1" x="54.57" y="43.88" width="1.09" height="1.95" transform="translate(50.81 -26.08) rotate(47.39)"/><rect class="cls-1" x="57.89" y="48.26" width="1.09" height="1.95" transform="translate(47.19 124.82) rotate(-121.65)"/><rect class="cls-1" x="44.07" y="37.49" width="1.09" height="1.95" transform="translate(13.53 -11.57) rotate(17.39)"/><rect class="cls-1" x="49.14" y="39.62" width="1.09" height="1.95" transform="translate(74.12 99.92) rotate(-151.65)"/><path class="cls-1" d="m34.84,36.24c-13.82,1.73-23.61,14.33-21.88,28.14,1.73,13.82,14.33,23.61,28.14,21.88,13.82-1.73,23.61-14.33,21.88-28.14-1.73-13.82-14.33-23.61-28.14-21.88Zm6.08,48.61c-13.03,1.63-24.92-7.61-26.55-20.65-1.63-13.03,7.61-24.92,20.65-26.55,13.03-1.63,24.92,7.61,26.55,20.65,1.63,13.03-7.61,24.92-20.65,26.55Z"/><circle class="cls-3" cx="37.77" cy="61.16" r="3.02"/></svg>