<?xml version="1.0" encoding="UTF-8"?><svg id="Layer_1" xmlns="http://www.w3.org/2000/svg" viewBox="0 0 166 100"><defs><style>.cls-1{fill:#c9c9c9;}.cls-2{fill:#ddd;}.cls-3{fill:#3a4259;}</style></defs><path class="cls-3" d="m35.26,31.93c-17.39,2.18-29.73,18.04-27.55,35.43,2.18,17.39,18.04,29.73,35.43,27.55,17.39-2.18,29.73-18.04,27.55-35.43-2.18-17.39-18.04-29.73-35.43-27.55Zm7.28,58.16c-14.73,1.84-28.16-8.6-30-23.33-1.84-14.73,8.6-28.16,23.33-30,14.73-1.84,28.16,8.6,30,23.33s-8.6,28.16-23.33,30Z"/><rect class="cls-3" x="35.81" y="39.1" width=".35" height="24.6" transform="translate(-10.35 9.1) rotate(-12.61)"/><rect class="cls-3" x="39.19" y="38.68" width=".35" height="24.62" transform="translate(80.17 100.82) rotate(178.34)"/><rect class="cls-3" x="30.22" y="42.3" width=".35" height="24.6" transform="translate(-28.94 35) rotate(-42.62)"/><rect class="cls-3" x="32.94" y="40.25" width=".35" height="24.62" transform="translate(88.87 79.92) rotate(148.35)"/><rect class="cls-3" x="26.98" y="47.87" width=".35" height="24.6" transform="translate(-38.38 68.1) rotate(-72.61)"/><rect class="cls-3" x="28.31" y="44.73" width=".35" height="24.62" transform="translate(92.21 59.06) rotate(118.35)"/><rect class="cls-3" x="26.96" y="54.31" width=".35" height="24.6" transform="translate(-31.95 107.63) rotate(-102.61)"/><rect class="cls-3" x="26.54" y="50.92" width=".35" height="24.62" transform="translate(89.15 34.7) rotate(88.34)"/><rect class="cls-3" x="30.16" y="59.9" width=".35" height="24.6" transform="translate(-2.26 143.4) rotate(-132.62)"/><rect class="cls-3" x="28.11" y="57.17" width=".35" height="24.62" transform="translate(72.59 8.94) rotate(58.35)"/><rect class="cls-3" x="35.72" y="63.14" width=".35" height="24.6" transform="translate(47.61 158.15) rotate(-162.61)"/><rect class="cls-3" x="32.59" y="61.8" width=".35" height="24.62" transform="translate(39.11 -6.67) rotate(28.34)"/><rect class="cls-3" x="42.16" y="63.16" width=".35" height="24.6" transform="translate(100.14 139.84) rotate(167.38)"/><rect class="cls-3" x="38.79" y="63.56" width=".35" height="24.62" transform="translate(-2.17 1.16) rotate(-1.65)"/><rect class="cls-3" x="47.75" y="59.96" width=".35" height="24.6" transform="translate(132.11 93) rotate(137.39)"/><rect class="cls-3" x="45.03" y="62" width=".35" height="24.62" transform="translate(-32.27 34.78) rotate(-31.66)"/><rect class="cls-3" x="50.99" y="54.39" width=".35" height="24.6" transform="translate(130.1 37.8) rotate(107.39)"/><rect class="cls-3" x="49.66" y="57.52" width=".35" height="24.62" transform="translate(-35.28 80.54) rotate(-61.66)"/><rect class="cls-3" x="51.01" y="47.95" width=".35" height="24.6" transform="translate(98.81 -2.85) rotate(77.39)"/><rect class="cls-3" x="51.43" y="51.32" width=".35" height="24.62" transform="translate(-10.51 117.05) rotate(-91.65)"/><rect class="cls-3" x="47.81" y="42.36" width=".35" height="24.6" transform="translate(55.74 -17.66) rotate(47.39)"/><rect class="cls-3" x="49.86" y="45.07" width=".35" height="24.62" transform="translate(27.45 130.09) rotate(-121.66)"/><rect class="cls-3" x="42.25" y="39.13" width=".35" height="24.6" transform="translate(17.3 -10.33) rotate(17.39)"/><rect class="cls-3" x="45.38" y="40.45" width=".35" height="24.62" transform="translate(60.58 120.82) rotate(-151.64)"/><path class="cls-2" d="m35.54,34.21c-16.13,2.02-27.57,16.73-25.56,32.87,2.02,16.13,16.73,27.57,32.87,25.56,16.13-2.02,27.57-16.73,25.56-32.87-2.02-16.13-16.73-27.57-32.87-25.56Zm6.86,54.83c-14.15,1.77-27.05-8.26-28.82-22.41-1.77-14.15,8.26-27.05,22.41-28.82,14.15-1.77,27.05,8.26,28.82,22.41s-8.26,27.05-22.41,28.82Z"/><rect class="cls-1" x="32.62" y="37.93" width="1.15" height="2.07" transform="translate(-7.71 8.19) rotate(-12.61)"/><rect class="cls-1" x="38.41" y="37.2" width="1.15" height="2.07" transform="translate(79.06 75.34) rotate(178.35)"/><rect class="cls-1" x="21.19" y="44.19" width="1.15" height="2.07" transform="translate(-24.87 26.67) rotate(-42.61)"/><rect class="cls-1" x="25.84" y="40.67" width="1.15" height="2.07" transform="translate(70.78 63.34) rotate(148.35)"/><rect class="cls-1" x="14.41" y="55.32" width="1.15" height="2.07" transform="translate(-43.27 53.82) rotate(-72.61)"/><rect class="cls-1" x="16.68" y="49.95" width="1.15" height="2.07" transform="translate(70.32 60.01) rotate(118.35)"/><rect class="cls-1" x="14.12" y="68.36" width="1.15" height="2.07" transform="translate(-49.82 98.88) rotate(-102.61)"/><rect class="cls-1" x="13.39" y="62.57" width="1.15" height="2.07" transform="translate(77.14 47.81) rotate(88.35)"/><rect class="cls-1" x="20.37" y="79.79" width="1.15" height="2.07" transform="translate(-24.35 150.97) rotate(-132.61)"/><rect class="cls-1" x="16.85" y="75.14" width="1.15" height="2.07" transform="translate(73.13 21.37) rotate(58.35)"/><rect class="cls-1" x="31.51" y="86.57" width="1.15" height="2.07" transform="translate(36.53 180.79) rotate(-162.61)"/><rect class="cls-1" x="26.14" y="84.3" width="1.15" height="2.07" transform="translate(43.72 -2.45) rotate(28.35)"/><rect class="cls-1" x="44.54" y="86.86" width="1.15" height="2.07" transform="translate(108.34 163.82) rotate(167.39)"/><rect class="cls-1" x="38.76" y="87.59" width="1.15" height="2.07" transform="translate(-2.54 1.17) rotate(-1.65)"/><rect class="cls-1" x="55.98" y="80.61" width="1.15" height="2.07" transform="translate(153.45 103.44) rotate(137.39)"/><rect class="cls-1" x="51.33" y="84.13" width="1.15" height="2.07" transform="translate(-36.97 39.9) rotate(-31.65)"/><rect class="cls-1" x="62.75" y="69.47" width="1.15" height="2.07" transform="translate(149.54 31.14) rotate(107.39)"/><rect class="cls-1" x="60.49" y="74.84" width="1.15" height="2.07" transform="translate(-34.71 93.59) rotate(-61.65)"/><rect class="cls-1" x="63.05" y="56.44" width="1.15" height="2.07" transform="translate(105.82 -17.17) rotate(77.39)"/><rect class="cls-1" x="63.78" y="62.22" width="1.15" height="2.07" transform="translate(2.98 129.41) rotate(-91.65)"/><rect class="cls-1" x="56.79" y="45" width="1.15" height="2.07" transform="translate(52.41 -27.35) rotate(47.39)"/><rect class="cls-1" x="60.31" y="49.65" width="1.15" height="2.07" transform="translate(49.69 129.12) rotate(-121.65)"/><rect class="cls-1" x="45.66" y="38.23" width="1.15" height="2.07" transform="translate(13.85 -12.02) rotate(17.39)"/><rect class="cls-1" x="51.03" y="40.49" width="1.15" height="2.07" transform="translate(77.31 102.58) rotate(-151.65)"/><path class="cls-1" d="m35.88,36.91c-14.64,1.83-25.03,15.19-23.2,29.83,1.83,14.64,15.19,25.03,29.83,23.2,14.64-1.83,25.03-15.19,23.2-29.83-1.83-14.64-15.19-25.03-29.83-23.2Zm6.45,51.53c-13.82,1.73-26.42-8.07-28.15-21.89-1.73-13.82,8.07-26.42,21.89-28.15s26.42,8.07,28.15,21.89c1.73,13.82-8.07,26.42-21.89,28.15Z"/><path class="cls-3" d="m125.98,31.93c-17.39,2.18-29.73,18.04-27.55,35.43,2.18,17.39,18.04,29.73,35.43,27.55,17.39-2.18,29.73-18.04,27.55-35.43-2.18-17.39-18.04-29.73-35.43-27.55Zm7.28,58.16c-14.73,1.84-28.16-8.6-30-23.33-1.84-14.73,8.6-28.16,23.33-30,14.73-1.84,28.16,8.6,30,23.33,1.84,14.73-8.6,28.16-23.33,30Z"/><rect class="cls-3" x="126.54" y="39.1" width=".35" height="24.6" transform="translate(-8.17 28.9) rotate(-12.61)"/><rect class="cls-3" x="129.91" y="38.68" width=".35" height="24.62" transform="translate(261.59 98.2) rotate(178.34)"/><rect class="cls-3" x="120.95" y="42.3" width=".35" height="24.6" transform="translate(-4.99 96.43) rotate(-42.62)"/><rect class="cls-3" x="123.66" y="40.25" width=".35" height="24.62" transform="translate(256.83 32.32) rotate(148.35)"/><rect class="cls-3" x="117.71" y="47.87" width=".35" height="24.6" transform="translate(25.23 154.68) rotate(-72.61)"/><rect class="cls-3" x="119.04" y="44.73" width=".35" height="24.62" transform="translate(226.02 -20.79) rotate(118.35)"/><rect class="cls-3" x="117.68" y="54.31" width=".35" height="24.6" transform="translate(78.59 196.17) rotate(-102.61)"/><rect class="cls-3" x="117.27" y="50.92" width=".35" height="24.62" transform="translate(177.26 -55.99) rotate(88.34)"/><rect class="cls-3" x="120.88" y="59.9" width=".35" height="24.6" transform="translate(149.89 210.17) rotate(-132.62)"/><rect class="cls-3" x="118.84" y="57.17" width=".35" height="24.62" transform="translate(115.71 -68.29) rotate(58.35)"/><rect class="cls-3" x="126.45" y="63.14" width=".35" height="24.6" transform="translate(224.92 185.26) rotate(-162.61)"/><rect class="cls-3" x="123.32" y="61.8" width=".35" height="24.62" transform="translate(49.99 -49.74) rotate(28.34)"/><rect class="cls-3" x="132.89" y="63.16" width=".35" height="24.6" transform="translate(279.4 120.02) rotate(167.38)"/><rect class="cls-3" x="129.51" y="63.56" width=".35" height="24.62" transform="translate(-2.14 3.77) rotate(-1.65)"/><rect class="cls-3" x="138.48" y="59.96" width=".35" height="24.6" transform="translate(289.62 31.58) rotate(137.39)"/><rect class="cls-3" x="135.76" y="62" width=".35" height="24.62" transform="translate(-18.77 82.39) rotate(-31.66)"/><rect class="cls-3" x="141.72" y="54.39" width=".35" height="24.6" transform="translate(247.93 -48.79) rotate(107.39)"/><rect class="cls-3" x="140.39" y="57.52" width=".35" height="24.62" transform="translate(12.37 160.39) rotate(-61.66)"/><rect class="cls-3" x="141.74" y="47.95" width=".35" height="24.6" transform="translate(169.73 -91.39) rotate(77.39)"/><rect class="cls-3" x="142.15" y="51.32" width=".35" height="24.62" transform="translate(82.83 207.73) rotate(-91.65)"/><rect class="cls-3" x="138.54" y="42.36" width=".35" height="24.6" transform="translate(85.04 -84.43) rotate(47.39)"/><rect class="cls-3" x="140.59" y="45.07" width=".35" height="24.62" transform="translate(165.8 207.31) rotate(-121.66)"/><rect class="cls-3" x="132.97" y="39.13" width=".35" height="24.6" transform="translate(21.45 -37.44) rotate(17.39)"/><rect class="cls-3" x="136.11" y="40.45" width=".35" height="24.62" transform="translate(231.14 163.92) rotate(-151.64)"/><path class="cls-2" d="m126.27,34.21c-16.13,2.02-27.57,16.73-25.56,32.87,2.02,16.13,16.73,27.57,32.87,25.56,16.13-2.02,27.57-16.73,25.56-32.87-2.02-16.13-16.73-27.57-32.87-25.56Zm6.86,54.83c-14.15,1.77-27.05-8.26-28.82-22.41-1.77-14.15,8.26-27.05,22.41-28.82,14.15-1.77,27.05,8.26,28.82,22.41,1.77,14.15-8.26,27.05-22.41,28.82Z"/><rect class="cls-1" x="123.35" y="37.93" width="1.15" height="2.07" transform="translate(-5.52 28) rotate(-12.61)"/><rect class="cls-1" x="129.14" y="37.2" width="1.15" height="2.07" transform="translate(260.47 72.73) rotate(178.35)"/><rect class="cls-1" x="111.92" y="44.19" width="1.15" height="2.07" transform="translate(-.91 88.1) rotate(-42.61)"/><rect class="cls-1" x="116.56" y="40.67" width="1.15" height="2.07" transform="translate(238.74 15.73) rotate(148.35)"/><rect class="cls-1" x="105.14" y="55.32" width="1.15" height="2.07" transform="translate(20.34 140.41) rotate(-72.61)"/><rect class="cls-1" x="107.41" y="49.95" width="1.15" height="2.07" transform="translate(204.12 -19.84) rotate(118.35)"/><rect class="cls-1" x="104.84" y="68.36" width="1.15" height="2.07" transform="translate(60.72 187.42) rotate(-102.61)"/><rect class="cls-1" x="104.12" y="62.57" width="1.15" height="2.07" transform="translate(165.25 -42.88) rotate(88.35)"/><rect class="cls-1" x="111.1" y="79.79" width="1.15" height="2.07" transform="translate(127.8 217.73) rotate(-132.61)"/><rect class="cls-1" x="107.58" y="75.14" width="1.15" height="2.07" transform="translate(116.24 -55.86) rotate(58.35)"/><rect class="cls-1" x="122.24" y="86.57" width="1.15" height="2.07" transform="translate(213.84 207.9) rotate(-162.61)"/><rect class="cls-1" x="116.86" y="84.3" width="1.15" height="2.07" transform="translate(54.6 -45.53) rotate(28.35)"/><rect class="cls-1" x="135.27" y="86.86" width="1.15" height="2.07" transform="translate(287.61 144.01) rotate(167.39)"/><rect class="cls-1" x="129.48" y="87.59" width="1.15" height="2.07" transform="translate(-2.5 3.78) rotate(-1.65)"/><rect class="cls-1" x="146.7" y="80.61" width="1.15" height="2.07" transform="translate(310.95 42.02) rotate(137.39)"/><rect class="cls-1" x="142.05" y="84.13" width="1.15" height="2.07" transform="translate(-23.47 87.51) rotate(-31.65)"/><rect class="cls-1" x="153.48" y="69.47" width="1.15" height="2.07" transform="translate(267.38 -55.44) rotate(107.39)"/><rect class="cls-1" x="151.21" y="74.84" width="1.15" height="2.07" transform="translate(12.94 173.44) rotate(-61.65)"/><rect class="cls-1" x="153.78" y="56.44" width="1.15" height="2.07" transform="translate(176.74 -105.7) rotate(77.39)"/><rect class="cls-1" x="154.5" y="62.22" width="1.15" height="2.07" transform="translate(96.32 220.1) rotate(-91.65)"/><rect class="cls-1" x="147.52" y="45" width="1.15" height="2.07" transform="translate(81.71 -94.12) rotate(47.39)"/><rect class="cls-1" x="151.04" y="49.65" width="1.15" height="2.07" transform="translate(188.03 206.35) rotate(-121.65)"/><rect class="cls-1" x="136.38" y="38.23" width="1.15" height="2.07" transform="translate(18 -39.14) rotate(17.39)"/><rect class="cls-1" x="141.76" y="40.49" width="1.15" height="2.07" transform="translate(247.88 145.66) rotate(-151.65)"/><path class="cls-1" d="m126.61,36.91c-14.64,1.83-25.03,15.19-23.2,29.83,1.83,14.64,15.19,25.03,29.83,23.2,14.64-1.83,25.03-15.19,23.2-29.83-1.83-14.64-15.19-25.03-29.83-23.2Zm6.45,51.53c-13.82,1.73-26.42-8.07-28.15-21.89s8.07-26.42,21.89-28.15,26.42,8.07,28.15,21.89c1.73,13.82-8.07,26.42-21.89,28.15Z"/><circle class="cls-3" cx="130.01" cy="62.81" r="3"/><circle class="cls-3" cx="130.58" cy="64.21" r="3"/></svg>