<?xml version="1.0" encoding="UTF-8"?><svg id="Layer_1" xmlns="http://www.w3.org/2000/svg" viewBox="0 0 166 100"><defs><style>.cls-1{fill:#e6e6e6;}</style></defs><path class="cls-1" d="m130.06,62.01l-11.34-35.8c-.09-.37-.38-.66-.74-.77l-2.3-.66c-.32-.09-.58-.33-.7-.65,0,0-2.59-8.03-2.99-8.24l-47.13,16.67-2.6-5.37-2.92.23,3.3,6.6-25.82,26.25c-.41.42-.41,1.1.01,1.51s1.1.41,1.51-.01l25.3-25.73,15.15,30.3,33.12-39.51c.95.36,3.8.95,3.88,1.27l11.87,34.53c.15.64.84.99,1.45.74l.32-.13c.49-.2.75-.73.62-1.25Zm-64.24-27.45l44.47-13.67c.07-.02.14-.03.21-.04l-31.43,41.1-13.25-27.39Z"/><polygon class="cls-1" points="39.43 64.01 40.37 65.65 76.06 65.85 75.77 63.03 39.43 64.01"/></svg>