<svg width="305" height="155" viewBox="0 0 305 155" fill="none" xmlns="http://www.w3.org/2000/svg">
<g clip-path="url(#clip0_321_3699)">
<path d="M218.827 0.81897C228.07 4.0445 230.572 15.5751 223.335 21.8046C220.887 23.8829 218.77 24.8646 215.376 25.4116L213.038 25.793V23.8801C213.038 22.0766 213.15 21.9112 215.264 21.5858C224.338 20.1105 226.675 9.39889 218.884 5.07948C216.824 3.93231 215.99 3.82293 206.747 3.82293C201.347 3.82293 196.893 4.0417 196.893 4.31377C196.893 5.40765 228.293 77.6035 230.072 80.5542C232.855 85.1989 239.258 93.3974 241.929 95.7478C244.489 97.9889 244.935 100.283 243.209 101.815C241.038 103.728 239.258 103.018 234.747 98.4825C226.453 90.1747 223.555 85.0363 212.978 60.5531C207.801 48.5288 203.347 38.3081 203.07 37.8733C202.736 37.2731 195.721 45.2528 177.462 66.948C152.802 96.1349 152.245 96.8445 152.913 98.3198C153.248 99.1949 153.693 101.052 153.916 102.474L154.305 105.043L160.708 107.393L167.11 109.688L167.276 113.567L167.442 117.502H164.102H160.762L160.596 114.386L160.43 111.326L156.756 110.122L153.082 108.866L151.191 111.379C146.236 117.937 136.102 118.321 130.648 112.198C129.591 110.995 128.422 109.629 128.142 109.138C127.642 108.319 123.188 107.825 97.2454 105.531C80.5427 104.056 66.5143 102.69 65.9572 102.471C65.4572 102.252 64.7315 101.377 64.3972 100.505C63.7858 99.1921 63.8401 98.7013 64.7315 97.4447C65.2886 96.5696 75.7542 83.7825 88.0026 68.9703C100.305 54.1048 110.382 41.6991 110.494 41.3709C110.551 40.9895 108.602 35.579 106.151 29.2934C103.7 23.0078 101.697 17.3253 101.697 16.669C101.697 15.0843 102.811 13.7716 104.537 13.3901C107.208 12.7338 108.434 14.7028 112.888 26.3428C115.171 32.3002 117.231 37.1637 117.565 37.1637C118.622 37.1637 194.224 19.2382 194.504 18.91C194.727 18.7445 193.447 15.2469 191.721 11.2052C189.939 7.16066 188.547 3.44427 188.547 3.00673C188.547 2.56918 189.047 1.69408 189.662 1.09385C190.719 0.0560684 191.499 -2.28882e-05 203.69 -2.28882e-05C213.261 0.0532684 217.213 0.272034 218.827 0.81897ZM165.605 33.338C148.959 37.2731 131.922 41.2616 127.694 42.246C120.679 43.8308 120.065 44.1056 120.288 45.0873C120.454 45.6875 124.462 56.0177 129.139 68.0419L137.714 89.9026L141.108 90.2841C142.945 90.5028 145.005 90.9404 145.673 91.2685C146.342 91.5967 146.953 91.8155 147.011 91.7061C147.122 91.5967 158.756 77.8251 172.953 60.9906L198.673 30.4939L197.67 28.3622C197.17 27.159 196.501 26.2306 196.279 26.2306C196.056 26.2306 182.253 29.4561 165.605 33.338ZM90.9512 76.7873C75.6428 95.2598 75.1971 95.9161 76.5885 96.2976C77.3685 96.5164 88.2798 97.5541 100.863 98.648C113.388 99.6858 124.522 100.724 125.471 100.889C126.808 101.055 127.308 100.945 127.308 100.398C127.308 100.017 128.199 98.2666 129.256 96.5163L131.205 93.3469L123.188 72.7428C118.734 61.431 114.837 51.4823 114.502 50.6072L113.945 49.0758L110.382 53.3391C108.431 55.7456 99.6911 66.2384 90.9512 76.7873Z" fill="#5A6C9E"/>
<path d="M111.882 67.4411C116.948 74.2175 121.014 84.0568 122.014 92.0337L122.459 95.2031L118.897 94.8217C116.948 94.6029 115.277 94.3841 115.222 94.3308C115.168 94.2775 114.722 92.3086 114.22 89.9048C112.994 84.1662 110.545 78.4275 107.148 73.4546C105.477 70.9948 104.588 69.138 104.811 68.7538C105.645 67.3317 108.597 63.9435 108.931 63.9435C109.1 63.9435 110.437 65.5282 111.882 67.4411Z" fill="#5A6C9E"/>
<path d="M103.588 76.35C104.311 77.0596 103.754 77.5532 99.0224 80.4478C92.2854 84.6017 92.3425 84.6017 93.8996 82.6888C95.4596 80.8854 103.085 75.8563 103.588 76.35Z" fill="#5A6C9E"/>
<path d="M109.657 91.6526C110.66 92.5809 109.714 92.9091 105.706 92.8558C102.254 92.7997 101.808 92.6903 103.368 92.365C107.317 91.4871 109.323 91.2683 109.657 91.6526Z" fill="#5A6C9E"/>
<path d="M116.448 3.77023C120.345 4.26107 122.182 5.24556 122.682 6.99576C123.351 9.56497 122.294 9.83703 110.603 10.0025L99.7456 10.1119L95.7371 11.9715C92.1743 13.6123 91.3943 13.775 88.7772 13.4468C82.5972 12.6278 78.3116 11.4246 77.6973 10.2774C76.8059 8.69267 78.0316 6.28895 80.4801 4.81081C82.4287 3.60755 82.9287 3.55426 97.7942 3.49816C106.206 3.44207 114.611 3.55145 116.448 3.77023Z" fill="#5A6C9E"/>
<path d="M246.164 45.9087C253.512 47.0558 263.143 50.7722 269.266 54.8168C272.663 57.0578 278.898 62.9591 281.792 66.7316C290.255 77.4432 294.263 91.7617 292.649 105.205C289.977 127.285 274.666 144.991 252.844 151.168C245.661 153.19 234.918 153.574 227.458 152.043C216.047 149.748 206.527 144.501 198.51 136.193C192.941 130.454 189.213 124.497 186.653 117.448C184.036 110.288 183.313 105.315 183.702 96.6253C184.09 86.1325 186.764 78.0995 192.776 69.0259C195.281 65.2563 204.578 55.9639 205.19 56.6203C205.413 56.8923 206.193 58.4238 206.861 60.0646L208.087 62.9619L204.247 66.8971C194.559 76.6803 190.273 87.6667 190.941 101.329C191.33 109.143 192.221 112.75 195.507 119.529C201.798 132.263 212.433 140.734 227.241 144.725C232.475 146.147 244.889 145.982 250.512 144.397C271.438 138.543 285.466 120.508 285.578 99.4666C285.689 77.3871 270.046 58.3144 247.832 53.5041C243.324 52.5196 231.464 52.629 227.512 53.7229C225.841 54.1604 224.395 54.5419 224.338 54.4886C223.727 53.779 221.555 48.0403 221.89 47.8216C224.673 46.1807 239.872 44.9775 246.164 45.9087Z" fill="#5A6C9E"/>
<path d="M75.8087 45.9625C80.0944 46.5627 85.9972 48.3129 90.5057 50.3352C92.5085 51.2103 94.2342 52.0826 94.3457 52.1947C94.5114 52.3041 93.6771 53.6168 92.5085 55.036C91.34 56.5114 90.3371 57.7146 90.2828 57.824C90.2285 57.8801 88.4457 57.2238 86.2743 56.3487C78.0915 53.0698 69.9631 51.9227 61.8346 53.0137C43.4062 55.4175 28.5435 67.3884 22.6407 84.6043C15.0694 106.849 25.2579 130.514 46.969 141.225C66.2888 150.733 91.0057 145.323 104.534 128.601C107.54 124.881 111.271 118.377 112.717 114.279L113.385 112.476L116.725 112.695C118.563 112.804 120.177 113.079 120.345 113.241C120.791 113.623 118.62 119.746 116.837 123.243C114.388 128.107 110.045 133.736 105.368 138.165C97.4628 145.598 88.2772 150.243 77.3658 152.265C70.2945 153.577 59.7746 153.084 52.9804 151.171C32.6035 145.323 18.1294 129.748 13.6751 109.034C13.2866 107.231 12.9494 102.53 13.0066 98.6508C13.0608 92.9122 13.3408 90.5085 14.4551 86.2984C17.0151 76.734 21.1351 69.4107 27.8721 62.4688C40.4006 49.4601 57.9375 43.4493 75.8087 45.9625Z" fill="#5A6C9E"/>
<path d="M247.39 58.368C247.835 58.64 247.167 62.5752 244.995 72.4145C243.327 79.9033 241.821 86.1328 241.71 86.2422C241.544 86.4049 241.264 86.0795 241.098 85.5326C240.821 84.8229 246.11 58.8083 246.667 58.0959C246.721 58.0398 247.055 58.1492 247.39 58.368Z" fill="#5A6C9E"/>
<path d="M231.69 59.1333C232.135 61.2649 234.752 75.8023 234.752 76.2931C234.752 76.5652 234.307 76.1304 233.807 75.418C232.467 73.5612 229.684 57.93 230.687 57.93C231.075 57.93 231.521 58.4769 231.69 59.1333Z" fill="#5A6C9E"/>
<path d="M76.9769 58.3147C77.7569 58.5868 73.7483 76.4058 72.4683 78.372C71.3541 80.0128 71.0769 80.1754 71.4112 78.8095C71.5226 78.3187 72.6369 73.4523 73.8598 68.0979C75.0855 62.6874 76.1426 58.2615 76.254 58.2054C76.3083 58.1493 76.6426 58.1493 76.9769 58.3147Z" fill="#5A6C9E"/>
<path d="M61.0544 58.3145C61.0544 58.5866 62.1687 64.8722 63.5601 72.361C65.5086 83.0193 65.8972 86.1887 65.3972 86.789C64.84 87.3892 64.1715 84.4946 62.0572 72.908C60.6087 64.8189 59.3858 58.1518 59.3858 58.0425C59.3858 57.9892 59.7744 57.9331 60.2201 57.9331C60.6658 57.9331 61.0544 58.0958 61.0544 58.3145Z" fill="#5A6C9E"/>
<path d="M53.929 76.7875C59.7176 85.6423 62.4461 90.287 62.1118 90.7779C61.8889 91.1593 61.5547 91.3781 61.4432 91.2687C60.3861 89.9028 44.352 64.8165 44.352 64.4351C44.352 62.5783 46.3006 65.1447 53.929 76.7875Z" fill="#5A6C9E"/>
<path d="M262.809 64.9816C263.198 65.5818 246.052 89.9023 245.272 89.9023C244.995 89.9023 244.772 89.6303 244.772 89.3554C244.715 88.7552 261.195 65.2537 262.029 64.7628C262.309 64.6001 262.644 64.7067 262.809 64.9816Z" fill="#5A6C9E"/>
<path d="M209.53 78.7006C212.647 80.8323 215.821 83.3454 216.49 84.3299L217.77 86.0801L216.044 84.9862C205.856 78.4286 201.402 74.8749 203.407 74.8749C203.687 74.8749 206.413 76.6223 209.53 78.7006Z" fill="#5A6C9E"/>
<path d="M46.5801 83.8916C58.2714 91.9246 60.9428 94.0562 59.1056 94.0029C57.9914 93.9496 32.1059 75.8586 32.3831 75.365C32.6059 75.0929 32.8831 74.8741 33.1059 74.8741C33.3288 74.9274 39.3973 78.972 46.5801 83.8916Z" fill="#5A6C9E"/>
<path d="M274.444 76.8973C274.721 77.3882 249.838 93.0755 248.947 93.0194C248.67 93.0194 248.335 92.8006 248.278 92.5285C248.112 92.0377 272.664 76.5159 273.609 76.5159C273.944 76.5131 274.332 76.6785 274.444 76.8973Z" fill="#5A6C9E"/>
<path d="M211.312 92.6375C222.169 95.0973 225.955 96.2978 225.118 97.1196C225.061 97.1729 218.55 95.8069 210.644 94.1128C201.29 92.0906 196.336 90.7779 196.336 90.2871C196.336 89.3559 196.838 89.412 211.312 92.6375Z" fill="#5A6C9E"/>
<path d="M42.7945 93.072C53.0944 95.3131 58.2715 96.679 58.2715 97.1166C58.2715 97.498 58.1058 97.8262 57.8801 97.8262C57.6572 97.8262 50.3658 96.2947 41.7345 94.438C30.8775 92.0875 25.9804 90.831 25.9804 90.3401C25.9804 89.4117 25.2576 89.2463 42.7945 93.072Z" fill="#5A6C9E"/>
<path d="M280.4 91.9246C280.4 92.5249 277.226 93.2373 266.872 95.0408C259.466 96.2973 252.732 97.5006 251.841 97.6633C250.784 97.8821 250.338 97.7166 250.338 97.1724C250.338 96.5722 253.566 95.8065 263.866 94.0563C271.272 92.7436 278.006 91.5965 278.843 91.4338C279.955 91.215 280.4 91.3777 280.4 91.9246Z" fill="#5A6C9E"/>
<path d="M228.85 101.052C229.238 101.652 229.741 101.543 211.704 104.659C203.798 106.081 196.896 107.009 196.396 106.79C195.616 106.518 195.673 106.406 196.619 105.971C197.844 105.481 225.847 100.561 227.515 100.561C228.07 100.561 228.681 100.78 228.85 101.052Z" fill="#5A6C9E"/>
<path d="M58.2715 101.052C58.2715 101.652 57.0458 101.927 39.7888 104.931C25.9261 107.335 25.2576 107.391 25.5376 106.462C25.7033 106.081 31.7175 104.768 40.5145 103.237C55.7658 100.508 58.2715 100.233 58.2715 101.052Z" fill="#5A6C9E"/>
<path d="M265.315 104.333C273.332 106.08 279.566 107.721 279.735 108.102C280.069 109.087 279.623 109.031 264.538 105.752C256.909 104.111 250.621 102.745 250.509 102.745C250.398 102.745 250.344 102.361 250.344 101.926C250.344 101.489 250.509 101.16 250.732 101.16C251.007 101.217 257.521 102.636 265.315 104.333Z" fill="#5A6C9E"/>
<path d="M231.632 103.73C232.021 104.386 202.85 122.474 202.238 121.874C201.961 121.602 201.793 121.274 201.961 121.164C203.018 120.236 230.41 103.292 230.855 103.292C231.132 103.292 231.467 103.458 231.632 103.73Z" fill="#5A6C9E"/>
<path d="M59.3828 104.606C59.3828 105.262 32.826 122.422 31.826 122.422C31.6031 122.422 31.5488 122.04 31.6603 121.603C31.7717 121.003 58.2714 103.84 59.1628 103.84C59.2714 103.84 59.3828 104.168 59.3828 104.606Z" fill="#5A6C9E"/>
<path d="M260.138 113.295C266.26 117.558 271.829 121.437 272.498 121.874C273.22 122.365 273.555 122.968 273.278 123.35C273 123.787 268.88 121.218 260.361 115.426C249.061 107.665 247.001 105.971 248.504 105.699C248.724 105.643 253.958 109.087 260.138 113.295Z" fill="#5A6C9E"/>
<path d="M233.859 105.915C234.193 106.462 214.873 133.624 214.15 133.624C213.816 133.624 213.593 133.352 213.593 133.077C213.593 132.367 232.633 105.478 233.19 105.478C233.416 105.481 233.693 105.699 233.859 105.915Z" fill="#5A6C9E"/>
<path d="M62.0572 107.065C62.5029 107.337 59.6629 111.766 53.483 120.564C48.3602 127.725 44.0745 133.736 43.9631 133.845C43.8517 134.008 43.5174 133.845 43.2403 133.573C42.5146 132.861 61.1658 106.518 62.0572 107.065Z" fill="#5A6C9E"/>
<path d="M236.978 107.937C236.978 108.756 229.684 140.128 229.464 140.347C228.127 141.659 228.741 137.449 231.912 123.622C234.418 112.582 235.752 107.662 236.255 107.662C236.644 107.665 236.978 107.774 236.978 107.937Z" fill="#5A6C9E"/>
<path d="M250.227 116.302C253.066 120.728 256.852 126.576 258.689 129.364C261.084 132.971 261.752 134.446 261.195 134.665C260.695 134.828 257.855 130.949 252.344 122.531C243.658 109.141 243.101 108.213 244.272 108.213C244.715 108.266 247.389 111.873 250.227 116.302Z" fill="#5A6C9E"/>
<path d="M240.876 109.415C240.876 109.797 242.156 116.904 243.658 125.156C245.718 136.414 246.218 140.24 245.718 140.568C245.33 140.787 244.996 140.787 244.938 140.568C244.773 140.077 239.204 109.362 239.204 109.034C239.204 108.871 239.593 108.762 240.038 108.762C240.484 108.759 240.876 109.087 240.876 109.415Z" fill="#5A6C9E"/>
<path d="M69.7403 109.197C70.6317 109.797 76.0317 140.459 75.1974 140.459C74.8088 140.459 74.3631 140.021 74.1946 139.474C73.6374 137.562 68.7946 109.743 68.9632 109.253C69.0718 109.031 69.406 108.978 69.7403 109.197Z" fill="#5A6C9E"/>
<path d="M66.0659 109.141C66.0659 109.359 64.5059 116.52 62.6145 124.99C60.166 135.921 58.9403 140.456 58.4403 140.456C57.5489 140.456 57.3832 141.331 61.5031 123.022C63.3974 114.77 64.9545 109.031 65.3459 108.866C65.7316 108.759 66.0659 108.868 66.0659 109.141Z" fill="#5A6C9E"/>
<path d="M76.5314 111.601C83.4342 121.547 91.117 134.118 90.617 134.609C90.2827 134.937 89.2798 133.899 87.6113 131.383C86.2741 129.305 82.6571 123.788 79.6514 119.14C76.5886 114.496 73.9172 110.342 73.6372 109.958C73.4143 109.576 73.5257 109.301 74.0829 109.301C74.5286 109.307 75.64 110.345 76.5314 111.601Z" fill="#5A6C9E"/>
<path d="M94.0109 116.464C102.082 121.984 103.865 123.516 102.194 123.516C101.694 123.516 88.1653 114.498 83.9339 111.382L82.5996 110.398H83.9339C84.7139 110.398 88.8338 112.857 94.0109 116.464Z" fill="#5A6C9E"/>
</g>
<defs>
<clipPath id="clip0_321_3699">
<rect width="305" height="155" fill="white"/>
</clipPath>
</defs>
</svg>
