<svg width="280" height="153" viewBox="0 0 280 153" fill="none" xmlns="http://www.w3.org/2000/svg">
<path d="M205.827 0.81897C215.07 4.0445 217.572 15.5751 210.335 21.8046C207.887 23.8829 205.77 24.8646 202.376 25.4116L200.038 25.793V23.8801C200.038 22.0766 200.15 21.9112 202.264 21.5858C211.338 20.1105 213.675 9.39889 205.884 5.07948C203.824 3.93231 202.99 3.82293 193.747 3.82293C188.347 3.82293 183.893 4.0417 183.893 4.31377C183.893 5.40765 215.293 77.6035 217.072 80.5542C219.855 85.1989 226.258 93.3974 228.929 95.7478C231.489 97.9889 231.935 100.283 230.209 101.815C228.038 103.728 226.258 103.018 221.747 98.4825C213.453 90.1747 210.555 85.0363 199.978 60.5531C194.801 48.5288 190.347 38.3081 190.07 37.8733C189.736 37.2731 182.721 45.2528 164.462 66.948C139.802 96.1349 139.245 96.8445 139.913 98.3198C140.248 99.1949 140.693 101.052 140.916 102.474L141.305 105.043L147.708 107.393L154.11 109.688L154.276 113.567L154.442 117.502H151.102H147.762L147.596 114.386L147.43 111.326L143.756 110.122L140.082 108.866L138.191 111.379C133.236 117.937 123.102 118.321 117.648 112.198C116.591 110.995 115.422 109.629 115.142 109.138C114.642 108.319 110.188 107.825 84.2454 105.531C67.5427 104.056 53.5143 102.69 52.9572 102.471C52.4572 102.252 51.7315 101.377 51.3972 100.505C50.7858 99.1921 50.8401 98.7013 51.7315 97.4447C52.2886 96.5696 62.7542 83.7825 75.0026 68.9703C87.3054 54.1048 97.3824 41.6991 97.4938 41.3709C97.551 40.9895 95.6024 35.579 93.151 29.2934C90.6996 23.0078 88.6968 17.3253 88.6968 16.669C88.6968 15.0843 89.8111 13.7716 91.5367 13.3901C94.2081 12.7338 95.4338 14.7028 99.8881 26.3428C102.171 32.3002 104.231 37.1637 104.565 37.1637C105.622 37.1637 181.224 19.2382 181.504 18.91C181.727 18.7445 180.447 15.2469 178.721 11.2052C176.939 7.16066 175.547 3.44427 175.547 3.00673C175.547 2.56918 176.047 1.69408 176.662 1.09385C177.719 0.0560684 178.499 -2.28882e-05 190.69 -2.28882e-05C200.261 0.0532684 204.213 0.272034 205.827 0.81897ZM152.605 33.338C135.959 37.2731 118.922 41.2616 114.694 42.246C107.679 43.8308 107.065 44.1056 107.288 45.0873C107.454 45.6875 111.462 56.0177 116.139 68.0419L124.714 89.9026L128.108 90.2841C129.945 90.5028 132.005 90.9404 132.673 91.2685C133.342 91.5967 133.953 91.8155 134.011 91.7061C134.122 91.5967 145.756 77.8251 159.953 60.9906L185.673 30.4939L184.67 28.3622C184.17 27.159 183.501 26.2306 183.279 26.2306C183.056 26.2306 169.253 29.4561 152.605 33.338ZM77.9512 76.7873C62.6428 95.2598 62.1971 95.9161 63.5885 96.2976C64.3685 96.5164 75.2798 97.5541 87.8625 98.648C100.388 99.6858 111.522 100.724 112.471 100.889C113.808 101.055 114.308 100.945 114.308 100.398C114.308 100.017 115.199 98.2666 116.256 96.5163L118.205 93.3469L110.188 72.7428C105.734 61.431 101.837 51.4823 101.502 50.6072L100.945 49.0758L97.3824 53.3391C95.431 55.7456 86.6911 66.2384 77.9512 76.7873Z" fill="#5A6C9E"/>
<path d="M98.8824 67.4411C103.948 74.2175 108.014 84.0568 109.014 92.0337L109.459 95.2031L105.897 94.8217C103.948 94.6029 102.277 94.3841 102.222 94.3308C102.168 94.2775 101.722 92.3086 101.22 89.9048C99.9939 84.1662 97.5453 78.4275 94.1482 73.4546C92.4768 70.9948 91.5882 69.138 91.8111 68.7538C92.6454 67.3317 95.5968 63.9435 95.9311 63.9435C96.0996 63.9435 97.4367 65.5282 98.8824 67.4411Z" fill="#5A6C9E"/>
<path d="M90.5881 76.35C91.3109 77.0596 90.7538 77.5532 86.0224 80.4478C79.2854 84.6017 79.3425 84.6017 80.8996 82.6888C82.4596 80.8854 90.0852 75.8563 90.5881 76.35Z" fill="#5A6C9E"/>
<path d="M96.6569 91.6526C97.6598 92.5809 96.7141 92.9091 92.7055 92.8558C89.2541 92.7997 88.8084 92.6903 90.3684 92.365C94.3169 91.4871 96.3226 91.2683 96.6569 91.6526Z" fill="#5A6C9E"/>
<path d="M103.448 3.77023C107.345 4.26107 109.182 5.24556 109.682 6.99576C110.351 9.56497 109.294 9.83703 97.6026 10.0025L86.7456 10.1119L82.7371 11.9715C79.1743 13.6123 78.3943 13.775 75.7772 13.4468C69.5972 12.6278 65.3116 11.4246 64.6973 10.2774C63.8059 8.69267 65.0316 6.28895 67.4801 4.81081C69.4287 3.60755 69.9287 3.55426 84.7942 3.49816C93.2055 3.44207 101.611 3.55145 103.448 3.77023Z" fill="#5A6C9E"/>
<path d="M233.164 45.9087C240.512 47.0558 250.143 50.7722 256.266 54.8168C259.663 57.0578 265.898 62.9591 268.792 66.7316C277.255 77.4432 281.263 91.7617 279.649 105.205C276.977 127.285 261.666 144.991 239.844 151.168C232.661 153.19 221.918 153.574 214.458 152.043C203.047 149.748 193.527 144.501 185.51 136.193C179.941 130.454 176.213 124.497 173.653 117.448C171.036 110.288 170.313 105.315 170.702 96.6253C171.09 86.1325 173.764 78.0995 179.776 69.0259C182.281 65.2563 191.578 55.9639 192.19 56.6203C192.413 56.8923 193.193 58.4238 193.861 60.0646L195.087 62.9619L191.247 66.8971C181.559 76.6803 177.273 87.6667 177.941 101.329C178.33 109.143 179.221 112.75 182.507 119.529C188.798 132.263 199.433 140.734 214.241 144.725C219.475 146.147 231.889 145.982 237.512 144.397C258.438 138.543 272.466 120.508 272.578 99.4666C272.689 77.3871 257.046 58.3144 234.832 53.5041C230.324 52.5196 218.464 52.629 214.512 53.7229C212.841 54.1604 211.395 54.5419 211.338 54.4886C210.727 53.779 208.555 48.0403 208.89 47.8216C211.673 46.1807 226.872 44.9775 233.164 45.9087Z" fill="#5A6C9E"/>
<path d="M62.8087 45.9625C67.0944 46.5627 72.9972 48.3129 77.5057 50.3352C79.5085 51.2103 81.2342 52.0826 81.3457 52.1947C81.5114 52.3041 80.6771 53.6168 79.5085 55.036C78.34 56.5114 77.3371 57.7146 77.2828 57.824C77.2285 57.8801 75.4457 57.2238 73.2743 56.3487C65.0915 53.0698 56.9631 51.9227 48.8346 53.0137C30.4062 55.4175 15.5435 67.3884 9.64074 84.6043C2.0694 106.849 12.2579 130.514 33.969 141.225C53.2888 150.733 78.0057 145.323 91.5341 128.601C94.5398 124.881 98.2712 118.377 99.7169 114.279L100.385 112.476L103.725 112.695C105.563 112.804 107.177 113.079 107.345 113.241C107.791 113.623 105.62 119.746 103.837 123.243C101.388 128.107 97.0455 133.736 92.3684 138.165C84.4628 145.598 75.2772 150.243 64.3658 152.265C57.2945 153.577 46.7746 153.084 39.9804 151.171C19.6035 145.323 5.12936 129.748 0.675133 109.034C0.28656 107.231 -0.0505905 102.53 0.00655365 98.6508C0.0608368 92.9122 0.340843 90.5085 1.45512 86.2984C4.01508 76.734 8.13506 69.4107 14.8721 62.4688C27.4006 49.4601 44.9375 43.4493 62.8087 45.9625Z" fill="#5A6C9E"/>
<path d="M234.39 58.368C234.835 58.64 234.167 62.5752 231.995 72.4145C230.327 79.9033 228.821 86.1328 228.71 86.2422C228.544 86.4049 228.264 86.0795 228.098 85.5326C227.821 84.8229 233.11 58.8083 233.667 58.0959C233.721 58.0398 234.055 58.1492 234.39 58.368Z" fill="#5A6C9E"/>
<path d="M218.69 59.1333C219.135 61.2649 221.752 75.8023 221.752 76.2931C221.752 76.5652 221.307 76.1304 220.807 75.418C219.467 73.5612 216.684 57.93 217.687 57.93C218.075 57.93 218.521 58.4769 218.69 59.1333Z" fill="#5A6C9E"/>
<path d="M63.9769 58.3147C64.7569 58.5868 60.7483 76.4058 59.4683 78.372C58.3541 80.0128 58.0769 80.1754 58.4112 78.8095C58.5226 78.3187 59.6369 73.4523 60.8598 68.0979C62.0855 62.6874 63.1426 58.2615 63.254 58.2054C63.3083 58.1493 63.6426 58.1493 63.9769 58.3147Z" fill="#5A6C9E"/>
<path d="M48.0544 58.3145C48.0544 58.5866 49.1687 64.8722 50.5601 72.361C52.5086 83.0193 52.8972 86.1887 52.3972 86.789C51.84 87.3892 51.1715 84.4946 49.0572 72.908C47.6087 64.8189 46.3858 58.1518 46.3858 58.0425C46.3858 57.9892 46.7744 57.9331 47.2201 57.9331C47.6658 57.9331 48.0544 58.0958 48.0544 58.3145Z" fill="#5A6C9E"/>
<path d="M40.929 76.7875C46.7176 85.6423 49.4461 90.287 49.1118 90.7779C48.8889 91.1593 48.5547 91.3781 48.4432 91.2687C47.3861 89.9028 31.352 64.8165 31.352 64.4351C31.352 62.5783 33.3006 65.1447 40.929 76.7875Z" fill="#5A6C9E"/>
<path d="M249.809 64.9816C250.198 65.5818 233.052 89.9023 232.272 89.9023C231.995 89.9023 231.772 89.6303 231.772 89.3554C231.715 88.7552 248.195 65.2537 249.029 64.7628C249.309 64.6001 249.644 64.7067 249.809 64.9816Z" fill="#5A6C9E"/>
<path d="M196.53 78.7006C199.647 80.8323 202.821 83.3454 203.49 84.3299L204.77 86.0801L203.044 84.9862C192.856 78.4286 188.402 74.8749 190.407 74.8749C190.687 74.8749 193.413 76.6223 196.53 78.7006Z" fill="#5A6C9E"/>
<path d="M33.5801 83.8916C45.2714 91.9246 47.9428 94.0562 46.1056 94.0029C44.9914 93.9496 19.1059 75.8586 19.3831 75.365C19.6059 75.0929 19.8831 74.8741 20.1059 74.8741C20.3288 74.9274 26.3973 78.972 33.5801 83.8916Z" fill="#5A6C9E"/>
<path d="M261.444 76.8973C261.721 77.3882 236.838 93.0755 235.947 93.0194C235.67 93.0194 235.335 92.8006 235.278 92.5285C235.112 92.0377 259.664 76.5159 260.609 76.5159C260.944 76.5131 261.332 76.6785 261.444 76.8973Z" fill="#5A6C9E"/>
<path d="M198.312 92.6375C209.169 95.0973 212.955 96.2978 212.118 97.1196C212.061 97.1729 205.55 95.8069 197.644 94.1128C188.29 92.0906 183.336 90.7779 183.336 90.2871C183.336 89.3559 183.838 89.412 198.312 92.6375Z" fill="#5A6C9E"/>
<path d="M29.7945 93.072C40.0944 95.3131 45.2715 96.679 45.2715 97.1166C45.2715 97.498 45.1058 97.8262 44.8801 97.8262C44.6572 97.8262 37.3658 96.2947 28.7345 94.438C17.8775 92.0875 12.9804 90.831 12.9804 90.3401C12.9804 89.4117 12.2576 89.2463 29.7945 93.072Z" fill="#5A6C9E"/>
<path d="M267.4 91.9246C267.4 92.5249 264.226 93.2373 253.872 95.0408C246.466 96.2973 239.732 97.5006 238.841 97.6633C237.784 97.8821 237.338 97.7166 237.338 97.1724C237.338 96.5722 240.566 95.8065 250.866 94.0563C258.272 92.7436 265.006 91.5965 265.843 91.4338C266.955 91.215 267.4 91.3777 267.4 91.9246Z" fill="#5A6C9E"/>
<path d="M215.85 101.052C216.238 101.652 216.741 101.543 198.704 104.659C190.798 106.081 183.896 107.009 183.396 106.79C182.616 106.518 182.673 106.406 183.619 105.971C184.844 105.481 212.847 100.561 214.515 100.561C215.07 100.561 215.681 100.78 215.85 101.052Z" fill="#5A6C9E"/>
<path d="M45.2715 101.052C45.2715 101.652 44.0458 101.927 26.7888 104.931C12.9261 107.335 12.2576 107.391 12.5376 106.462C12.7033 106.081 18.7175 104.768 27.5145 103.237C42.7658 100.508 45.2715 100.233 45.2715 101.052Z" fill="#5A6C9E"/>
<path d="M252.315 104.333C260.332 106.08 266.566 107.721 266.735 108.102C267.069 109.087 266.623 109.031 251.538 105.752C243.909 104.111 237.621 102.745 237.509 102.745C237.398 102.745 237.344 102.361 237.344 101.926C237.344 101.489 237.509 101.16 237.732 101.16C238.007 101.217 244.521 102.636 252.315 104.333Z" fill="#5A6C9E"/>
<path d="M218.632 103.73C219.021 104.386 189.85 122.474 189.238 121.874C188.961 121.602 188.793 121.274 188.961 121.164C190.018 120.236 217.41 103.292 217.855 103.292C218.132 103.292 218.467 103.458 218.632 103.73Z" fill="#5A6C9E"/>
<path d="M46.3828 104.606C46.3828 105.262 19.826 122.422 18.826 122.422C18.6031 122.422 18.5488 122.04 18.6603 121.603C18.7717 121.003 45.2714 103.84 46.1628 103.84C46.2714 103.84 46.3828 104.168 46.3828 104.606Z" fill="#5A6C9E"/>
<path d="M247.138 113.295C253.26 117.558 258.829 121.437 259.498 121.874C260.22 122.365 260.555 122.968 260.278 123.35C260 123.787 255.88 121.218 247.361 115.426C236.061 107.665 234.001 105.971 235.504 105.699C235.724 105.643 240.958 109.087 247.138 113.295Z" fill="#5A6C9E"/>
<path d="M220.859 105.915C221.193 106.462 201.873 133.624 201.15 133.624C200.816 133.624 200.593 133.352 200.593 133.077C200.593 132.367 219.633 105.478 220.19 105.478C220.416 105.481 220.693 105.699 220.859 105.915Z" fill="#5A6C9E"/>
<path d="M49.0572 107.065C49.5029 107.337 46.6629 111.766 40.483 120.564C35.3602 127.725 31.0745 133.736 30.9631 133.845C30.8517 134.008 30.5174 133.845 30.2403 133.573C29.5146 132.861 48.1658 106.518 49.0572 107.065Z" fill="#5A6C9E"/>
<path d="M223.978 107.937C223.978 108.756 216.684 140.128 216.464 140.347C215.127 141.659 215.741 137.449 218.912 123.622C221.418 112.582 222.752 107.662 223.255 107.662C223.644 107.665 223.978 107.774 223.978 107.937Z" fill="#5A6C9E"/>
<path d="M237.227 116.302C240.066 120.728 243.852 126.576 245.689 129.364C248.084 132.971 248.752 134.446 248.195 134.665C247.695 134.828 244.855 130.949 239.344 122.531C230.658 109.141 230.101 108.213 231.272 108.213C231.715 108.266 234.389 111.873 237.227 116.302Z" fill="#5A6C9E"/>
<path d="M227.876 109.415C227.876 109.797 229.156 116.904 230.658 125.156C232.718 136.414 233.218 140.24 232.718 140.568C232.33 140.787 231.996 140.787 231.938 140.568C231.773 140.077 226.204 109.362 226.204 109.034C226.204 108.871 226.593 108.762 227.038 108.762C227.484 108.759 227.876 109.087 227.876 109.415Z" fill="#5A6C9E"/>
<path d="M56.7403 109.197C57.6317 109.797 63.0317 140.459 62.1974 140.459C61.8088 140.459 61.3631 140.021 61.1946 139.474C60.6374 137.562 55.7946 109.743 55.9632 109.253C56.0718 109.031 56.406 108.978 56.7403 109.197Z" fill="#5A6C9E"/>
<path d="M53.0659 109.141C53.0659 109.359 51.5059 116.52 49.6145 124.99C47.166 135.921 45.9403 140.456 45.4403 140.456C44.5489 140.456 44.3832 141.331 48.5031 123.022C50.3974 114.77 51.9545 109.031 52.3459 108.866C52.7316 108.759 53.0659 108.868 53.0659 109.141Z" fill="#5A6C9E"/>
<path d="M63.5314 111.601C70.4342 121.547 78.117 134.118 77.617 134.609C77.2827 134.937 76.2798 133.899 74.6113 131.383C73.2741 129.305 69.6571 123.788 66.6514 119.14C63.5886 114.496 60.9172 110.342 60.6372 109.958C60.4143 109.576 60.5257 109.301 61.0829 109.301C61.5286 109.307 62.64 110.345 63.5314 111.601Z" fill="#5A6C9E"/>
<path d="M81.0109 116.464C89.0823 121.984 90.8651 123.516 89.1937 123.516C88.6937 123.516 75.1653 114.498 70.9339 111.382L69.5996 110.398H70.9339C71.7139 110.398 75.8338 112.857 81.0109 116.464Z" fill="#5A6C9E"/>
</svg>
