<svg width="162" height="318" viewBox="0 0 162 318" fill="none" xmlns="http://www.w3.org/2000/svg">
<path fill-rule="evenodd" clip-rule="evenodd" d="M0.338038 5.22309C0.114997 3.51319 0 1.76978 0 0H2C2 1.68305 2.10936 3.34005 2.32124 4.9644L0.338038 5.22309ZM8.26447 24.3518C6.14955 21.5997 4.38433 18.5641 3.0356 15.3117L4.88305 14.5456C6.16391 17.6344 7.84067 20.518 9.85031 23.1332L8.26447 24.3518ZM24.6881 36.9642C21.4357 35.6155 18.4002 33.8503 15.648 31.7354L16.8667 30.1495C19.4818 32.1592 22.3655 33.8359 25.4542 35.1168L24.6881 36.9642ZM39.9998 39.9998C38.2301 39.9998 36.4866 39.8848 34.7767 39.6618L35.0354 37.6786C36.6598 37.8905 38.3168 37.9998 39.9998 37.9998H44.3748V39.9998H39.9998ZM61.8748 39.9998H53.1248V37.9998H61.8748V39.9998ZM79.3748 39.9998H70.6248V37.9998H79.3748V39.9998ZM92.4998 39.9998H88.1248V37.9998H92.4998C94.323 37.9998 96.1299 38.0706 97.9178 38.2095L97.7629 40.2035C96.0264 40.0686 94.2712 39.9998 92.4998 39.9998ZM118.146 45.0835C114.932 43.7506 111.592 42.6608 108.148 41.8369L108.614 39.8918C112.161 40.7405 115.602 41.8631 118.912 43.236L118.146 45.0835ZM136.013 56.0511C133.351 53.7755 130.509 51.7049 127.511 49.8637L128.557 48.1594C131.645 50.0555 134.572 52.1877 137.313 54.5309L136.013 56.0511ZM149.636 71.9892C147.795 68.991 145.724 66.1487 143.449 63.4867L144.969 62.1871C147.312 64.9281 149.444 67.8549 151.34 70.9426L149.636 71.9892ZM157.663 91.3515C156.839 87.9079 155.749 84.5676 154.416 81.3534L156.264 80.5873C157.637 83.8981 158.759 87.3389 159.608 90.8861L157.663 91.3515ZM159.5 107C159.5 105.229 159.431 103.473 159.296 101.737L161.29 101.582C161.429 103.37 161.5 105.177 161.5 107V111.784H159.5V107ZM159.5 130.92V121.352H161.5V130.92H159.5ZM159.5 150.057V140.489H161.5V150.057H159.5ZM159.5 169.193V159.625H161.5V169.193H159.5ZM159.5 188.33V178.761H161.5V188.33H159.5ZM159.5 207.466V197.898H161.5V207.466H159.5ZM159.5 226.602V217.034H161.5V226.602H159.5ZM159.5 245.739V236.17H161.5V245.739H159.5ZM159.5 264.875V255.307H161.5V264.875H159.5ZM159.5 284.011V274.443H161.5V284.011H159.5ZM159.5 303.148V293.58H161.5V303.148H159.5ZM159.5 317.5V312.716H161.5V317.5H159.5Z" fill="#5A6C9E"/>
</svg>
