<svg width="24" height="24" viewBox="0 0 24 24" fill="none" xmlns="http://www.w3.org/2000/svg">
<path d="M12.0977 22.1953C17.6348 22.1953 22.2051 17.625 22.2051 12.0977C22.2051 6.57031 17.625 2 12.0879 2C6.56055 2 2 6.57031 2 12.0977C2 17.625 6.57031 22.1953 12.0977 22.1953ZM12.0977 20.1836C7.61523 20.1836 4.03125 16.5801 4.03125 12.0977C4.03125 7.61523 7.61523 4.02148 12.0879 4.02148C16.5703 4.02148 20.1738 7.61523 20.1836 12.0977C20.1934 16.5801 16.5801 20.1836 12.0977 20.1836ZM7.55664 13.5723C8.36719 13.5723 9.03125 12.918 9.03125 12.0977C9.03125 11.2871 8.35742 10.623 7.55664 10.623C6.73633 10.623 6.07227 11.2871 6.07227 12.0977C6.07227 12.918 6.73633 13.5723 7.55664 13.5723ZM12.0879 13.5723C12.8984 13.5723 13.5625 12.918 13.5625 12.0977C13.5625 11.2871 12.8984 10.623 12.0879 10.623C11.2773 10.623 10.6133 11.2871 10.6133 12.0977C10.6133 12.918 11.2773 13.5723 12.0879 13.5723ZM16.6191 13.5723C17.4395 13.5723 18.0938 12.918 18.0938 12.0977C18.0938 11.2871 17.4395 10.623 16.6191 10.623C15.8086 10.623 15.1445 11.2871 15.1445 12.0977C15.1445 12.918 15.8086 13.5723 16.6191 13.5723Z" fill="#4589FF"/>
</svg>
