<svg width="24" height="24" viewBox="0 0 24 24" fill="none" xmlns="http://www.w3.org/2000/svg">
<path d="M12.2051 22.4199C6.60938 22.4199 2 17.8008 2 12.2051C2 6.60938 6.60938 2 12.2051 2C17.791 2 22.4102 6.60938 22.4102 12.2051C22.4102 17.8008 17.8008 22.4199 12.2051 22.4199ZM12.2051 20.125C16.5898 20.125 20.125 16.5898 20.125 12.2051C20.1152 7.82031 16.5898 4.29492 12.2051 4.29492C7.81055 4.29492 4.30469 7.82031 4.30469 12.2051C4.30469 16.5898 7.82031 20.125 12.2051 20.125ZM8.67969 13.2109C8.10352 13.2109 7.68359 12.791 7.68359 12.2148C7.68359 11.6289 8.10352 11.209 8.67969 11.209H11.1992V8.68945C11.1992 8.11328 11.6191 7.69336 12.1953 7.69336C12.7812 7.69336 13.2012 8.10352 13.2012 8.68945V11.209H15.7207C16.3066 11.209 16.7168 11.6289 16.7168 12.2148C16.7168 12.791 16.2969 13.2109 15.7207 13.2109H13.2012V15.7305C13.2012 16.3164 12.7812 16.7266 12.1953 16.7266C11.6191 16.7266 11.1992 16.3066 11.1992 15.7305V13.2109H8.67969Z" fill="#4589FF"/>
</svg>
