<svg width="32" height="20" viewBox="0 0 32 20" fill="none" xmlns="http://www.w3.org/2000/svg">
<path d="M12.6018 12.358C12.6018 12.5052 12.5959 12.6525 12.5855 12.7997C12.581 12.8681 12.5736 12.9365 12.5661 13.0049C12.5587 13.167 12.5617 13.0466 12.5661 13.0049C12.5632 13.0466 12.5542 13.0897 12.5468 13.1313C12.4992 13.4214 12.4293 13.7069 12.3386 13.985C12.2969 14.1114 12.2508 14.2349 12.2018 14.3583C12.1571 14.4728 12.2077 14.3524 12.2122 14.3345C12.2047 14.3628 12.1854 14.397 12.172 14.4252C12.1378 14.4996 12.1021 14.574 12.0649 14.6468C11.9385 14.8937 11.7957 15.1317 11.6351 15.3592C11.6158 15.386 11.5979 15.4128 11.5786 15.438C11.5741 15.444 11.479 15.5734 11.5429 15.4871C11.5979 15.4128 11.534 15.4975 11.5206 15.5154C11.4998 15.5407 11.4805 15.5659 11.4596 15.5912C11.3659 15.7043 11.2693 15.8128 11.1666 15.9169C11.0715 16.0166 10.9718 16.1118 10.8692 16.204C10.8216 16.2471 10.7725 16.2902 10.722 16.3319C10.6848 16.3631 10.487 16.5118 10.6283 16.4092C10.4022 16.5713 10.1761 16.7275 9.93224 16.8613C9.81029 16.9282 9.68536 16.9922 9.55895 17.0502C9.5292 17.0636 9.49797 17.0755 9.46972 17.0904C9.38494 17.132 9.58126 17.0472 9.49351 17.0814C9.42361 17.1082 9.3552 17.1365 9.2853 17.1617C9.01165 17.2614 8.72907 17.3417 8.44204 17.3997C8.36768 17.4146 8.29183 17.428 8.21747 17.4398C8.20408 17.4413 8.11782 17.4517 8.11633 17.4547C8.11782 17.4488 8.28439 17.4354 8.14162 17.4503C7.98695 17.4666 7.83376 17.48 7.6776 17.4845C7.38164 17.4949 7.08866 17.48 6.79567 17.4503C6.65439 17.4354 6.81947 17.4488 6.82096 17.4547C6.82096 17.4517 6.73321 17.4413 6.71982 17.4398C6.64398 17.428 6.56961 17.4146 6.49525 17.3997C6.34802 17.3699 6.20078 17.3343 6.05503 17.2926C5.9197 17.2539 5.78436 17.2108 5.65199 17.1617C5.58953 17.1394 5.52855 17.1141 5.46758 17.0904C5.43188 17.0755 5.35455 17.0621 5.49137 17.1008C5.44527 17.0874 5.39916 17.0606 5.35603 17.0398C5.10469 16.9223 4.86079 16.787 4.62878 16.6338C4.52021 16.5624 4.4161 16.485 4.30902 16.4092C4.45031 16.5103 4.26738 16.375 4.23466 16.3467C4.17815 16.3006 4.12312 16.253 4.06809 16.204C3.85691 16.0136 3.6591 15.8098 3.47766 15.5912C3.45684 15.5659 3.43602 15.5407 3.41669 15.5154C3.40181 15.4975 3.33786 15.4128 3.39438 15.4871C3.45833 15.5734 3.36314 15.444 3.35868 15.438C3.33935 15.4113 3.32002 15.386 3.30217 15.3592C3.2174 15.2387 3.13709 15.1168 3.06272 14.9904C2.9958 14.8774 2.93185 14.7628 2.87236 14.6468C2.84261 14.5888 2.81436 14.5293 2.7861 14.4699C2.77271 14.4401 2.75933 14.4104 2.74446 14.3806C2.67307 14.2274 2.79651 14.516 2.73405 14.3583C2.62994 14.0951 2.54071 13.8274 2.47527 13.5522C2.44106 13.4124 2.4128 13.2726 2.38901 13.1313C2.38306 13.0971 2.3786 13.0644 2.37265 13.0302C2.3548 12.9246 2.38901 13.1983 2.37265 13.0302C2.36521 12.9529 2.35629 12.877 2.35034 12.7997C2.32803 12.4963 2.32803 12.1929 2.35183 11.8895C2.35778 11.8211 2.36521 11.7527 2.37116 11.6843C2.38603 11.5415 2.37116 11.7081 2.3667 11.7095C2.36967 11.7095 2.38009 11.6218 2.38157 11.6084C2.40537 11.4582 2.43511 11.3095 2.47081 11.1622C2.53922 10.8782 2.64035 10.6075 2.74 10.3339C2.77271 10.2446 2.68794 10.4424 2.73107 10.3577C2.74594 10.3279 2.75784 10.2982 2.77123 10.2684C2.798 10.2089 2.82774 10.1494 2.856 10.0914C2.92144 9.96057 2.99282 9.83118 3.06867 9.70476C3.14006 9.58578 3.21591 9.46978 3.29622 9.35675C3.3334 9.30321 3.37356 9.25264 3.41074 9.1991C3.3096 9.34039 3.45833 9.14259 3.48807 9.10541C3.66505 8.89422 3.85691 8.69493 4.06363 8.51052C4.11122 8.46739 4.1603 8.42426 4.21087 8.38261C4.2421 8.35584 4.27333 8.33056 4.30456 8.30528C4.32241 8.29041 4.40718 8.22646 4.33282 8.28297C4.25846 8.33948 4.34323 8.27553 4.36256 8.26215C4.38933 8.24282 4.41462 8.22348 4.44139 8.20563C4.50831 8.15804 4.57524 8.11194 4.64365 8.06881C4.88309 7.91265 5.13444 7.77434 5.39619 7.65536C5.42445 7.64197 5.45717 7.62264 5.48691 7.6152C5.46906 7.61966 5.3486 7.67023 5.46311 7.62561C5.52409 7.60182 5.58656 7.57653 5.64753 7.55423C5.78733 7.50217 5.93011 7.45756 6.07437 7.4174C6.20376 7.38171 6.33463 7.34899 6.46551 7.32222C6.53987 7.30735 6.61423 7.29247 6.69008 7.28058C6.72429 7.27463 6.75701 7.27017 6.79121 7.26422C6.65885 7.27909 6.87598 7.25083 6.79121 7.26422C7.09312 7.23298 7.39503 7.21811 7.69991 7.23001C7.84566 7.23596 7.99141 7.24934 8.13716 7.26422C8.17285 7.26868 8.26655 7.26868 8.11187 7.25975C8.14459 7.26124 8.18029 7.27016 8.213 7.27463C8.29629 7.28801 8.37957 7.30288 8.46286 7.32073C8.74097 7.37725 9.01462 7.45607 9.28084 7.55274C9.3433 7.57505 9.40428 7.60033 9.46525 7.62413C9.57977 7.66874 9.4593 7.61818 9.44146 7.61372C9.46971 7.62115 9.50392 7.64049 9.53218 7.65387C9.66603 7.71485 9.79839 7.78177 9.92778 7.85316C10.0497 7.92009 10.1687 7.99147 10.2847 8.06732C10.3457 8.10748 10.4067 8.14763 10.4662 8.19076C10.4929 8.21009 10.5197 8.22794 10.545 8.24728C10.5613 8.25917 10.6744 8.34246 10.5941 8.28297C10.5197 8.22794 10.6045 8.29189 10.6223 8.30528C10.6536 8.33056 10.6848 8.35584 10.716 8.38261C10.7651 8.42426 10.8142 8.46739 10.8632 8.51052C10.9718 8.60867 11.0774 8.70981 11.1785 8.8154C11.2678 8.90909 11.3555 9.00576 11.4388 9.10541C11.4805 9.15449 11.5206 9.20654 11.5622 9.25711C11.4537 9.12028 11.6069 9.31957 11.6321 9.35675C11.7972 9.59025 11.9445 9.83564 12.0724 10.0914C12.1021 10.1494 12.1304 10.2089 12.1571 10.2684C12.1705 10.2982 12.1824 10.3294 12.1973 10.3577C12.1378 10.206 12.2434 10.4499 12.1973 10.3577C12.2479 10.4885 12.2984 10.6194 12.3416 10.7547C12.4323 11.0343 12.5007 11.3199 12.5468 11.6099C12.5498 11.6233 12.5572 11.7095 12.5617 11.711C12.5423 11.7021 12.5468 11.5802 12.5572 11.6858C12.5646 11.7542 12.5721 11.8226 12.5765 11.891C12.5884 12.0472 12.5944 12.2033 12.5959 12.3595C12.5974 12.709 12.9022 13.0451 13.2651 13.0287C13.628 13.0124 13.9359 12.7343 13.9344 12.3595C13.9284 11.0418 13.5284 9.71815 12.758 8.64288C11.9876 7.56761 10.9004 6.72733 9.6348 6.2648C7.14517 5.35461 4.19897 6.15326 2.51245 8.1982C1.64837 9.25413 1.12784 10.5242 1.01927 11.891C0.913676 13.2117 1.24533 14.5769 1.93392 15.7087C2.59573 16.7959 3.58772 17.7031 4.75073 18.2281C6.01934 18.7992 7.40693 18.9657 8.77369 18.6966C11.3451 18.1909 13.457 16.0091 13.8496 13.4139C13.9031 13.0644 13.9374 12.7149 13.9388 12.361C13.9403 12.007 13.6295 11.6753 13.2696 11.6917C12.9097 11.7081 12.6018 11.9862 12.6003 12.361L12.6018 12.358Z" fill="#4589FF"/>
<path d="M30.5051 12.358C30.5051 12.5052 30.4992 12.6525 30.4887 12.7997C30.4843 12.8681 30.4769 12.9365 30.4694 13.0049C30.462 13.167 30.465 13.0466 30.4694 13.0049C30.4664 13.0466 30.4575 13.0897 30.4501 13.1313C30.4025 13.4214 30.3326 13.7069 30.2419 13.985C30.2002 14.1114 30.1541 14.2349 30.105 14.3583C30.0604 14.4728 30.111 14.3524 30.1155 14.3345C30.108 14.3628 30.0887 14.397 30.0753 14.4252C30.0411 14.4996 30.0054 14.574 29.9682 14.6468C29.8418 14.8937 29.699 15.1317 29.5384 15.3592C29.5191 15.386 29.5012 15.4128 29.4819 15.438C29.4774 15.444 29.3822 15.5734 29.4462 15.4871C29.5012 15.4128 29.4373 15.4975 29.4239 15.5154C29.4031 15.5407 29.3837 15.5659 29.3629 15.5912C29.2692 15.7043 29.1726 15.8128 29.0699 15.9169C28.9747 16.0166 28.8751 16.1118 28.7725 16.204C28.7249 16.2471 28.6758 16.2902 28.6252 16.3319C28.5881 16.3631 28.3903 16.5118 28.5316 16.4092C28.3055 16.5713 28.0794 16.7275 27.8355 16.8613C27.7136 16.9282 27.5886 16.9922 27.4622 17.0502C27.4325 17.0636 27.4013 17.0755 27.373 17.0904C27.2882 17.132 27.4845 17.0472 27.3968 17.0814C27.3269 17.1082 27.2585 17.1365 27.1886 17.1617C26.9149 17.2614 26.6324 17.3417 26.3453 17.3997C26.271 17.4146 26.1951 17.428 26.1208 17.4398C26.1074 17.4413 26.0211 17.4517 26.0196 17.4547C26.0211 17.4488 26.1877 17.4354 26.0449 17.4503C25.8902 17.4666 25.737 17.48 25.5809 17.4845C25.2849 17.4949 24.9919 17.48 24.699 17.4503C24.5577 17.4354 24.7228 17.4488 24.7242 17.4547C24.7242 17.4517 24.6365 17.4413 24.6231 17.4398C24.5473 17.428 24.4729 17.4146 24.3985 17.3997C24.2513 17.3699 24.1041 17.3343 23.9583 17.2926C23.823 17.2539 23.6876 17.2108 23.5553 17.1617C23.4928 17.1394 23.4318 17.1141 23.3709 17.0904C23.3352 17.0755 23.2578 17.0621 23.3947 17.1008C23.3486 17.0874 23.3024 17.0606 23.2593 17.0398C23.008 16.9223 22.7641 16.787 22.5321 16.6338C22.4235 16.5624 22.3194 16.485 22.2123 16.4092C22.3536 16.5103 22.1707 16.375 22.1379 16.3467C22.0814 16.3006 22.0264 16.253 21.9714 16.204C21.7602 16.0136 21.5624 15.8098 21.3809 15.5912C21.3601 15.5659 21.3393 15.5407 21.32 15.5154C21.3051 15.4975 21.2411 15.4128 21.2977 15.4871C21.3616 15.5734 21.2664 15.444 21.262 15.438C21.2426 15.4113 21.2233 15.386 21.2055 15.3592C21.1207 15.2387 21.0404 15.1168 20.966 14.9904C20.8991 14.8774 20.8351 14.7628 20.7756 14.6468C20.7459 14.5888 20.7176 14.5293 20.6894 14.4699C20.676 14.4401 20.6626 14.4104 20.6477 14.3806C20.5764 14.2274 20.6998 14.516 20.6373 14.3583C20.5332 14.0951 20.444 13.8274 20.3786 13.5522C20.3443 13.4124 20.3161 13.2726 20.2923 13.1313C20.2863 13.0971 20.2819 13.0644 20.2759 13.0302C20.2581 12.9246 20.2923 13.1983 20.2759 13.0302C20.2685 12.9529 20.2596 12.877 20.2536 12.7997C20.2313 12.4963 20.2313 12.1929 20.2551 11.8895C20.2611 11.8211 20.2685 11.7527 20.2744 11.6843C20.2893 11.5415 20.2744 11.7081 20.27 11.7095C20.273 11.7095 20.2834 11.6218 20.2849 11.6084C20.3087 11.4582 20.3384 11.3095 20.3741 11.1622C20.4425 10.8782 20.5436 10.6075 20.6433 10.3339C20.676 10.2446 20.5912 10.4424 20.6344 10.3577C20.6492 10.3279 20.6611 10.2982 20.6745 10.2684C20.7013 10.2089 20.731 10.1494 20.7593 10.0914C20.8247 9.96057 20.8961 9.83118 20.972 9.70476C21.0433 9.58578 21.1192 9.46978 21.1995 9.35675C21.2367 9.30321 21.2768 9.25264 21.314 9.1991C21.2129 9.34039 21.3616 9.14259 21.3914 9.10541C21.5683 8.89422 21.7602 8.69493 21.9669 8.51052C22.0145 8.46739 22.0636 8.42426 22.1142 8.38261C22.1454 8.35584 22.1766 8.33056 22.2078 8.30528C22.2257 8.29041 22.3105 8.22646 22.2361 8.28297C22.1617 8.33948 22.2465 8.27553 22.2659 8.26215C22.2926 8.24282 22.3179 8.22348 22.3447 8.20563C22.4116 8.15804 22.4785 8.11194 22.5469 8.06881C22.7864 7.91265 23.0377 7.77434 23.2995 7.65536C23.3277 7.64197 23.3605 7.62264 23.3902 7.6152C23.3723 7.61966 23.2519 7.67023 23.3664 7.62561C23.4274 7.60182 23.4898 7.57653 23.5508 7.55423C23.6906 7.50217 23.8334 7.45756 23.9777 7.4174C24.107 7.38171 24.2379 7.34899 24.3688 7.32222C24.4432 7.30735 24.5175 7.29247 24.5934 7.28058C24.6276 7.27463 24.6603 7.27017 24.6945 7.26422C24.5621 7.27909 24.7793 7.25083 24.6945 7.26422C24.9964 7.23298 25.2983 7.21811 25.6032 7.23001C25.7489 7.23596 25.8947 7.24934 26.0404 7.26422C26.0761 7.26868 26.1698 7.26868 26.0152 7.25975C26.0479 7.26124 26.0836 7.27016 26.1163 7.27463C26.1996 7.28801 26.2829 7.30288 26.3661 7.32073C26.6443 7.37725 26.9179 7.45607 27.1841 7.55274C27.2466 7.57505 27.3076 7.60033 27.3685 7.62413C27.4831 7.66874 27.3626 7.61818 27.3447 7.61372C27.373 7.62115 27.4072 7.64049 27.4355 7.65387C27.5693 7.71485 27.7017 7.78177 27.8311 7.85316C27.953 7.92009 28.072 7.99147 28.188 8.06732C28.249 8.10748 28.31 8.14763 28.3694 8.19076C28.3962 8.21009 28.423 8.22794 28.4483 8.24728C28.4646 8.25917 28.5777 8.34246 28.4973 8.28297C28.423 8.22794 28.5078 8.29189 28.5256 8.30528C28.5568 8.33056 28.5881 8.35584 28.6193 8.38261C28.6684 8.42426 28.7175 8.46739 28.7665 8.51052C28.8751 8.60867 28.9807 8.70981 29.0818 8.8154C29.1711 8.90909 29.2588 9.00576 29.3421 9.10541C29.3837 9.15449 29.4239 9.20654 29.4655 9.25711C29.357 9.12028 29.5101 9.31957 29.5354 9.35675C29.7005 9.59025 29.8478 9.83564 29.9757 10.0914C30.0054 10.1494 30.0337 10.2089 30.0604 10.2684C30.0738 10.2982 30.0857 10.3294 30.1006 10.3577C30.0411 10.206 30.1467 10.4499 30.1006 10.3577C30.1511 10.4885 30.2017 10.6194 30.2448 10.7547C30.3356 11.0343 30.404 11.3199 30.4501 11.6099C30.4531 11.6233 30.4605 11.7095 30.465 11.711C30.4456 11.7021 30.4501 11.5802 30.4605 11.6858C30.4679 11.7542 30.4754 11.8226 30.4798 11.891C30.4917 12.0472 30.4977 12.2033 30.4992 12.3595C30.5006 12.709 30.8055 13.0451 31.1684 13.0287C31.5313 13.0124 31.8392 12.7343 31.8377 12.3595C31.8317 11.0418 31.4317 9.71815 30.6613 8.64288C29.8909 7.56761 28.8037 6.72733 27.5381 6.2648C25.0485 5.35461 22.1023 6.15326 20.4157 8.1982C19.5442 9.25562 19.0252 10.5242 18.9151 11.891C18.8095 13.2117 19.1412 14.5769 19.8298 15.7087C20.4916 16.7959 21.4836 17.7031 22.6466 18.2281C23.9152 18.7992 25.3028 18.9657 26.6695 18.6966C29.241 18.1909 31.3528 16.0091 31.7455 13.4139C31.799 13.0644 31.8332 12.7149 31.8347 12.361C31.8362 12.007 31.5253 11.6753 31.1654 11.6917C30.8055 11.7081 30.4977 11.9862 30.4962 12.361L30.5051 12.358Z" fill="#4589FF"/>
<path d="M24.3361 1.14277C23.3798 1.13236 22.4235 1.12047 21.4672 1.11006C21.0344 1.10559 20.7043 1.54135 20.8217 1.95778C21.1965 3.28439 21.5713 4.611 21.9461 5.93612C22.544 8.05096 23.1418 10.1673 23.7382 12.2821C23.8765 12.7699 24.0133 13.2578 24.1517 13.7456C24.2468 14.0817 24.6291 14.3241 24.9756 14.2126C25.3221 14.101 25.5452 13.75 25.4426 13.3886C25.0678 12.062 24.693 10.7354 24.3182 9.41029C23.7204 7.29545 23.1225 5.17912 22.5261 3.06428C22.3878 2.57646 22.251 2.08865 22.1127 1.60084L21.4672 2.44856C22.4235 2.45897 23.3798 2.47087 24.3361 2.48128C24.6856 2.48574 25.0217 2.17045 25.0053 1.81203C24.989 1.45361 24.7109 1.14724 24.3361 1.14277Z" fill="#4589FF"/>
<path d="M9.52326 2.33851H12.3118L11.6664 1.84772C12.053 3.097 12.4397 4.34627 12.8264 5.59554L14.6765 11.5683C14.8178 12.0248 14.9591 12.4814 15.1004 12.938C15.2045 13.2726 15.5718 13.5195 15.9243 13.405C16.2768 13.2905 16.5028 12.9395 16.3913 12.5811C16.0046 11.3318 15.6179 10.0825 15.2312 8.83324L13.3811 2.86053C13.2398 2.40395 13.0986 1.94737 12.9573 1.49079C12.8695 1.20821 12.6122 1 12.3118 1H9.52326C9.17376 1 8.83764 1.30786 8.854 1.66925C8.87036 2.03065 9.14847 2.33851 9.52326 2.33851Z" fill="#4589FF"/>
<path d="M12.9959 12.0888H8.83467C9.24217 11.4686 9.64967 10.8484 10.0572 10.2283C10.8365 9.04294 11.6158 7.85762 12.3951 6.6723C12.3267 6.45368 12.2598 6.23505 12.1913 6.01643C12.0887 5.68329 11.9846 5.35015 11.882 5.0185C11.8314 5.09583 11.7794 5.17317 11.7288 5.25199C10.8052 6.65594 9.88168 8.05988 8.95959 9.46383C8.32306 10.432 7.66124 11.3898 7.04702 12.3729C7.0366 12.3892 7.02619 12.4041 7.01578 12.4204C6.73172 12.8517 7.1065 13.4273 7.59432 13.4273H12.9959V12.0888Z" fill="#4589FF"/>
<path d="M13.4882 3.60712C13.3841 3.60712 13.2785 3.60265 13.1729 3.60712C13.0539 3.61158 12.9558 3.64281 12.8725 3.68891L13.3484 5.22522C13.4094 5.13153 13.4704 5.03932 13.5328 4.94562H20.0841C19.6766 5.5658 19.2691 6.18597 18.8616 6.80615C17.8607 8.32907 16.8598 9.852 15.8574 11.3749C15.7205 11.5831 15.5837 11.7913 15.4469 11.9996C15.551 12.3342 15.6551 12.6703 15.7577 13.0049C15.8038 13.1522 15.7875 13.2994 15.731 13.4288H15.7473C15.9749 13.4288 16.1935 13.2979 16.3169 13.109C16.3199 13.1046 16.3229 13.1016 16.3258 13.0971C16.9549 12.1408 17.5826 11.186 18.2117 10.2298C19.2022 8.72468 20.1912 7.21811 21.1817 5.71303L20.5868 3.60712H13.4882Z" fill="#4589FF"/>
</svg>
