<svg width="22" height="18" viewBox="0 0 22 18" fill="none" xmlns="http://www.w3.org/2000/svg">
<g clip-path="url(#clip0_321_3874)">
<path d="M6.26074 13.4639C6.26074 14.0303 6.63184 14.3818 7.21777 14.3818H9.28809C9.87402 14.3818 10.2354 14.0303 10.2354 13.4639V1.39355C10.2354 0.827148 9.87402 0.46582 9.28809 0.46582H7.21777C6.63184 0.46582 6.26074 0.827148 6.26074 1.39355V13.4639ZM11.3584 13.4639C11.3584 14.0303 11.7197 14.3818 12.3057 14.3818H14.376C14.9619 14.3818 15.333 14.0303 15.333 13.4639V3.59082C15.333 3.01465 14.9619 2.66309 14.376 2.66309H12.3057C11.7197 2.66309 11.3584 3.01465 11.3584 3.59082V13.4639ZM1.17285 13.4639C1.17285 14.0303 1.54395 14.3818 2.12988 14.3818H4.2002C4.77637 14.3818 5.14746 14.0303 5.14746 13.4639V5.6123C5.14746 5.0459 4.77637 4.68457 4.2002 4.68457H2.12988C1.54395 4.68457 1.17285 5.0459 1.17285 5.6123V13.4639ZM16.4463 13.4639C16.4463 14.0303 16.8174 14.3818 17.4033 14.3818H19.4736C20.0498 14.3818 20.4209 14.0303 20.4209 13.4639V7.58496C20.4209 7.01855 20.0498 6.65723 19.4736 6.65723H17.4033C16.8174 6.65723 16.4463 7.01855 16.4463 7.58496V13.4639ZM0.196289 16.8135C0.196289 17.3604 0.635742 17.7803 1.18262 17.7803H20.4307C20.9678 17.7803 21.4072 17.3604 21.4072 16.8135C21.4072 16.2568 20.9678 15.8369 20.4307 15.8369H1.18262C0.635742 15.8369 0.196289 16.2568 0.196289 16.8135Z" fill="white"/>
</g>
<defs>
<clipPath id="clip0_321_3874">
<rect width="22" height="18" fill="white"/>
</clipPath>
</defs>
</svg>
