<svg width="12" height="12" viewBox="0 0 12 12" fill="none" xmlns="http://www.w3.org/2000/svg">
<path d="M3.64795 11.8271C2.9873 11.8271 2.58447 11.4565 2.55762 10.7905L2.21387 2.94336H1.40283C1.18799 2.94336 1 2.76074 1 2.53516C1 2.31494 1.18799 2.13232 1.40283 2.13232H3.7876V1.31055C3.7876 0.499512 4.31934 0 5.17871 0H7.21436C8.07373 0 8.60547 0.499512 8.60547 1.31055V2.13232H11.001C11.2212 2.13232 11.4038 2.31494 11.4038 2.53516C11.4038 2.75537 11.2212 2.94336 11.001 2.94336H10.1953L9.85156 10.7905C9.82471 11.4565 9.42188 11.8271 8.75586 11.8271H3.64795ZM4.75977 1.36426V2.13232H7.63867V1.36426C7.63867 1.0957 7.45068 0.913086 7.16064 0.913086H5.23779C4.94775 0.913086 4.75977 1.0957 4.75977 1.36426ZM4.50195 10.291C4.70605 10.291 4.84033 10.1621 4.83496 9.97412L4.67383 4.11963C4.66846 3.93164 4.52881 3.80811 4.34082 3.80811C4.13135 3.80811 3.99707 3.93701 4.00244 4.125L4.16895 9.97412C4.17432 10.1675 4.30859 10.291 4.50195 10.291ZM6.20459 10.291C6.40869 10.291 6.54834 10.1621 6.54834 9.97412V4.125C6.54834 3.93701 6.40869 3.80811 6.20459 3.80811C6.00049 3.80811 5.85547 3.93701 5.85547 4.125V9.97412C5.85547 10.1621 6.00049 10.291 6.20459 10.291ZM7.90186 10.291C8.09521 10.291 8.22949 10.1675 8.23486 9.97412L8.40137 4.125C8.40674 3.93701 8.26709 3.80811 8.06299 3.80811C7.875 3.80811 7.73535 3.93164 7.72998 4.125L7.56885 9.97412C7.56348 10.1621 7.69775 10.291 7.90186 10.291Z" fill="white"/>
</svg>
