<svg width="24" height="24" viewBox="0 0 24 24" fill="none" xmlns="http://www.w3.org/2000/svg">
<path d="M12 22C6.53922 22 2 17.4608 2 12C2 6.52941 6.52941 2 11.9902 2C17.4608 2 22 6.52941 22 12C22 17.4608 17.4706 22 12 22ZM12 20.3333C16.6275 20.3333 20.3431 16.6275 20.3333 12C20.3235 7.37255 16.6176 3.66667 11.9902 3.66667C7.36275 3.66667 3.67647 7.37255 3.67647 12C3.67647 16.6275 7.37255 20.3333 12 20.3333ZM9.07843 16.4902C8.66667 16.4902 8.35294 16.1961 8.35294 15.8137C8.35294 15.6176 8.40196 15.4902 8.51961 15.3137L11.0196 11.8627L8.66667 8.61765C8.5098 8.41177 8.46078 8.27451 8.46078 8.04902C8.46078 7.65686 8.80392 7.33333 9.22549 7.33333C9.55882 7.33333 9.7451 7.44118 9.97059 7.7549L12.0588 10.7941H12.1078L14.1569 7.76471C14.3726 7.44118 14.5686 7.33333 14.8726 7.33333C15.2843 7.33333 15.6078 7.62745 15.6078 8.01961C15.6078 8.19608 15.5588 8.35294 15.4216 8.53922L12.9412 11.9118L15.402 15.2647C15.5294 15.4314 15.5882 15.5882 15.5882 15.7843C15.5882 16.1961 15.2549 16.4902 14.8137 16.4902C14.5098 16.4902 14.3333 16.3824 14.0882 16.0392L11.9706 13.0294H11.9314L9.81373 16.0392C9.55882 16.3824 9.39216 16.4902 9.07843 16.4902Z" fill="black"/>
</svg>
