<svg width="102" height="85" viewBox="0 0 102 85" fill="none" xmlns="http://www.w3.org/2000/svg">
<g clip-path="url(#clip0_320_3213)">
<path d="M80.1314 44.5583H20.8148C19.5175 44.5583 18.3013 43.9401 17.56 42.9136C16.8186 41.8871 16.6449 40.569 17.0851 39.3909L27.3824 12.0957C27.9499 10.591 29.4441 9.57617 31.1005 9.57617H69.8109C71.4673 9.57617 72.9615 10.591 73.5291 12.0957L83.8264 39.3909C84.2665 40.569 84.0928 41.8871 83.3515 42.9136C82.6102 43.9401 81.3939 44.5583 80.0966 44.5583H80.1314ZM31.1237 12.8889C30.892 12.8889 30.6835 13.0289 30.6024 13.2389L20.3051 40.534C20.2241 40.7673 20.3051 40.9423 20.3746 41.024C20.4325 41.1056 20.5715 41.2572 20.8264 41.2572H80.1314C80.3862 41.2572 80.5252 41.1173 80.5831 41.024C80.641 40.9306 80.7337 40.7557 80.6526 40.534L70.3553 13.2389C70.2743 13.0289 70.0658 12.8889 69.8341 12.8889H31.1237Z" fill="white"/>
<path d="M70.9226 43.5094L59.1079 13.0415L62.3048 11.875L74.1195 42.343L70.9226 43.5094Z" fill="white"/>
<path d="M61.2857 14.8955L43.4479 38.2481L28.7722 16.8085L26.583 19.4564L43.0193 44.4186L63.5676 18.1499L61.2857 14.8955Z" fill="white"/>
<path d="M32.2586 2.81152H23.803C22.8995 2.81152 22.1698 3.53473 22.1582 4.44457C22.1582 5.36607 22.8879 6.11261 23.803 6.11261H32.2586C33.1621 6.11261 33.9034 5.37774 33.9034 4.4679C33.9034 3.55806 33.1736 2.81152 32.2586 2.81152Z" fill="white"/>
<path d="M72.5212 10.8831L74.5714 3.33608L80.9073 3.31275C81.8108 3.31275 82.5521 2.56621 82.5521 1.65637C82.5521 0.746535 81.8108 0 80.9073 0L71.9537 0.0233292L69 10.8831H72.5328H72.5212Z" fill="white"/>
<path d="M22.3552 57.7979C11.8842 57.7979 3.35907 49.2128 3.35907 38.668C3.35907 28.1232 11.6062 19.8296 21.8456 19.5497L23.1197 16.1786C22.8649 16.1786 22.6216 16.1553 22.3668 16.1553C10.0309 16.1553 0 26.2452 0 38.6563C0 51.0674 10.0309 61.169 22.3552 61.169C31.4479 61.169 39.278 55.6633 42.7645 47.8013H39.0347C35.8031 53.7503 29.5483 57.7979 22.3552 57.7979Z" fill="white"/>
<path d="M79.6446 16.1552C79.135 16.1552 78.6369 16.1785 78.1504 16.2135L79.4014 19.538C79.4825 19.538 79.5635 19.538 79.6446 19.538C90.1157 19.538 98.6408 28.1231 98.6408 38.6679C98.6408 49.2127 90.1157 57.7979 79.6446 57.7979C72.4516 57.7979 66.1852 53.7502 62.9651 47.8013H59.2354C62.7218 55.6632 70.552 61.1689 79.6446 61.1689C91.9689 61.1689 102 51.0674 102 38.6562C102 26.2451 91.9689 16.1436 79.6446 16.1436V16.1552Z" fill="white"/>
<path d="M74.4324 16.5283C70.2857 17.6365 66.5907 19.8061 63.6255 22.7222C63.8687 22.7689 64.0541 22.9555 64.1583 23.2005C64.4247 23.8187 64.6216 24.4719 64.7259 25.1485L66.4981 25.0785C69.0927 22.6406 72.3012 20.8559 75.8803 19.9927L74.4324 16.5283Z" fill="white"/>
<path d="M7.70264 69.2881H10.1351L12.3011 72.3442C13.4131 73.8956 15.8455 77.3833 15.8455 77.3833C15.8455 77.3833 18.2779 73.9189 19.3551 72.3675L21.5212 69.2881H23.9536V85.0003H21.1621V74.0939C21.1621 74.0939 20.6756 74.9687 19.6679 76.4502L15.8455 81.9792L11.9652 76.4035C11.0038 74.9921 10.4941 74.1056 10.4941 74.1056V85.012H7.70264V69.2997V69.2881Z" fill="white"/>
<path d="M31.9228 77.7449L25.8765 69.2881H29.0734L32.1313 73.5807C32.8263 74.5488 33.3128 75.3537 33.3128 75.3537C33.3128 75.3537 33.8919 74.5022 34.5406 73.5807L37.5058 69.2881H40.7027L34.7143 77.7216V84.9886H31.9228V77.7449Z" fill="white"/>
<path d="M42.6255 69.2881H49.8996C52.4711 69.2881 54.5676 70.5012 54.5676 73.2657C54.5676 74.5022 53.7915 75.6453 52.9344 76.0769C54.7182 76.4618 56.0386 78.0599 56.0386 80.1012C56.0386 83.3206 53.6062 85.0003 50.1197 85.0003H42.6371V69.2881H42.6255ZM49.749 75.2254C50.9537 75.2254 51.6487 74.5721 51.6487 73.499C51.6487 72.4259 50.9768 71.7027 49.6216 71.7027H45.4054V75.2137H49.7375L49.749 75.2254ZM49.9228 82.5741C51.8687 82.5741 53.1197 81.7692 53.1197 80.1478C53.1197 78.5265 51.9614 77.6283 50.1776 77.6283H45.417V82.5741H49.9228Z" fill="white"/>
<path d="M58.7954 69.2881H61.5869V85.0003H58.7954V69.2881Z" fill="white"/>
<path d="M64.911 69.2881H67.7025V78.5731C67.7025 78.5731 68.7102 77.115 69.382 76.2985L74.9651 69.2881H78.2662L72.5095 76.6368L78.8685 85.0003H75.5905L70.7488 78.5731L67.6909 82.2825V85.0003H64.8994V69.2881H64.911Z" fill="white"/>
<path d="M80.8145 69.2881H92.9187V71.7143H83.606V75.5403H92.3975V77.9432H83.606V82.5741H93.2546V85.0003H80.8145V69.2881Z" fill="white"/>
</g>
<defs>
<clipPath id="clip0_320_3213">
<rect width="102" height="85" fill="white"/>
</clipPath>
</defs>
</svg>
