<svg width="370" height="325" viewBox="0 0 370 325" fill="none" xmlns="http://www.w3.org/2000/svg">
<rect x="1" y="1" width="368" height="323" rx="4" fill="#121726" stroke="#5A6C9E" stroke-width="2" stroke-dasharray="10 10"/>
<mask id="mask0_320_3211" style="mask-type:alpha" maskUnits="userSpaceOnUse" x="2" y="150" width="366" height="173">
<rect x="2" y="150" width="366" height="173" rx="5" fill="#222C48"/>
</mask>
<g mask="url(#mask0_320_3211)">
<path d="M206.766 167.836C77.6924 139.865 2.2623 194.855 -19.3186 225.846L-43.2121 320.036L432.316 361.307L455.081 99.3331C426.09 133.822 335.839 195.806 206.766 167.836Z" fill="#222C48"/>
</g>
<rect x="45" y="239" width="184" height="11" fill="#5A6C9E"/>
<rect x="45" y="259" width="281" height="11" fill="#5A6C9E"/>
<rect x="45" y="279" width="281" height="11" fill="#5A6C9E"/>
<path d="M251.827 51.819C261.07 55.0445 263.572 66.5751 256.335 72.8046C253.887 74.8829 251.77 75.8646 248.376 76.4116L246.038 76.793V74.8801C246.038 73.0766 246.15 72.9112 248.264 72.5858C257.338 71.1105 259.675 60.3989 251.884 56.0795C249.824 54.9323 248.99 54.8229 239.747 54.8229C234.347 54.8229 229.893 55.0417 229.893 55.3138C229.893 56.4076 261.293 128.604 263.072 131.554C265.855 136.199 272.258 144.397 274.929 146.748C277.489 148.989 277.935 151.283 276.209 152.815C274.038 154.728 272.258 154.018 267.747 149.483C259.453 141.175 256.555 136.036 245.978 111.553C240.801 99.5288 236.347 89.3081 236.07 88.8733C235.736 88.2731 228.721 96.2528 210.462 117.948C185.802 147.135 185.245 147.845 185.913 149.32C186.248 150.195 186.693 152.052 186.916 153.474L187.305 156.043L193.708 158.393L200.11 160.688L200.276 164.567L200.442 168.502H197.102H193.762L193.596 165.386L193.43 162.326L189.756 161.122L186.082 159.866L184.191 162.379C179.236 168.937 169.102 169.321 163.648 163.198C162.591 161.995 161.422 160.629 161.142 160.138C160.642 159.319 156.188 158.825 130.245 156.531C113.543 155.056 99.5143 153.69 98.9572 153.471C98.4572 153.252 97.7315 152.377 97.3972 151.505C96.7858 150.192 96.8401 149.701 97.7315 148.445C98.2886 147.57 108.754 134.783 121.003 119.97C133.305 105.105 143.382 92.6991 143.494 92.3709C143.551 91.9895 141.602 86.579 139.151 80.2934C136.7 74.0078 134.697 68.3253 134.697 67.669C134.697 66.0843 135.811 64.7716 137.537 64.3901C140.208 63.7338 141.434 65.7028 145.888 77.3428C148.171 83.3002 150.231 88.1637 150.565 88.1637C151.622 88.1637 227.224 70.2382 227.504 69.91C227.727 69.7445 226.447 66.2469 224.721 62.2052C222.939 58.1607 221.547 54.4443 221.547 54.0067C221.547 53.5692 222.047 52.6941 222.662 52.0938C223.719 51.0561 224.499 51 236.69 51C246.261 51.0533 250.213 51.272 251.827 51.819ZM198.605 84.338C181.959 88.2731 164.922 92.2616 160.694 93.246C153.679 94.8308 153.065 95.1056 153.288 96.0873C153.454 96.6875 157.462 107.018 162.139 119.042L170.714 140.903L174.108 141.284C175.945 141.503 178.005 141.94 178.673 142.269C179.342 142.597 179.953 142.815 180.011 142.706C180.122 142.597 191.756 128.825 205.953 111.991L231.673 81.4939L230.67 79.3622C230.17 78.159 229.501 77.2306 229.279 77.2306C229.056 77.2306 215.253 80.4561 198.605 84.338ZM123.951 127.787C108.643 146.26 108.197 146.916 109.588 147.298C110.368 147.516 121.28 148.554 133.863 149.648C146.388 150.686 157.522 151.724 158.471 151.889C159.808 152.055 160.308 151.945 160.308 151.398C160.308 151.017 161.199 149.267 162.256 147.516L164.205 144.347L156.188 123.743C151.734 112.431 147.837 102.482 147.502 101.607L146.945 100.076L143.382 104.339C141.431 106.746 132.691 117.238 123.951 127.787Z" fill="#5A6C9E"/>
<path d="M144.882 118.441C149.948 125.218 154.014 135.057 155.014 143.034L155.459 146.203L151.897 145.822C149.948 145.603 148.277 145.384 148.222 145.331C148.168 145.278 147.722 143.309 147.22 140.905C145.994 135.166 143.545 129.428 140.148 124.455C138.477 121.995 137.588 120.138 137.811 119.754C138.645 118.332 141.597 114.943 141.931 114.943C142.1 114.943 143.437 116.528 144.882 118.441Z" fill="#5A6C9E"/>
<path d="M136.588 127.35C137.311 128.06 136.754 128.553 132.022 131.448C125.285 135.602 125.342 135.602 126.9 133.689C128.46 131.885 136.085 126.856 136.588 127.35Z" fill="#5A6C9E"/>
<path d="M142.657 142.653C143.66 143.581 142.714 143.909 138.706 143.856C135.254 143.8 134.808 143.69 136.368 143.365C140.317 142.487 142.323 142.268 142.657 142.653Z" fill="#5A6C9E"/>
<path d="M149.448 54.7702C153.345 55.2611 155.182 56.2456 155.682 57.9958C156.351 60.565 155.294 60.837 143.603 61.0025L132.746 61.1119L128.737 62.9715C125.174 64.6123 124.394 64.775 121.777 64.4468C115.597 63.6278 111.312 62.4246 110.697 61.2774C109.806 59.6927 111.032 57.289 113.48 55.8108C115.429 54.6076 115.929 54.5543 130.794 54.4982C139.206 54.4421 147.611 54.5515 149.448 54.7702Z" fill="#5A6C9E"/>
<path d="M279.164 96.9087C286.512 98.0558 296.143 101.772 302.266 105.817C305.663 108.058 311.898 113.959 314.792 117.732C323.255 128.443 327.263 142.762 325.649 156.205C322.977 178.285 307.666 195.991 285.844 202.168C278.661 204.19 267.918 204.574 260.458 203.043C249.047 200.748 239.527 195.501 231.51 187.193C225.941 181.454 222.213 175.497 219.653 168.448C217.036 161.288 216.313 156.315 216.702 147.625C217.09 137.132 219.764 129.1 225.776 120.026C228.281 116.256 237.578 106.964 238.19 107.62C238.413 107.892 239.193 109.424 239.861 111.065L241.087 113.962L237.247 117.897C227.559 127.68 223.273 138.667 223.941 152.329C224.33 160.143 225.221 163.75 228.507 170.529C234.798 183.263 245.433 191.734 260.241 195.725C265.475 197.147 277.889 196.982 283.512 195.397C304.438 189.543 318.466 171.508 318.578 150.467C318.689 128.387 303.046 109.314 280.832 104.504C276.324 103.52 264.464 103.629 260.512 104.723C258.841 105.16 257.395 105.542 257.338 105.489C256.727 104.779 254.555 99.0403 254.89 98.8216C257.673 97.1807 272.872 95.9775 279.164 96.9087Z" fill="#5A6C9E"/>
<path d="M108.809 96.9625C113.094 97.5627 118.997 99.3129 123.506 101.335C125.509 102.21 127.234 103.083 127.346 103.195C127.511 103.304 126.677 104.617 125.509 106.036C124.34 107.511 123.337 108.715 123.283 108.824C123.229 108.88 121.446 108.224 119.274 107.349C111.092 104.07 102.963 102.923 94.8346 104.014C76.4062 106.417 61.5435 118.388 55.6407 135.604C48.0694 157.849 58.2579 181.514 79.969 192.225C99.2888 201.733 124.006 196.323 137.534 179.601C140.54 175.881 144.271 169.377 145.717 165.279L146.385 163.476L149.725 163.695C151.563 163.804 153.177 164.079 153.345 164.241C153.791 164.623 151.62 170.746 149.837 174.243C147.388 179.107 143.045 184.736 138.368 189.165C130.463 196.598 121.277 201.243 110.366 203.265C103.294 204.577 92.7746 204.084 85.9804 202.171C65.6035 196.323 51.1294 180.748 46.6751 160.034C46.2866 158.231 45.9494 153.53 46.0066 149.651C46.0608 143.912 46.3408 141.508 47.4551 137.298C50.0151 127.734 54.1351 120.411 60.8721 113.469C73.4006 100.46 90.9375 94.4493 108.809 96.9625Z" fill="#5A6C9E"/>
<path d="M280.39 109.368C280.835 109.64 280.167 113.575 277.995 123.414C276.327 130.903 274.821 137.133 274.71 137.242C274.544 137.405 274.264 137.08 274.098 136.533C273.821 135.823 279.11 109.808 279.667 109.096C279.721 109.04 280.055 109.149 280.39 109.368Z" fill="#5A6C9E"/>
<path d="M264.69 110.133C265.135 112.265 267.752 126.802 267.752 127.293C267.752 127.565 267.307 127.13 266.807 126.418C265.467 124.561 262.684 108.93 263.687 108.93C264.075 108.93 264.521 109.477 264.69 110.133Z" fill="#5A6C9E"/>
<path d="M109.977 109.315C110.757 109.587 106.748 127.406 105.468 129.372C104.354 131.013 104.077 131.175 104.411 129.81C104.523 129.319 105.637 124.452 106.86 119.098C108.085 113.687 109.143 109.261 109.254 109.205C109.308 109.149 109.643 109.149 109.977 109.315Z" fill="#5A6C9E"/>
<path d="M94.0544 109.315C94.0544 109.587 95.1687 115.872 96.5601 123.361C98.5086 134.019 98.8972 137.189 98.3972 137.789C97.84 138.389 97.1715 135.495 95.0572 123.908C93.6087 115.819 92.3858 109.152 92.3858 109.042C92.3858 108.989 92.7744 108.933 93.2201 108.933C93.6658 108.933 94.0544 109.096 94.0544 109.315Z" fill="#5A6C9E"/>
<path d="M86.929 127.787C92.7176 136.642 95.4461 141.287 95.1118 141.778C94.8889 142.159 94.5547 142.378 94.4432 142.269C93.3861 140.903 77.352 115.817 77.352 115.435C77.352 113.578 79.3006 116.145 86.929 127.787Z" fill="#5A6C9E"/>
<path d="M295.809 115.982C296.198 116.582 279.052 140.902 278.272 140.902C277.995 140.902 277.772 140.63 277.772 140.355C277.715 139.755 294.195 116.254 295.029 115.763C295.309 115.6 295.644 115.707 295.809 115.982Z" fill="#5A6C9E"/>
<path d="M242.53 129.701C245.647 131.832 248.821 134.345 249.49 135.33L250.77 137.08L249.044 135.986C238.856 129.429 234.402 125.875 236.407 125.875C236.687 125.875 239.413 127.622 242.53 129.701Z" fill="#5A6C9E"/>
<path d="M79.5801 134.892C91.2714 142.925 93.9428 145.056 92.1056 145.003C90.9914 144.95 65.1059 126.859 65.3831 126.365C65.6059 126.093 65.8831 125.874 66.1059 125.874C66.3288 125.927 72.3973 129.972 79.5801 134.892Z" fill="#5A6C9E"/>
<path d="M307.444 127.897C307.721 128.388 282.838 144.075 281.947 144.019C281.67 144.019 281.335 143.801 281.278 143.529C281.112 143.038 305.664 127.516 306.609 127.516C306.944 127.513 307.332 127.679 307.444 127.897Z" fill="#5A6C9E"/>
<path d="M244.312 143.637C255.169 146.097 258.955 147.298 258.118 148.12C258.061 148.173 251.55 146.807 243.644 145.113C234.29 143.091 229.336 141.778 229.336 141.287C229.336 140.356 229.838 140.412 244.312 143.637Z" fill="#5A6C9E"/>
<path d="M75.7945 144.072C86.0944 146.313 91.2715 147.679 91.2715 148.117C91.2715 148.498 91.1058 148.826 90.8801 148.826C90.6572 148.826 83.3658 147.295 74.7345 145.438C63.8775 143.088 58.9804 141.831 58.9804 141.34C58.9804 140.412 58.2576 140.246 75.7945 144.072Z" fill="#5A6C9E"/>
<path d="M313.4 142.925C313.4 143.525 310.226 144.237 299.872 146.041C292.466 147.297 285.732 148.501 284.841 148.663C283.784 148.882 283.338 148.717 283.338 148.172C283.338 147.572 286.566 146.807 296.866 145.056C304.272 143.744 311.006 142.596 311.843 142.434C312.955 142.215 313.4 142.378 313.4 142.925Z" fill="#5A6C9E"/>
<path d="M261.85 152.052C262.238 152.652 262.741 152.543 244.704 155.659C236.798 157.081 229.896 158.009 229.396 157.79C228.616 157.518 228.673 157.406 229.619 156.971C230.844 156.481 258.847 151.561 260.515 151.561C261.07 151.561 261.681 151.78 261.85 152.052Z" fill="#5A6C9E"/>
<path d="M91.2715 152.052C91.2715 152.652 90.0458 152.927 72.7888 155.931C58.9261 158.335 58.2576 158.391 58.5376 157.462C58.7033 157.081 64.7175 155.768 73.5145 154.237C88.7658 151.508 91.2715 151.233 91.2715 152.052Z" fill="#5A6C9E"/>
<path d="M298.315 155.333C306.332 157.08 312.566 158.721 312.735 159.102C313.069 160.087 312.623 160.031 297.538 156.752C289.909 155.111 283.621 153.745 283.509 153.745C283.398 153.745 283.344 153.361 283.344 152.926C283.344 152.489 283.509 152.16 283.732 152.16C284.007 152.217 290.521 153.636 298.315 155.333Z" fill="#5A6C9E"/>
<path d="M264.632 154.73C265.021 155.386 235.85 173.474 235.238 172.874C234.961 172.602 234.793 172.274 234.961 172.164C236.018 171.236 263.41 154.292 263.855 154.292C264.132 154.292 264.467 154.458 264.632 154.73Z" fill="#5A6C9E"/>
<path d="M92.3828 155.606C92.3828 156.262 65.826 173.422 64.826 173.422C64.6031 173.422 64.5488 173.04 64.6603 172.603C64.7717 172.003 91.2714 154.84 92.1628 154.84C92.2714 154.84 92.3828 155.168 92.3828 155.606Z" fill="#5A6C9E"/>
<path d="M293.138 164.295C299.26 168.558 304.829 172.437 305.498 172.874C306.22 173.365 306.555 173.968 306.278 174.35C306 174.787 301.88 172.218 293.361 166.426C282.061 158.665 280.001 156.971 281.504 156.699C281.724 156.643 286.958 160.087 293.138 164.295Z" fill="#5A6C9E"/>
<path d="M266.859 156.915C267.193 157.462 247.873 184.624 247.15 184.624C246.816 184.624 246.593 184.352 246.593 184.077C246.593 183.367 265.633 156.478 266.19 156.478C266.416 156.481 266.693 156.699 266.859 156.915Z" fill="#5A6C9E"/>
<path d="M95.0572 158.065C95.5029 158.337 92.6629 162.766 86.483 171.564C81.3602 178.725 77.0745 184.736 76.9631 184.845C76.8517 185.008 76.5174 184.845 76.2403 184.573C75.5146 183.861 94.1658 157.518 95.0572 158.065Z" fill="#5A6C9E"/>
<path d="M269.978 158.937C269.978 159.756 262.684 191.128 262.464 191.347C261.127 192.659 261.741 188.449 264.912 174.622C267.418 163.582 268.752 158.662 269.255 158.662C269.644 158.665 269.978 158.774 269.978 158.937Z" fill="#5A6C9E"/>
<path d="M283.227 167.302C286.066 171.728 289.852 177.576 291.689 180.364C294.084 183.971 294.752 185.446 294.195 185.665C293.695 185.828 290.855 181.949 285.344 173.531C276.658 160.141 276.101 159.213 277.272 159.213C277.715 159.266 280.389 162.873 283.227 167.302Z" fill="#5A6C9E"/>
<path d="M273.876 160.415C273.876 160.797 275.156 167.904 276.658 176.156C278.718 187.414 279.218 191.24 278.718 191.568C278.33 191.787 277.996 191.787 277.938 191.568C277.773 191.077 272.204 160.362 272.204 160.034C272.204 159.871 272.593 159.762 273.038 159.762C273.484 159.759 273.876 160.087 273.876 160.415Z" fill="#5A6C9E"/>
<path d="M102.74 160.197C103.632 160.797 109.032 191.459 108.197 191.459C107.809 191.459 107.363 191.021 107.195 190.474C106.637 188.562 101.795 160.743 101.963 160.253C102.072 160.031 102.406 159.978 102.74 160.197Z" fill="#5A6C9E"/>
<path d="M99.0659 160.141C99.0659 160.359 97.5059 167.52 95.6145 175.99C93.166 186.921 91.9403 191.456 91.4403 191.456C90.5489 191.456 90.3832 192.331 94.5031 174.022C96.3974 165.77 97.9545 160.031 98.3459 159.866C98.7316 159.759 99.0659 159.868 99.0659 160.141Z" fill="#5A6C9E"/>
<path d="M109.531 162.601C116.434 172.547 124.117 185.118 123.617 185.609C123.283 185.937 122.28 184.899 120.611 182.383C119.274 180.305 115.657 174.788 112.651 170.14C109.589 165.496 106.917 161.342 106.637 160.958C106.414 160.576 106.526 160.301 107.083 160.301C107.529 160.307 108.64 161.345 109.531 162.601Z" fill="#5A6C9E"/>
<path d="M127.011 167.464C135.082 172.984 136.865 174.516 135.194 174.516C134.694 174.516 121.165 165.498 116.934 162.382L115.6 161.398H116.934C117.714 161.398 121.834 163.857 127.011 167.464Z" fill="#5A6C9E"/>
</svg>
