<svg width="20" height="20" viewBox="0 0 20 20" fill="none" xmlns="http://www.w3.org/2000/svg">
<g clip-path="url(#clip0_321_3348)">
<path d="M3.934 19.0005C2.31524 19.0005 1 17.6662 1 16.0272C1 14.3882 2.31669 13.0538 3.934 13.0538C5.55131 13.0538 6.86799 14.3882 6.86799 16.0272C6.86799 17.6662 5.55131 19.0005 3.934 19.0005ZM3.934 14.3706C3.03356 14.3706 2.30079 15.1132 2.30079 16.0257C2.30079 16.9382 3.03356 17.6808 3.934 17.6808C4.83443 17.6808 5.56721 16.9382 5.56721 16.0257C5.56721 15.1132 4.83443 14.3706 3.934 14.3706Z" fill="#4589FF"/>
<path d="M15.7032 8.80769L13.1522 5.40081C12.6883 4.81347 12.4339 4.07673 12.4339 3.32681C12.4339 1.49155 13.9067 -0.000976562 15.7162 -0.000976562C17.5258 -0.000976562 18.9986 1.49155 18.9986 3.32681C18.9986 3.76621 18.9147 4.19244 18.7485 4.59669C18.669 4.7915 18.5693 4.98044 18.4537 5.15767C18.3973 5.24409 18.3337 5.33783 18.2557 5.42864C18.14 5.57218 16.3233 7.97428 16.2192 8.11489L15.7018 8.80769H15.7032ZM15.7162 1.31871C14.6236 1.31871 13.7347 2.2195 13.7347 3.32827C13.7347 3.78818 13.8865 4.2232 14.1726 4.58351L14.1842 4.59816L15.7061 6.62969C16.3016 5.84168 17.2035 4.65089 17.2743 4.5674C17.3032 4.53225 17.3393 4.48098 17.3726 4.42972C17.4434 4.3228 17.5026 4.20855 17.5503 4.09138C17.6486 3.85263 17.7007 3.58752 17.7007 3.32681C17.7007 2.2195 16.8118 1.31725 15.7191 1.31725L15.7162 1.31871Z" fill="#4589FF"/>
<path d="M15.7278 4.13971C16.1612 4.13971 16.5126 3.78363 16.5126 3.34438C16.5126 2.90513 16.1612 2.54905 15.7278 2.54905C15.2944 2.54905 14.943 2.90513 14.943 3.34438C14.943 3.78363 15.2944 4.13971 15.7278 4.13971Z" fill="#4589FF"/>
<path d="M6.27252 16.616C6.3419 16.4329 6.38092 16.2351 6.38092 16.0272C6.38092 15.9012 6.36502 15.7782 6.33901 15.661H6.27252V16.6174V16.616Z" fill="#4589FF"/>
<path d="M9.04753 10.1406C8.23816 10.1406 7.57909 9.47266 7.57909 8.65243C7.57909 7.8322 8.23816 7.1643 9.04753 7.1643H12.6261L11.772 5.84608H9.04898C7.52272 5.84608 6.27975 7.10425 6.27975 8.65243C6.27975 10.2006 7.52128 11.4588 9.04898 11.4588H14.1929C15.3361 11.4588 16.2655 12.4006 16.2655 13.5592C16.2655 14.7177 15.3361 15.6595 14.1929 15.6595H7.65714C7.67159 15.7796 7.68171 15.9012 7.68171 16.0257C7.68171 16.3582 7.62534 16.6775 7.52561 16.9777H14.1929C16.053 16.9777 17.5662 15.4442 17.5662 13.5592C17.5662 11.6741 16.053 10.1406 14.1929 10.1406H9.04753Z" fill="#4589FF"/>
</g>
<defs>
<clipPath id="clip0_321_3348">
<rect width="20" height="20" fill="white"/>
</clipPath>
</defs>
</svg>
