<svg width="20" height="20" viewBox="0 0 20 20" fill="none" xmlns="http://www.w3.org/2000/svg">
<g clip-path="url(#clip0_321_3384)">
<path d="M4.51252 2.36369C4.31112 2.03326 4.39923 1.61001 4.7029 1.38343V1.38029C4.7029 1.38029 4.70605 1.37714 4.7092 1.37557C4.71707 1.37085 4.72651 1.36613 4.73595 1.36141C4.74381 1.35511 4.75168 1.35039 4.76112 1.3441C4.76427 1.3441 4.76584 1.34095 4.76899 1.33938V1.34252C5.11043 1.17574 5.52739 1.29217 5.72879 1.6226L6.90415 3.21177L6.17879 3.65391L6.11271 3.69482L5.38735 4.13695L4.51409 2.36369H4.51252Z" fill="#4589FF"/>
<path d="M15.4857 17.6355C15.6871 17.9659 15.599 18.3892 15.2953 18.6158V18.6189C15.2953 18.6189 15.2922 18.622 15.289 18.6236C15.2811 18.6283 15.2717 18.6331 15.2623 18.6378C15.2544 18.6441 15.2465 18.6488 15.2371 18.6551C15.2339 18.6551 15.2324 18.6582 15.2292 18.6598V18.6567C14.8878 18.8234 14.4708 18.707 14.2694 18.3766L13.0941 16.7874L13.8194 16.3453L13.8855 16.3044L14.6109 15.8622L15.4841 17.6355H15.4857Z" fill="#4589FF"/>
<path d="M11.519 0.721015C11.6103 0.344963 11.9722 0.107374 12.3467 0.162444V0.159297C12.3467 0.159297 12.353 0.159297 12.3561 0.160871C12.3656 0.164017 12.375 0.167164 12.3844 0.168738C12.3939 0.170311 12.4033 0.171885 12.4143 0.175032C12.4175 0.175032 12.4206 0.176605 12.4222 0.178178V0.181325C12.7794 0.304054 12.9918 0.681679 12.9005 1.05616L12.6079 3.01194L11.7818 2.81212L11.7063 2.79324L10.8802 2.59341L11.5159 0.721015H11.519Z" fill="#4589FF"/>
<path d="M8.47916 19.2797C8.3879 19.6558 8.02601 19.8934 7.65153 19.8383V19.8415C7.65153 19.8415 7.64524 19.8415 7.64209 19.8399C7.63265 19.8367 7.62321 19.8336 7.61377 19.832C7.60433 19.8304 7.59489 19.8289 7.58387 19.8257C7.58073 19.8257 7.57758 19.8242 7.57601 19.8226V19.8194C7.21884 19.6967 7.00642 19.3191 7.09768 18.9446L7.39034 16.9888L8.2164 17.1886L8.29192 17.2075L9.11798 17.4074L8.48231 19.2797H8.47916Z" fill="#4589FF"/>
<path d="M17.635 4.51301C17.9654 4.31161 18.3887 4.39972 18.6153 4.70339H18.6184C18.6184 4.70339 18.6216 4.70654 18.6231 4.70969C18.6279 4.71755 18.6326 4.72699 18.6373 4.73644C18.6436 4.7443 18.6483 4.75217 18.6546 4.76161C18.6546 4.76476 18.6577 4.76633 18.6593 4.76948H18.6562C18.823 5.11091 18.7065 5.52788 18.3761 5.72928L16.7869 6.90464L16.3448 6.17928L16.3039 6.1132L15.8617 5.38784L17.635 4.51458V4.51301Z" fill="#4589FF"/>
<path d="M2.3632 15.4862C2.03278 15.6876 1.60952 15.5995 1.38295 15.2958H1.3798C1.3798 15.2958 1.37665 15.2926 1.37508 15.2895C1.37036 15.2816 1.36564 15.2722 1.36092 15.2628C1.35462 15.2549 1.3499 15.247 1.34361 15.2376C1.34361 15.2344 1.34046 15.2329 1.33889 15.2297H1.34204C1.17525 14.8883 1.29169 14.4713 1.62211 14.2699L3.21128 13.0946L3.65342 13.8199L3.69433 13.886L4.13647 14.6113L2.3632 15.4846V15.4862Z" fill="#4589FF"/>
<path d="M19.2793 11.5195C19.6553 11.6108 19.8929 11.9727 19.8378 12.3472H19.841C19.841 12.3472 19.841 12.3535 19.8394 12.3566C19.8363 12.366 19.8331 12.3755 19.8315 12.3849C19.83 12.3944 19.8284 12.4038 19.8252 12.4148C19.8252 12.418 19.8237 12.4211 19.8221 12.4227H19.8189C19.6962 12.7799 19.3186 12.9923 18.9441 12.901L16.9883 12.6084L17.1882 11.7823L17.207 11.7068L17.4069 10.8807L19.2793 11.5164V11.5195Z" fill="#4589FF"/>
<path d="M0.720527 8.47965C0.344475 8.38839 0.106885 8.0265 0.161956 7.65202H0.158809C0.158809 7.65202 0.158809 7.64573 0.160382 7.64258C0.163529 7.63314 0.166676 7.6237 0.16825 7.61426C0.169823 7.60482 0.171396 7.59538 0.174543 7.58436C0.174543 7.58122 0.176117 7.57807 0.17769 7.5765H0.180837C0.303565 7.21932 0.681191 7.00691 1.05567 7.09817L3.01146 7.39083L2.81163 8.21689L2.79275 8.29241L2.59292 9.11847L0.720527 8.4828V8.47965Z" fill="#4589FF"/>
<path d="M7.83877 0.848464C7.77898 0.467691 8.02129 0.107374 8.3879 0.0161141V0.0129672C8.3879 0.0129672 8.39262 0.0129672 8.39577 0.0113938C8.40521 0.0113938 8.41622 0.00982033 8.42566 0.00824689C8.4351 0.00667345 8.44455 0.00352657 8.45556 0.00195312C8.45871 0.00195312 8.46185 0.00195312 8.465 0.00195312V0.00510001C8.84263 -0.020075 9.18406 0.24741 9.24385 0.629756L9.72375 2.54778L8.88511 2.67995L8.80958 2.69254L7.97094 2.82471L7.83877 0.851611V0.848464Z" fill="#4589FF"/>
<path d="M12.1594 19.1523C12.2192 19.5331 11.9769 19.8934 11.6103 19.9846V19.9878C11.6103 19.9878 11.6056 19.9878 11.6024 19.9894C11.593 19.9894 11.582 19.9909 11.5725 19.9925C11.5631 19.9941 11.5537 19.9972 11.5426 19.9988C11.5395 19.9988 11.5364 19.9988 11.5332 19.9988V19.9957C11.1556 20.0208 10.8141 19.7533 10.7544 19.371L10.2745 17.453L11.1131 17.3208L11.1886 17.3082L12.0273 17.1761L12.1594 19.1491V19.1523Z" fill="#4589FF"/>
<path d="M14.9429 2.0018C15.1694 1.69025 15.5958 1.60686 15.9215 1.80197V1.79882C15.9215 1.79882 15.9278 1.80197 15.931 1.80354C15.9388 1.80984 15.9467 1.81613 15.9546 1.82242C15.9624 1.82872 15.9719 1.83344 15.9798 1.83816C15.9829 1.83973 15.9845 1.84131 15.986 1.84445V1.8476C16.2693 2.09778 16.3212 2.52732 16.0946 2.84044L15.0782 4.53661L14.3921 4.03625L14.3292 3.99062L13.6432 3.49027L14.9444 2.0018H14.9429Z" fill="#4589FF"/>
<path d="M5.05536 17.999C4.82878 18.3105 4.40238 18.3939 4.07668 18.1988V18.2019C4.07668 18.2019 4.07038 18.1988 4.06723 18.1972C4.05937 18.1909 4.0515 18.1846 4.04363 18.1783C4.03577 18.172 4.02633 18.1673 4.01846 18.1626C4.01531 18.161 4.01374 18.1595 4.01216 18.1563V18.1532C3.72894 17.903 3.67702 17.4734 3.9036 17.1603L4.92004 15.4642L5.60606 15.9645L5.669 16.0101L6.35502 16.5105L5.05378 17.999H5.05536Z" fill="#4589FF"/>
<path d="M19.1518 7.83926C19.5326 7.77947 19.8929 8.02178 19.9842 8.38839H19.9873C19.9873 8.38839 19.9873 8.39311 19.9889 8.39626C19.9889 8.4057 19.9905 8.41671 19.992 8.42615C19.9936 8.43559 19.9967 8.44503 19.9983 8.45605C19.9983 8.4592 19.9983 8.46234 19.9983 8.46549H19.9952C20.0203 8.84311 19.7529 9.18455 19.3705 9.24434L17.4525 9.72424L17.3203 8.8856L17.3077 8.81007L17.1756 7.97143L19.1487 7.83926H19.1518Z" fill="#4589FF"/>
<path d="M0.847976 12.1599C0.467203 12.2197 0.106885 11.9774 0.0156258 11.6108H0.0124789C0.0124789 11.6108 0.0124789 11.6061 0.0109055 11.6029C0.0109055 11.5935 0.00933205 11.5825 0.00775861 11.573C0.00618516 11.5636 0.00303828 11.5542 0.00146484 11.5431C0.00146484 11.54 0.00146484 11.5368 0.00146484 11.5337H0.00461172C-0.0205633 11.1561 0.246922 10.8146 0.629268 10.7548L2.54729 10.2749L2.67946 11.1136L2.69205 11.1891L2.82422 12.0278L0.851123 12.1599H0.847976Z" fill="#4589FF"/>
<path d="M17.9985 14.9433C18.31 15.1699 18.3934 15.5963 18.1983 15.922H18.2014C18.2014 15.922 18.1983 15.9283 18.1967 15.9315C18.1904 15.9393 18.1841 15.9472 18.1778 15.9551C18.1716 15.9629 18.1668 15.9724 18.1621 15.9802C18.1605 15.9834 18.159 15.985 18.1558 15.9865H18.1527C17.9025 16.2698 17.4729 16.3217 17.1598 16.0951L15.4637 15.0787L15.964 14.3926L16.0096 14.3297L16.51 13.6437L17.9985 14.9449V14.9433Z" fill="#4589FF"/>
<path d="M2.00131 5.05584C1.68977 4.82927 1.60637 4.40287 1.80148 4.07716H1.79833C1.79833 4.07716 1.80148 4.07087 1.80305 4.06772C1.80935 4.05986 1.81564 4.05199 1.82194 4.04412C1.82823 4.03625 1.83295 4.02681 1.83767 4.01895C1.83924 4.0158 1.84082 4.01423 1.84396 4.01265H1.84711C2.09729 3.72943 2.52684 3.67751 2.83995 3.90408L4.53612 4.92053L4.03577 5.60655L3.99014 5.66949L3.48978 6.3555L2.00131 5.05427V5.05584Z" fill="#4589FF"/>
<path d="M2.87142 14.3439C0.476644 10.4134 1.72438 5.26826 5.65484 2.87191C9.58529 0.477132 14.7304 1.72487 17.1268 5.65532C18.2864 7.55919 18.6357 9.80134 18.1102 11.968C17.5847 14.1346 16.2457 15.9661 14.3434 17.1273C13.1397 17.8605 11.8211 18.2523 10.5026 18.331C7.51779 18.5072 4.53297 17.0706 2.87142 14.3439ZM6.32355 3.96702C2.9973 5.99361 1.93994 10.3505 3.96811 13.6767C5.9947 17.003 10.35 18.0603 13.6778 16.0322C15.289 15.0503 16.4219 13.4989 16.8672 11.6659C17.3125 9.83123 17.0167 7.93524 16.0348 6.32246C14.6282 4.0158 12.1028 2.79953 9.57585 2.94901C8.46028 3.01509 7.34471 3.34551 6.32512 3.96702H6.32355Z" fill="#4589FF"/>
<path d="M7.54296 10.1443C7.46272 8.78962 8.50119 7.62212 9.85435 7.54345C11.2091 7.46321 12.3766 8.50168 12.4552 9.85641C12.5355 11.2111 11.497 12.3786 10.1423 12.4573C8.78756 12.5376 7.62164 11.4991 7.54139 10.1443H7.54296ZM8.82217 10.0688C8.85993 10.7171 9.41851 11.2143 10.0683 11.1765C10.7182 11.1388 11.2138 10.5802 11.176 9.93036C11.1383 9.2821 10.5781 8.7849 9.92987 8.82266C9.28162 8.86042 8.78441 9.41899 8.82217 10.0688Z" fill="#4589FF"/>
<path d="M11.8872 8.3821L15.5659 3.52803L14.5448 2.7539L10.6127 8.01391L11.8872 8.3821Z" fill="#4589FF"/>
<path d="M8.06611 9.47741L1.37364 10.7105L1.60601 11.9717L8.29848 10.7385L8.06611 9.47741Z" fill="#4589FF"/>
<path d="M11.8926 11.6369L10.7824 12.2786L13.4542 16.9007L14.5644 16.2589L11.8926 11.6369Z" fill="#4589FF"/>
</g>
<defs>
<clipPath id="clip0_321_3384">
<rect width="20" height="20" fill="white"/>
</clipPath>
</defs>
</svg>
